<svg xmlns="http://www.w3.org/2000/svg" version="1.1" xmlns:xlink="http://www.w3.org/1999/xlink" xmlns:svgjs="http://svgjs.dev/svgjs" width="181" height="131"><svg width="181" height="131" viewBox="0 0 181 131" fill="none" xmlns="http://www.w3.org/2000/svg">
<g clip-path="url(#clip0_174_183)">
<path d="M59.7739 130.263C26.7835 130.263 0.006747 103.48 0.006747 70.4956V10.7284H59.7739C92.7579 10.722 119.541 37.5052 119.541 70.4892C119.541 103.48 92.7579 130.263 59.7739 130.263Z" fill="black"></path>
<path d="M172.072 9.82816H120.352V68.3756V129.854H172.072C161.459 103.365 144.58 83.4147 121.584 69.838C146.324 58.8476 162.883 38.5399 172.072 9.82178V9.82816Z" fill="black"></path>
<path d="M174.658 7.84844C174.512 7.84844 174.397 7.81012 174.32 7.7271C174.243 7.64408 174.205 7.52913 174.205 7.38225V4.11898C174.205 3.96571 174.243 3.85076 174.326 3.77413C174.409 3.6975 174.524 3.65918 174.671 3.65918H176.102C176.562 3.65918 176.919 3.76774 177.175 3.99125C177.424 4.21477 177.551 4.52768 177.551 4.92362C177.551 5.17906 177.494 5.40257 177.379 5.59416C177.264 5.78574 177.104 5.92623 176.887 6.02841C176.676 6.13059 176.415 6.18167 176.102 6.18167L176.146 6.0795H176.389C176.555 6.0795 176.696 6.11781 176.823 6.20083C176.945 6.28385 177.053 6.40519 177.143 6.57122L177.507 7.24815C177.564 7.34394 177.59 7.43973 177.583 7.53552C177.583 7.63131 177.545 7.70794 177.475 7.76542C177.411 7.82289 177.309 7.85482 177.181 7.85482C177.053 7.85482 176.945 7.82928 176.868 7.7718C176.785 7.71433 176.715 7.63131 176.651 7.51636L176.089 6.47543C176.031 6.36687 175.961 6.29024 175.872 6.25192C175.789 6.2136 175.687 6.19445 175.565 6.19445H175.118V7.38225C175.118 7.52913 175.08 7.64408 175.003 7.7271C174.927 7.81012 174.812 7.84844 174.665 7.84844H174.658ZM175.112 5.53668H175.929C176.172 5.53668 176.357 5.48559 176.479 5.3898C176.6 5.29401 176.664 5.14713 176.664 4.94916C176.664 4.7512 176.6 4.6107 176.479 4.51491C176.357 4.41912 176.172 4.36803 175.929 4.36803H175.112V5.53668Z" fill="black"></path>
<path d="M175.808 9.6045C177.871 9.6045 179.544 7.93191 179.544 5.86866C179.544 3.80541 177.871 2.13281 175.808 2.13281C173.745 2.13281 172.072 3.80541 172.072 5.86866C172.072 7.93191 173.745 9.6045 175.808 9.6045Z" stroke="black" stroke-width="2" stroke-miterlimit="10"></path>
</g>
<defs>
<clipPath id="SvgjsClipPath1002">
<rect width="180.84" height="130.263" fill="white"></rect>
</clipPath>
</defs>
</svg><style>@media (prefers-color-scheme: light) { :root { filter: none; } }
@media (prefers-color-scheme: dark) { :root { filter: none; } }
</style></svg>