<?xml version="1.0" standalone="no"?>
<!DOCTYPE svg PUBLIC "-//W3C//DTD SVG 1.1//EN" "http://www.w3.org/Graphics/SVG/1.1/DTD/svg11.dtd" >
<svg xmlns="http://www.w3.org/2000/svg" xmlns:xlink="http://www.w3.org/1999/xlink" version="1.1">
<metadata>
Created by FontForge 20201107 at Fri Aug 26 06:34:51 2022
 By 
Copyright (c) 2022, RandomMaerks (Bao Nguyen) || For more information, send me an email at: rmforbusiness@gmail.com
</metadata>
<defs>
<font id="RG-SlimBlackItalic" horiz-adv-x="471" >
  <font-face 
    font-family="Random Grotesque Slim Black"
    font-weight="900"
    font-style="italic"
    font-stretch="condensed"
    units-per-em="1000"
    panose-1="2 0 10 3 0 0 0 0 0 0"
    ascent="800"
    descent="-200"
    x-height="460"
    cap-height="654"
    bbox="-68 -358 1358.51 1050"
    underline-thickness="50"
    underline-position="-100"
    unicode-range="U+0020-F0003"
  />
<missing-glyph horiz-adv-x="364" 
d="M33 0v666h265v-666h-265zM66 33h199v600h-199v-600z" />
    <glyph glyph-name="f_i" unicode="fi" horiz-adv-x="561" 
d="M463 588q6 36 36.5 62t66.5 26t57.5 -26t15.5 -62q-7 -36 -37.5 -62.5t-66.5 -26.5t-57.5 26.5t-14.5 62.5zM451 460h157l-81 -460h-157zM218 0h-156l59 334h-47l22 126h47l16 89q13 76 60 107t144 31h72l-23 -126h-62q-33 0 -40 -41l-10 -60h151l-22 -126h-152z" />
    <glyph glyph-name="f_f" unicode="ff" horiz-adv-x="620" 
d="M218 0h-156l59 334h-47l22 126h47l16 89q13 76 60 107t144 31h72l-23 -126h-62q-33 0 -40 -41l-10 -60h106l-22 -126h-107zM500 0h-156l58 334h-18l22 126h19l15 89q14 76 61 107t143 31h72l-22 -126h-63q-32 0 -39 -41l-11 -60h107l-23 -126h-106z" />
    <glyph glyph-name="f_l" unicode="fl" horiz-adv-x="570" 
d="M218 0h-156l59 334h-47l22 126h47l16 89q13 76 60 107t144 31h292l-32 -126h-273q-33 0 -40 -41l-10 -60h106l-22 -126h-107zM496 677l159 10l-121 -687h-157z" />
    <glyph glyph-name=".notdef" horiz-adv-x="364" 
d="M33 0v666h265v-666h-265zM66 33h199v600h-199v-600z" />
    <glyph glyph-name=".null" horiz-adv-x="0" 
 />
    <glyph glyph-name="nonmarkingreturn" horiz-adv-x="333" 
 />
    <glyph glyph-name="space" unicode=" " horiz-adv-x="175" 
 />
    <glyph glyph-name="exclam" unicode="!" horiz-adv-x="215" 
d="M118 420l41 234h128l-41 -234l-66 -258h-86zM38 52q6 33 33 56t60.5 23t52 -23t12.5 -56q-6 -34 -32.5 -56t-60 -22t-52.5 22t-13 56z" />
    <glyph glyph-name="quotedbl" unicode="&#x22;" horiz-adv-x="318" 
d="M300 687h130l-113 -219h-64zM144 687h131l-114 -219h-64z" />
    <glyph glyph-name="numbersign" unicode="#" horiz-adv-x="645" 
d="M79 284h536l-22 -126h-536zM179 500h526l-22 -126h-526zM562 654h161l-286 -654h-162zM327 654h161l-287 -654h-161z" />
    <glyph glyph-name="dollar" unicode="$" horiz-adv-x="384" 
d="M290 687l-121 -687h48l121 687h-48zM411 230q8 44 -0.5 76.5t-31.5 52t-47 30.5t-57 18q-27 7 -40.5 16t-10.5 25q3 20 17 32t33 12q44 0 43 -75l127 28q-11 151 -163 151q-72 0 -121.5 -38.5t-60.5 -103.5q-7 -39 0.5 -68.5t28 -48.5t42.5 -30t52 -20q17 -5 26 -9
t19.5 -11t14 -16.5t1.5 -22.5q-3 -18 -17 -29.5t-33 -11.5q-51 0 -50 86l-125 -18q0 -86 45 -129t121 -43q72 0 124 41t63 106z" />
    <glyph glyph-name="percent" unicode="%" horiz-adv-x="758" 
d="M566 149q-10 -53 30 -53q38 0 48 53q9 51 -30 51t-48 -51zM446 149q13 75 63.5 116.5t123.5 41.5q68 0 105.5 -42t24.5 -116q-14 -76 -63.5 -118t-122.5 -42t-109 42t-22 118zM231 508q-10 -54 30 -54q38 0 48 54q9 49 -30 49t-48 -49zM112 508q13 75 63 116t123 41
q68 0 106 -41.5t25 -115.5q-13 -76 -63.5 -118.5t-123.5 -42.5t-108 42.5t-22 118.5zM648 654h170l-591 -654h-170z" />
    <glyph glyph-name="ampersand" unicode="&#x26;" horiz-adv-x="576" 
d="M335 62q-21 -34 -66 -58.5t-86 -24.5q-74 0 -111 47t-23 125q21 118 133 190l2 13q-53 76 -37 167q12 66 70 107.5t144 41.5q79 0 120.5 -45t39.5 -127l-157 -29q6 67 -20 67q-13 0 -22 -10.5t-12 -28.5q-2 -11 4 -30l58 -136l7 -74h15q45 53 71 122l139 -30
q-39 -113 -127 -196l77 -153h-168l-35 62h-16zM278 150l-38 74l-15 -24q-13 -22 -18 -48q-3 -18 4.5 -28.5t22.5 -10.5q23 0 44 37z" />
    <glyph glyph-name="quotesingle" unicode="'" horiz-adv-x="167" 
d="M144 687h131l-114 -219h-64z" />
    <glyph glyph-name="parenleft" unicode="(" horiz-adv-x="344" 
d="M239 -129q-37 23 -66 50.5t-54 64.5t-38 80.5t-17 98t8 116.5q48 273 311 408l40 -116q-78 -41 -141.5 -116.5t-81.5 -175t19 -176.5t101 -118z" />
    <glyph glyph-name="parenright" unicode=")" horiz-adv-x="344" 
d="M204 689q37 -23 66 -50.5t54 -64.5t38 -80.5t17 -98t-8 -116.5q-48 -273 -311 -408l-40 116q78 41 141.5 116.5t81.5 175t-19 176.5t-101 118z" />
    <glyph glyph-name="asterisk" unicode="*" horiz-adv-x="298" 
d="M232 730h91l-49 -92l17 -9l75 73l33 -78l-97 -20l-3 -17l90 -20l-59 -78l-52 71l-19 -9l18 -91h-91l48 91l-17 9l-75 -72l-32 78l98 21l3 17l-91 19l58 78l52 -72l19 9z" />
    <glyph glyph-name="plus" unicode="+" horiz-adv-x="378" 
d="M312 338h112l-22 -126h-112l-24 -133h-126l24 133h-112l22 126h112l23 133h126z" />
    <glyph glyph-name="comma" unicode="," horiz-adv-x="217" 
d="M42 72q6 33 33 56t60.5 23t52 -23t12.5 -56q-22 -125 -74 -179.5t-121 -54.5l5 82q56 0 94 24t54 70q-21 -20 -50 -20q-34 0 -53 22t-13 56z" />
    <glyph glyph-name="hyphen" unicode="-" horiz-adv-x="378" 
d="M74 338h350l-22 -126h-350z" />
    <glyph glyph-name="period" unicode="." horiz-adv-x="215" 
d="M42 72q6 33 32.5 56t60 23t52.5 -23t13 -56q-6 -34 -32.5 -56t-60.5 -22t-52.5 22t-12.5 56z" />
    <glyph glyph-name="slash" unicode="/" horiz-adv-x="409" 
d="M321 654h162l-278 -654h-162z" />
    <glyph glyph-name="zero" unicode="0" horiz-adv-x="492" 
d="M238 324q-36 -203 30 -203t102 203q35 202 -31 202t-101 -202zM79.5 324q31.5 177 105.5 261.5t180 84.5q98 0 145.5 -86t17.5 -260q-32 -177 -106.5 -262.5t-179.5 -85.5t-149.5 85.5t-13 262.5z" />
    <glyph glyph-name="one" unicode="1" horiz-adv-x="329" 
d="M291 0h-156l75 426l-124 -19l26 146l121 22l24 79h150z" />
    <glyph glyph-name="two" unicode="2" horiz-adv-x="429" 
d="M215 154l33 21l14 18q215 152 240 293q15 86 -31.5 140t-137.5 54q-172 0 -241 -205l146 -30q26 91 69 91q21 0 31 -14t6 -38q-17 -97 -127 -173l-178 -137l-31 -174h413l25 137h-233z" />
    <glyph glyph-name="three" unicode="3" horiz-adv-x="455" 
d="M380 334q53 9 90.5 49t47.5 99q16 88 -30.5 143t-134.5 55t-150.5 -52t-96.5 -153l146 -30q28 91 74 91q20 0 29 -17.5t4 -45.5q-7 -37 -27.5 -59.5t-48.5 -22.5h-71l-22 -127h71q27 0 40 -22t7 -59q-5 -28 -20.5 -45.5t-34.5 -17.5q-25 0 -34 27t-5 84l-156 -29
q-4 -111 39.5 -168.5t131.5 -57.5t154 55t81 143q10 59 -13 99t-73 49z" />
    <glyph glyph-name="four" unicode="4" horiz-adv-x="484" 
d="M386 616l-117 -244l-30 -40l-2 -16l290 1l-24 -136h-456l24 141l168 341zM441 0h-156l115 654h157z" />
    <glyph glyph-name="five" unicode="5" horiz-adv-x="446" 
d="M71 276h156l18 100l-30 13l47 87l31 174l-155 4zM138 654l-13 -136h363l24 136h-374zM227 276q6 34 21.5 55t34.5 21q46 0 25 -119q-21 -122 -54 -122q-18 0 -28 20t-9 54l-161 -34q4 -85 50.5 -135t119.5 -50q88 0 153 72.5t87 195.5q20 114 -11 178t-108 64
q-52 0 -89 -51.5t-54 -147.5z" />
    <glyph glyph-name="six" unicode="6" horiz-adv-x="469" 
d="M369 479q1 26 -5.5 41.5t-19.5 15.5q-26 0 -45.5 -26.5t-36.5 -91.5l-48 -86l19 -13q-4 -33 -16 -97l-147 62q20 110 48.5 187t66 122.5t81.5 66t99 20.5q66 0 111.5 -43t53.5 -113zM217 222q-8 -49 4.5 -80t41.5 -31q22 0 39 27t26 74q8 47 -3.5 72t-38.5 25
q-26 0 -44 -25.5t-25 -61.5zM70 284l136 -56q16 92 60.5 148.5t96.5 56.5q68 0 103.5 -63t18.5 -163q-20 -111 -87 -176t-161 -65q-92 0 -142.5 85.5t-24.5 232.5z" />
    <glyph glyph-name="seven" unicode="7" horiz-adv-x="440" 
d="M87 0h158l259 486l30 168h-396l-24 -136h259l-4 -23l-58 -76z" />
    <glyph glyph-name="eight" unicode="8" horiz-adv-x="465" 
d="M229.5 -24q92.5 0 160 52t82.5 134q21 119 -73 181l2 12q103 52 120 146q14 79 -32.5 129t-135 50t-153 -50t-78.5 -129q-19 -106 65 -166l-2 -12q-115 -55 -134 -161q-15 -82 35.5 -134t143 -52zM328 536q18 0 27 -15t4 -40q-5 -29 -17 -45t-37 -30q-20 14 -27 30t-2 45
q5 25 19 40t33 15zM318 183q-5 -29 -22.5 -46t-41 -17t-35 17.5t-6.5 45.5q6 34 22 54t46 34q25 -14 34 -33.5t3 -54.5z" />
    <glyph glyph-name="nine" unicode="9" horiz-adv-x="469" 
d="M214 167q-1 -26 6 -41.5t19 -15.5q26 0 45.5 26.5t36.5 91.5l48 86l-18 13q3 33 15 97l147 -62q-20 -110 -48.5 -187t-66 -122.5t-81.5 -66t-99 -20.5q-66 0 -111.5 43t-53.5 113zM366 424q8 49 -4.5 80t-41.5 31q-22 0 -39 -27t-26 -74q-8 -47 3.5 -72t38.5 -25
q26 0 44 25.5t25 61.5zM513 362l-135 56q-17 -92 -61.5 -148.5t-96.5 -56.5q-68 0 -103.5 63t-18.5 163q20 111 87 176t161 65q92 0 142.5 -85.5t24.5 -232.5z" />
    <glyph glyph-name="colon" unicode=":" horiz-adv-x="215" 
d="M96 378q6 33 32.5 56t60 23t52.5 -23t13 -56t-33 -56t-60.5 -23t-52 23t-12.5 56zM54 140q6 33 32.5 56t60 23t52.5 -23t13 -56q-6 -34 -32.5 -56t-60.5 -22t-52.5 22t-12.5 56z" />
    <glyph glyph-name="semicolon" unicode=";" horiz-adv-x="218" 
d="M55 142q6 33 32.5 56t60 23t52.5 -23t13 -56q-22 -125 -74 -179.5t-122 -54.5l5 82q56 0 94.5 24t54.5 70q-22 -20 -51 -20q-34 0 -52.5 22t-12.5 56zM97 378q6 33 33 56t60.5 23t52 -23t12.5 -56t-32.5 -56t-60 -23t-52.5 23t-13 56z" />
    <glyph glyph-name="less" unicode="&#x3c;" horiz-adv-x="366" 
d="M219 251l152 -49l-23 -129l-282 116l27 153l323 117l-23 -130l-168 -48l-57 -9l-2 -13z" />
    <glyph glyph-name="equal" unicode="=" horiz-adv-x="378" 
d="M58 248h350l-22 -126h-350zM90 428h350l-22 -126h-350z" />
    <glyph glyph-name="greater" unicode="&#x3e;" horiz-adv-x="366" 
d="M242 281l-151 49l22 129l282 -116l-27 -153l-323 -117l23 130l169 48l56 9l3 13z" />
    <glyph glyph-name="question" unicode="?" horiz-adv-x="406" 
d="M298 161q9 50 22 77.5t36 52.5q6 7 24.5 23.5t28.5 28t24 32t24 48t16 63.5q14 81 -25.5 132.5t-122.5 51.5q-79 0 -136 -49.5t-85 -143.5l145 -30q21 87 51 87q11 0 15.5 -12.5t1.5 -31.5q-7 -41 -22 -69.5t-39 -55.5t-25 -29q-31 -47 -53 -175h120zM143 52q5 33 32 56
t60.5 23t52 -23t13.5 -56q-6 -34 -33 -56t-60.5 -22t-52 22t-12.5 56z" />
    <glyph glyph-name="at" unicode="@" horiz-adv-x="707" 
d="M612 320q-9 -48 -22.5 -79.5t-25.5 -31.5q-8 0 -12.5 6.5t-3.5 15.5l31 173q10 57 -27.5 95t-103.5 38q-62 0 -109 -36t-67 -100l108 -29q8 33 21.5 51.5t29.5 18.5t24 -13.5t4 -35.5l-3 -14l-77 -33q-64 -20 -97 -46.5t-40 -67.5q-9 -50 16.5 -81.5t73.5 -31.5
q38 0 70.5 34.5t50.5 94.5l17 -6l-28 -45q-6 -34 28 -58.5t79 -24.5q72 0 124 54t69 152q32 182 -41.5 281t-231.5 99q-150 0 -254.5 -100.5t-134.5 -275.5q-32 -177 39 -277.5t226 -100.5q41 0 77 8l13 122q-22 -5 -63 -5q-100 0 -143 66t-21 187q21 120 86 186t161 66
t137 -67t20 -189zM363 249q4 21 29 29l51 26l-5 -30q-4 -22 -20.5 -36t-38.5 -14q-20 0 -16 25z" />
    <glyph glyph-name="A" unicode="A" horiz-adv-x="652" 
d="M244 285h269l-26 -146h-269zM387 448l-204 -448h-168l309 654h233l82 -654h-167l-50 448l-1 56h-13z" />
    <glyph glyph-name="B" unicode="B" horiz-adv-x="538" 
d="M221 147h77q88 0 97 52q5 27 -15 40.5t-64 13.5h-77zM265 400h77q77 0 87 57q5 26 -11 38.5t-57 12.5h-77zM432 333l-3 -13q63 -13 95 -54.5t22 -100.5q-13 -75 -84 -120t-179 -45h-245l115 654h245q107 0 157.5 -46.5t36.5 -124.5q-11 -60 -52.5 -100t-107.5 -50z" />
    <glyph glyph-name="C" unicode="C" horiz-adv-x="586" 
d="M640 444l-160 -30q-2 55 -24 83.5t-61 28.5q-57 0 -98.5 -52.5t-58.5 -149.5q-17 -92 6.5 -142.5t80.5 -50.5q42 0 76.5 32t52.5 90l150 -31q-43 -117 -125 -181.5t-181 -64.5q-128 0 -187.5 91.5t-30.5 256.5q29 169 121.5 262.5t220.5 93.5q90 0 148.5 -61.5
t69.5 -174.5z" />
    <glyph glyph-name="D" unicode="D" horiz-adv-x="549" 
d="M38 0l115 654h216q121 0 181.5 -92t34.5 -237.5t-117 -235t-214 -89.5h-216zM221 148h48q61 0 102.5 47t57.5 134q15 86 -10 132.5t-87 46.5h-48z" />
    <glyph glyph-name="E" unicode="E" horiz-adv-x="527" 
d="M153 654h466l-26 -147h-309l-19 -107h280l-26 -147h-280l-18 -106h309l-26 -147h-466z" />
    <glyph glyph-name="F" unicode="F" horiz-adv-x="527" 
d="M153 654h466l-26 -147h-309l-19 -107h280l-26 -147h-280l-44 -253h-157z" />
    <glyph glyph-name="G" unicode="G" horiz-adv-x="586" 
d="M640 444q-12 114 -71.5 175t-155.5 61q-122 0 -213.5 -96t-121.5 -269q-28 -157 23 -248t152 -91q80 0 140 68.5t78 171.5h-26q-6 -39 -40.5 -62t-81.5 -23q-53 0 -77 51t-8 142q17 97 57.5 149.5t95.5 52.5q83 0 89 -112zM304 362l-26 -146h167l-11 -67l48 -23l-74 -125
h157l63 361h-324z" />
    <glyph glyph-name="H" unicode="H" horiz-adv-x="570" 
d="M185 410h335l-26 -147h-335zM491 654h158l-115 -654h-158zM153 654h157l-115 -654h-157z" />
    <glyph glyph-name="I" unicode="I" horiz-adv-x="231" 
d="M153 655h157l-115 -655h-157z" />
    <glyph glyph-name="J" unicode="J" horiz-adv-x="510" 
d="M589 654h-158l-81 -455q-6 -34 -27.5 -55t-50.5 -21q-32 0 -47 28.5t-10 73.5l-160 -40q-3 -91 47.5 -148.5t146.5 -57.5q98 0 170 59.5t88 149.5z" />
    <glyph glyph-name="K" unicode="K" horiz-adv-x="601" 
d="M153 654h157l-46 -263l255 263h184l-282 -299l167 -355h-212l-98 243l-49 -51l-34 -192h-157z" />
    <glyph glyph-name="L" unicode="L" horiz-adv-x="527" 
d="M153 654h157l-89 -507h309l-26 -147h-466z" />
    <glyph glyph-name="M" unicode="M" horiz-adv-x="806" 
d="M456 224l233 430h196l-115 -654h-148l67 382l-196 -382h-179l-52 382l-67 -382h-157l115 654h206l71 -430l3 -54z" />
    <glyph glyph-name="N" unicode="N" horiz-adv-x="610" 
d="M531 654h158l-115 -654h-206l-101 412l-72 -412h-157l115 654h205l101 -410z" />
    <glyph glyph-name="O" unicode="O" horiz-adv-x="597" 
d="M238 327q-16 -93 6 -144.5t78 -51.5t96.5 51.5t56.5 144.5q17 93 -5 146t-78 53t-96.5 -53t-57.5 -146zM80 327q29 165 120.5 259t218.5 94q119 0 181 -95.5t33 -257.5q-29 -166 -120 -258.5t-218 -92.5t-185.5 92.5t-29.5 258.5z" />
    <glyph glyph-name="P" unicode="P" horiz-adv-x="525" 
d="M38 0l115 654h237q102 0 156 -64t36 -164q-17 -96 -91.5 -155t-178.5 -59h-80l-37 -212h-157zM258 358h70q40 0 65 18.5t31 52.5q7 38 -11 58.5t-59 20.5h-70z" />
    <glyph glyph-name="Q" unicode="Q" horiz-adv-x="598" 
d="M496 -52l-219 302l133 108l217 -302zM238 327q-16 -93 6 -144.5t78 -51.5t96.5 51.5t56.5 144.5q17 93 -5 146t-78 53t-96.5 -53t-57.5 -146zM80 327q29 165 120.5 259t218.5 94q119 0 181 -95.5t33 -257.5q-29 -166 -120 -258.5t-218 -92.5t-185.5 92.5t-29.5 258.5z
" />
    <glyph glyph-name="R" unicode="R" horiz-adv-x="525" 
d="M277 276h164l66 -276h-163zM38 0l115 654h237q102 0 156 -64t36 -164q-17 -96 -91.5 -155t-178.5 -59h-80l-37 -212h-157zM258 358h70q40 0 65 18.5t31 52.5q7 38 -11 58.5t-59 20.5h-70z" />
    <glyph glyph-name="S" unicode="S" horiz-adv-x="507" 
d="M518 182q-18 -97 -86.5 -153t-165.5 -56q-94 0 -148.5 54t-61.5 161l156 31q10 -92 80 -92q26 0 44.5 15.5t23.5 41.5q3 15 -2 26.5t-20.5 19.5t-27.5 12t-39 11q-7 2 -10 3q-38 9 -65.5 23.5t-51.5 38.5t-33 62.5t0 89.5q17 97 84.5 153.5t165.5 56.5q92 0 145 -51
t58 -153l-155 -31q-3 81 -71 81q-28 0 -46.5 -16t-23.5 -42q-5 -28 14.5 -41t71.5 -29q7 -3 11 -4q15 -4 27.5 -8.5t27.5 -11t26.5 -13.5t24 -17t21 -21.5t16 -26t11 -31.5t3.5 -38t-4 -45z" />
    <glyph glyph-name="T" unicode="T" horiz-adv-x="542" 
d="M141 654h491l-25 -146h-167l-90 -508h-158l90 508h-166z" />
    <glyph glyph-name="U" unicode="U" horiz-adv-x="561" 
d="M310 654l-76 -429q-8 -47 10.5 -72.5t60.5 -25.5q41 0 67 25.5t34 72.5l76 429h158l-77 -440q-19 -103 -98.5 -169t-185.5 -66q-110 0 -166 65t-37 170l77 440h157z" />
    <glyph glyph-name="V" unicode="V" horiz-adv-x="652" 
d="M382 206l204 448h168l-310 -654h-232l-82 654h167l50 -448l1 -56h13z" />
    <glyph glyph-name="W" unicode="W" horiz-adv-x="913" 
d="M520 439l-145 -439h-234l-11 654h157l-2 -431l-2 -56h13l18 56l152 431h206l5 -431l-2 -56h13l18 56l153 431h155l-242 -654h-234l6 439l4 59h-11z" />
    <glyph glyph-name="X" unicode="X" horiz-adv-x="604" 
d="M395 421l142 233h169l-219 -329l102 -325h-167l-61 233l-2 46h-13l-19 -46l-144 -233h-168l219 325l-104 329h168l62 -233l3 -46h13z" />
    <glyph glyph-name="Y" unicode="Y" horiz-adv-x="608" 
d="M443 263l267 391h-167l-147 -231l-18 -45h-13l-3 45l-64 231h-168l129 -391h14l-47 -263h158l47 263h12z" />
    <glyph glyph-name="Z" unicode="Z" horiz-adv-x="506" 
d="M147 654h443l-30 -170l-281 -284l-83 -61l-3 -12h304l-22 -127h-443l30 170l301 297l75 48l2 12h-315z" />
    <glyph glyph-name="bracketleft" unicode="[" horiz-adv-x="324" 
d="M157 676l-138 -784h265l22 127h-138l94 531h138l22 126h-265z" />
    <glyph glyph-name="backslash" unicode="\" horiz-adv-x="409" 
d="M321 654l46 -654h-162l-46 654h162z" />
    <glyph glyph-name="bracketright" unicode="]" horiz-adv-x="324" 
d="M267 -108l139 784h-265l-23 -127h138l-93 -531h-138l-23 -126h265z" />
    <glyph glyph-name="asciicircum" unicode="^" horiz-adv-x="380" 
d="M292 648l-65 -110h-117l130 176h154l68 -176h-117l-27 110l-3 21h-12z" />
    <glyph glyph-name="underscore" unicode="_" horiz-adv-x="443" 
d="M22 39h414l-17 -96h-414z" />
    <glyph glyph-name="grave" unicode="`" horiz-adv-x="197" 
d="M139 707h125l12 -177h-81z" />
    <glyph glyph-name="a" unicode="a" horiz-adv-x="440" 
d="M206 148q-6 -36 24 -36q16 0 28.5 17.5t17.5 45.5h23q-16 -90 -57 -144.5t-92 -54.5q-57 0 -87.5 38.5t-20.5 98.5q10 57 46 88.5t110 58.5l100 40l-16 -95l-43 -23q-29 -13 -33 -34zM403 0h-158l60 110l-37 20l31 174q4 20 -2 32t-19 12q-16 0 -29.5 -18t-20.5 -47
l-152 20q25 80 86 130.5t142 50.5q82 0 124.5 -49t30.5 -120z" />
    <glyph glyph-name="b" unicode="b" horiz-adv-x="504" 
d="M235.5 231q-10.5 -57 1.5 -88.5t43 -31.5t53 31.5t33 88.5q10 58 -1.5 89.5t-42.5 31.5t-53.5 -32t-33 -89zM207 232q21 120 72.5 187t124.5 67t106 -71.5t13 -186.5t-76 -183.5t-129 -68.5q-74 0 -103.5 67t-7.5 189zM159 687h157l-40 -227l-60 -114l37 -16l-35 -200
l-43 -16l20 -114h-157z" />
    <glyph glyph-name="c" unicode="c" horiz-adv-x="465" 
d="M497 294l-155 -20q0 78 -41 78q-27 0 -48.5 -31t-31.5 -89q-10 -59 0 -90t38 -31q22 0 41 23t30 64l151 -20q-33 -96 -99.5 -149t-146.5 -53q-99 0 -146 67.5t-26 188.5q22 121 92.5 187.5t169.5 66.5q72 0 118 -50t54 -142z" />
    <glyph glyph-name="d" unicode="d" horiz-adv-x="506" 
d="M342 231q10 59 1 90t-36 31q-30 0 -53 -31.5t-33 -89.5t1.5 -89t42.5 -31q26 0 46.5 31t30.5 89zM370.5 230.5q-21.5 -122.5 -71.5 -188.5t-119 -66q-72 0 -105 67.5t-12 184.5q21 121 81 189.5t131 68.5q66 0 91.5 -66.5t4 -189zM591 687l-122 -687h-168l60 114l-37 16
l36 200l43 16l-20 114l40 227h168z" />
    <glyph glyph-name="e" unicode="e" 
d="M215 188q-4 -37 9 -57t42 -20q20 0 35 12.5t22 34.5l151 -21q-30 -75 -92 -118t-140 -43q-104 0 -152 68t-27 188q21 118 90 186t168 68q100 0 145 -68.5t25 -179.5l-8 -50h-268zM235 290h107q4 27 -8.5 44.5t-36.5 17.5q-45 0 -62 -62z" />
    <glyph glyph-name="f" unicode="f" horiz-adv-x="338" 
d="M218 0h-156l59 334h-47l22 126h47l16 89q13 76 60 107t144 31h72l-23 -126h-62q-33 0 -40 -41l-10 -60h106l-22 -126h-107z" />
    <glyph glyph-name="g" unicode="g" horiz-adv-x="413" 
d="M84 328q12 68 68.5 113t138.5 45q87 0 130.5 -50.5t28.5 -133.5q-13 -73 -66 -119t-125 -46q-6 9 -19.5 14t-25 5.5t-32.5 0.5l4 20q-59 4 -86 47t-16 104zM238 308q-9 -49 19 -49t37 49q8 46 -20 46t-36 -46zM432 485q-27 0 -30 -16q-1 -9 10 -26l-58 23l15 21
q-31 27 -25 61q6 31 33.5 48t70.5 17h74l-23 -128h-67zM-9 -105q8 45 52.5 71t112.5 26l2 12q-54 6 -79.5 27.5t-19.5 54.5q7 43 50.5 62t131.5 19l18 -30q-36 0 -39 -15q-2 -10 13 -16q193 -34 168 -176q-13 -77 -75 -121.5t-156 -44.5q-93 0 -141 35.5t-38 95.5zM156 -60
q-3 -16 8 -25t33 -9q42 0 48 34q2 11 -3 17.5t-24 17.5q-26 0 -42.5 -9.5t-19.5 -25.5z" />
    <glyph glyph-name="h" unicode="h" horiz-adv-x="474" 
d="M330 287q6 29 -2.5 46.5t-27.5 17.5t-34.5 -18.5t-20.5 -47.5h-21q14 79 62.5 139t107.5 60q55 0 82.5 -53.5t13.5 -132.5l-52 -298h-158zM276 460l-57 -117l34 -13l-58 -330h-157l121 687h157z" />
    <glyph glyph-name="i" unicode="i" horiz-adv-x="230" 
d="M131 588q6 36 36.5 62t66.5 26t57.5 -26t15.5 -62t-37 -62.5t-67 -26.5t-57 26.5t-15 62.5zM119 460h157l-81 -460h-157z" />
    <glyph glyph-name="j" unicode="j" horiz-adv-x="234" 
d="M133 588q7 36 37.5 62t66.5 26t57.5 -26t14.5 -62q-6 -36 -36.5 -62.5t-66.5 -26.5t-57.5 26.5t-15.5 62.5zM122 460h157l-84 -474q-14 -80 -74 -127t-146 -47h-43l26 148h43q13 0 26 16.5t17 40.5z" />
    <glyph glyph-name="k" unicode="k" horiz-adv-x="496" 
d="M159 687h157l-69 -393l135 166h187l-189 -218l108 -242h-181l-47 146l-51 -63l-14 -83h-157z" />
    <glyph glyph-name="l" unicode="l" horiz-adv-x="231" 
d="M159 687h157l-121 -687h-157z" />
    <glyph glyph-name="m" unicode="m" horiz-adv-x="722" 
d="M577 277q6 34 -2 54t-30 20q-20 0 -35 -21t-21 -55h-22q17 96 65.5 152.5t115.5 56.5q55 0 79 -56t10 -140l-51 -288h-158zM332 277q6 34 -2 54t-28 20q-21 0 -37 -21t-22 -55h-21q17 95 61.5 152t102.5 57q41 0 65 -43.5t14 -100.5l-1 -5l34 -11l-57 -324h-158zM119 460
h157l-56 -117l33 -13l-58 -330h-157z" />
    <glyph glyph-name="n" unicode="n" horiz-adv-x="474" 
d="M331 290q5 28 -3.5 44.5t-27.5 16.5t-34.5 -17.5t-19.5 -45.5h-21q13 77 61.5 136.5t107.5 59.5q55 0 82.5 -53t14.5 -130l-53 -301h-158zM119 460h157l-56 -114l34 -13l-59 -333h-157z" />
    <glyph glyph-name="o" unicode="o" 
d="M221 232q-10 -59 -1 -90t35 -31t46.5 31.5t30.5 89.5t1 89t-36 31q-25 0 -45.5 -31t-30.5 -89zM63 232q22 121 91 187.5t167 66.5q92 0 141 -67.5t28 -186.5q-21 -121 -91 -188.5t-168 -67.5t-143.5 67t-24.5 189z" />
    <glyph glyph-name="p" unicode="p" horiz-adv-x="506" 
d="M236 229q10 58 33 89t54 31t42.5 -31t1.5 -89t-32.5 -89.5t-53.5 -31.5t-43 31.5t-2 89.5zM208.5 229.5q-21.5 -122.5 3.5 -189t91 -66.5q75 0 138 68.5t85 189.5q20 117 -15.5 184.5t-112.5 67.5q-69 0 -118.5 -66t-71 -188.5zM3 -197h158l35 197l-21 114l44 16l35 200
l-36 16l59 114h-158z" />
    <glyph glyph-name="q" unicode="q" horiz-adv-x="504" 
d="M351 229q10 57 -2 88.5t-43 31.5t-53 -31.5t-32 -88.5q-10 -58 1 -89.5t42 -31.5t54 32t33 89zM380 228q-22 -120 -73.5 -187t-123.5 -67q-74 0 -107 71.5t-13 186.5q21 115 76.5 183.5t128.5 68.5q75 0 104 -67t8 -189zM433 -197h-157l34 197l61 114l-38 16l36 200
l42 16l-19 114h157z" />
    <glyph glyph-name="r" unicode="r" horiz-adv-x="323" 
d="M119 460h157l-60 -114l37 -16l-58 -330h-157zM320 324q-28 0 -52.5 -25t-31.5 -64l-11 50q15 84 53.5 134.5t87.5 50.5h27l-26 -146h-47z" />
    <glyph glyph-name="s" unicode="s" horiz-adv-x="402" 
d="M402 120q-12 -65 -64 -106t-123 -41q-76 0 -121.5 43t-45.5 129l155 18q-4 -66 24 -66q13 0 18 31q2 14 -3 24t-10.5 14t-18.5 11q-2 1 -5 2q-14 6 -20.5 9t-19 9t-19.5 10.5t-17 11.5t-15.5 13.5t-12.5 15.5t-10 19t-6 22t-2.5 25.5t3.5 29.5q12 65 61 103.5t121 38.5
q152 0 163 -151l-157 -28q4 55 -16 55q-12 0 -16 -24q-2 -11 1 -19.5t7 -12t13 -9.5l21 -9t22 -9.5t20.5 -10.5t20 -12t18 -13.5t16 -16.5t11.5 -19.5t8 -24t2 -28.5t-3 -34z" />
    <glyph glyph-name="t" unicode="t" horiz-adv-x="338" 
d="M277 334l-26 -149q-7 -39 -0.5 -48.5t36.5 -9.5h60l-22 -127h-106q-78 0 -111 38t-16 136l29 160h-47l22 126h47l24 135l158 11l-25 -146h106l-22 -126h-107z" />
    <glyph glyph-name="u" unicode="u" horiz-adv-x="474" 
d="M226 173q-6 -33 2.5 -53.5t27 -20.5t34.5 21.5t22 54.5h21q-14 -79 -63 -139t-107 -60q-55 0 -82.5 54t-14.5 132l53 298h158zM438 0h-157l56 117l-33 13l58 330h157z" />
    <glyph glyph-name="v" unicode="v" horiz-adv-x="495" 
d="M304 215l89 245h170l-200 -460h-230l-37 460h168l4 -245l1 -59h13z" />
    <glyph glyph-name="w" unicode="w" horiz-adv-x="726" 
d="M393 236l-70 -236h-231l4 460h158l-17 -228l-6 -56h13l21 56l75 228h209l-4 -228l1 -56h12l15 56l63 228h158l-158 -460h-231l12 236l5 59h-11z" />
    <glyph glyph-name="x" unicode="x" horiz-adv-x="495" 
d="M323 327l72 133h168l-148 -232l66 -228h-167l-25 133l-3 46h-13l-19 -46l-72 -133h-167l147 228l-66 232h167l25 -133l3 -46h13z" />
    <glyph glyph-name="y" unicode="y" horiz-adv-x="495" 
d="M303 209l90 251h170l-253 -541q-27 -59 -74.5 -90t-98.5 -31h-123l24 139h66q29 0 40 29l14 34l-62 460h168l3 -251l2 -56h12z" />
    <glyph glyph-name="z" unicode="z" horiz-adv-x="375" 
d="M104 460h331l-34 -189l-178 -119l-24 -11l-2 -14h179l-23 -127h-331l35 196l167 118l29 7l2 13h-174z" />
    <glyph glyph-name="braceleft" unicode="{" horiz-adv-x="326" 
d="M395 690l11 -116q-3 -2 -16 -12.5t-16.5 -14t-14.5 -13.5t-15 -16.5t-11 -17t-10.5 -22t-6.5 -24.5q-12 -68 -44.5 -113.5t-77.5 -56.5l-2 -12q41 -11 58 -56t5 -113q-2 -11 -2 -21t1 -17.5t4.5 -16.5t6 -14t8.5 -13t9 -11.5t10.5 -12t9.5 -10.5l-51 -115
q-152 72 -123 240q8 47 -3.5 75t-39.5 28h-25l23 127h25q27 0 49 28t30 75q30 170 208 245z" />
    <glyph glyph-name="bar" unicode="|" horiz-adv-x="231" 
d="M176 784h157l-171 -968h-157z" />
    <glyph glyph-name="braceright" unicode="}" horiz-adv-x="326" 
d="M30 -128l-10 116q2 2 15 12.5t17 14t14.5 13.5t14.5 16.5t11 17t11 22t6 24.5q12 68 45 113.5t77 56.5l2 12q-41 11 -57.5 56t-4.5 113q2 11 1.5 21t-1 17.5t-4.5 16.5t-6 14t-8.5 13t-9 11.5t-10.5 12t-10 10.5l51 115q153 -72 123 -240q-8 -47 3.5 -75t39.5 -28h25
l-22 -127h-25q-28 0 -49.5 -28t-30.5 -75q-29 -170 -208 -245z" />
    <glyph glyph-name="asciitilde" unicode="~" horiz-adv-x="265" 
d="M264 343q-10 -55 -20 -55q-4 0 -8 0.5t-7.5 3t-5.5 3.5t-5.5 5.5t-4.5 5.5t-5 7l-4 6q-8 11 -14 17t-19 11.5t-30 5.5q-46 0 -76.5 -33.5t-41.5 -95.5l78 -8q10 59 24 59q8 0 15 -4t10.5 -8t10 -12.5t9.5 -12.5q24 -29 61 -29q89 0 112 127z" />
    <glyph glyph-name="exclamdown" unicode="&#xa1;" horiz-adv-x="215" 
d="M202 171l-41 -234h-128l41 234l67 258h86zM282 539q-6 -33 -32.5 -56t-60 -23t-52.5 23t-13 56q6 34 32.5 56t60 22t52.5 -22t13 -56z" />
    <glyph glyph-name="cent" unicode="&#xa2;" 
d="M335 687l-122 -687h47l122 687h-47zM518 414q-8 92 -54 142t-118 50q-99 0 -169.5 -66.5t-92.5 -187.5q-21 -121 26 -188.5t146 -67.5q80 0 146.5 53t99.5 149l-151 20q-11 -41 -30 -64t-41 -23q-28 0 -38 31t0 90q11 58 32 89t49 31q41 0 40 -78z" />
    <glyph glyph-name="sterling" unicode="&#xa3;" horiz-adv-x="415" 
d="M411 252l22 126h-337l-22 -126h337zM46 147l-26 -147h401l26 147h-158l-130 -45l-10 45h-103zM132 388q18 -85 4 -162q-6 -35 -29 -57t-61 -22l-3 -29q116 0 177.5 31t70.5 82q15 83 -1 158q-20 69 -14 104q9 48 31 48q16 0 24 -23.5t4 -66.5l157 40q1 86 -43.5 135
t-119.5 49q-83 0 -139 -40t-67 -106q-10 -55 9 -141z" />
    <glyph glyph-name="currency" unicode="&#xa4;" horiz-adv-x="276" 
d="M231 402l49 41l43 -53l-53 -44zM256 269l38 -47l-62 -52l-35 44zM159 216l-53 -46l-43 54l56 47zM129 346l-37 44l63 53l34 -41zM186.5 268q7.5 0 15 12t10.5 29q3 16 -0.5 27.5t-10.5 11.5t-14.5 -11.5t-10.5 -27.5q-3 -17 0 -29t10.5 -12zM104 309q8 46 40 78t69 32
t58 -32t13 -78q-8 -47 -39.5 -79t-70 -32t-58.5 32t-12 79z" />
    <glyph glyph-name="yen" unicode="&#xa5;" horiz-adv-x="523" 
d="M417 343l208 311h-164l-91 -151l-18 -45h-13l-3 45l-41 151h-165l103 -311h14l-61 -343h158l61 343h12zM146 306l-19 -107h346l19 107h-346zM122 166l-19 -106h346l19 106h-346z" />
    <glyph glyph-name="brokenbar" unicode="&#xa6;" horiz-adv-x="231" 
d="M79 231h157l-74 -415h-157zM176 784h157l-73 -415h-157z" />
    <glyph glyph-name="section" unicode="&#xa7;" horiz-adv-x="428" 
d="M266 388q29 -16 36.5 -27t3.5 -32q-3 -20 -10 -33t-15 -13q-30 16 -37 26.5t-3 31.5q3 20 10.5 33.5t14.5 13.5zM207 402q-55 -8 -90 -35t-42 -68q-9 -51 23 -78.5t131 -57.5q20 -8 26.5 -16.5t3.5 -22.5q-4 -22 -16 -22q-35 0 -36 50l-156 -22q11 -162 169 -162
q76 0 130 40.5t66 105.5q9 52 -9 84.5t-67 53.5l3 17q54 9 88.5 38.5t42.5 73.5q8 47 -24.5 73t-131.5 54q-20 8 -26.5 15.5t-4.5 21.5q5 23 17 23q34 0 36 -50l156 23q-11 161 -169 161q-77 0 -130.5 -40t-64.5 -105q-10 -54 8.5 -87.5t69.5 -54.5z" />
    <glyph glyph-name="dieresis" unicode="&#xa8;" horiz-adv-x="369" 
d="M306 660q6 34 35 58.5t63 24.5t54 -24.5t14 -58.5t-35 -59t-63 -25t-54 25t-14 59zM131 660q6 34 34.5 58.5t62.5 24.5t54.5 -24.5t14.5 -58.5t-35 -59t-63 -25t-54 25t-14 59z" />
    <glyph glyph-name="copyright" unicode="&#xa9;" horiz-adv-x="687" 
d="M577 387l-126 -20q-1 55 -32 55q-45 0 -62 -96q-8 -48 -1 -73.5t28 -25.5q18 0 32.5 17.5t23.5 49.5l120 -20q-27 -76 -80 -118.5t-116 -42.5q-78 0 -115 56t-19 157q18 100 74 155.5t135 55.5q57 0 94 -39t44 -111zM168 324q-23 -126 32 -199.5t152 -73.5t178.5 73.5
t104.5 199.5q22 125 -34 198.5t-152.5 73.5t-177.5 -73.5t-103 -198.5zM80 324q14 83 53 151.5t91.5 112.5t114.5 68t124 24q59 0 111 -24t91 -67.5t55.5 -113t2.5 -151.5q-15 -83 -54 -152t-92 -113.5t-115 -68.5t-124.5 -24t-116 23.5t-90.5 69t-51.5 112.5t0.5 153z" />
    <glyph glyph-name="ordfeminine" unicode="&#xaa;" horiz-adv-x="308" 
d="M77 318h269l-15 -86h-269zM226 456q-3 -15 7 -15q11 0 17 31h12q-10 -55 -34 -90t-51 -35q-34 0 -51 25t-10 65q15 82 108 97l38 10l-11 -64l-3 -5q-19 -3 -22 -19zM335 362h-105l37 64l-23 12l19 109q4 23 -9 23q-19 0 -25 -24l-90 20q15 46 50.5 72.5t81.5 26.5
q50 0 78 -32t20 -81z" />
    <glyph glyph-name="guillemotleft" unicode="&#xab;" horiz-adv-x="518" 
d="M444 251l76 -57l-22 -129l-183 124l27 153l224 109l-23 -130l-93 -40l-57 -9l-2 -13zM195 251l76 -57l-22 -129l-183 124l27 153l224 109l-23 -130l-93 -40l-57 -9l-2 -13z" />
    <glyph glyph-name="logicalnot" unicode="&#xac;" horiz-adv-x="333" 
d="M268 284h-185l15 86h270l-32 -182h-85z" />
    <glyph glyph-name="uni00AD" unicode="&#xad;" horiz-adv-x="244" 
d="M73 328h216l-15 -86h-216z" />
    <glyph glyph-name="registered" unicode="&#xae;" horiz-adv-x="710" 
d="M91 324q14 83 53 151.5t92 112.5t114.5 68t124.5 24q58 0 110.5 -24t91 -67.5t55 -113t2.5 -151.5q-15 -83 -54 -152t-92 -113.5t-115 -68.5t-124.5 -24t-115.5 23.5t-90.5 69t-52 112.5t0.5 153zM179 324q-22 -126 33 -199.5t152 -73.5t178.5 73.5t103.5 199.5
q22 125 -33.5 198.5t-152.5 73.5t-178 -73.5t-103 -198.5zM407 357h20q23 0 28.5 31t-17.5 31h-20zM242 140l68 384h157q63 0 94.5 -37t21.5 -92q-8 -47 -32.5 -77.5t-60.5 -35.5l48 -142h-134l-21 122h7l-22 -122h-126z" />
    <glyph glyph-name="macron" unicode="&#xaf;" horiz-adv-x="310" 
d="M131 654h282l-19 -106h-282z" />
    <glyph glyph-name="degree" unicode="&#xb0;" horiz-adv-x="290" 
d="M247.5 574q17.5 0 32 13t18 30t-7 30t-27.5 13t-32.5 -13t-18.5 -30t7.5 -30t28 -13zM123 617q10 54 56 92.5t100 38.5t85 -38.5t21 -92.5q-9 -56 -52.5 -93t-99.5 -37t-87.5 37t-22.5 93z" />
    <glyph glyph-name="plusminus" unicode="&#xb1;" horiz-adv-x="378" 
d="M312 338h112l-22 -126h-112l-24 -133h-126l24 133h-112l22 126h112l23 133h126zM23 48h350l-22 -126h-350z" />
    <glyph glyph-name="uni00B2" unicode="&#xb2;" horiz-adv-x="282" 
d="M195 557l46 3l31 7q45 9 76 38.5t37 64.5q8 47 -21 76.5t-83 29.5q-114 0 -153 -110l96 -18q14 43 41 43q16 0 12 -22q-5 -29 -39 -31l-116 -7l-30 -168h263l16 86l-177 -1z" />
    <glyph glyph-name="uni00B3" unicode="&#xb3;" horiz-adv-x="282" 
d="M324 617q28 4 47 23t24 47q7 39 -23.5 62.5t-87.5 23.5q-116 0 -154 -97l95 -20q13 33 42 33q20 0 16 -23q-3 -18 -33 -18h-16l-12 -66h16q13 0 20.5 -5.5t6.5 -13.5q-4 -21 -20 -21q-32 0 -33 40l-102 -20q3 -104 120 -104q56 0 94 22.5t45 61.5q5 27 -7.5 46.5
t-37.5 23.5v5z" />
    <glyph glyph-name="acute" unicode="&#xb4;" horiz-adv-x="186" 
d="M302 707l-118 -177h-81l74 177h125z" />
    <glyph glyph-name="mu" unicode="&#xb5;" horiz-adv-x="474" 
d="M191 -20l-30 -174h-157l115 654h157l-50 -285q-6 -33 1 -54.5t23 -21.5q22 0 38 20.5t22 53.5l51 287h158l-81 -460h-158l57 117l-19 8q-16 -65 -38.5 -102t-46 -37t-34.5 37t-5 99l-19 -8z" />
    <glyph glyph-name="paragraph" unicode="&#xb6;" horiz-adv-x="335" 
d="M358 654h48l-115 -654h-48zM205 0h-48l65 368h14q-65 0 -98 38.5t-22 102.5t59 104.5t111 40.5h34z" />
    <glyph glyph-name="periodcentered" unicode="&#xb7;" horiz-adv-x="161" 
d="M95 356q6 33 32.5 56t60 23t52.5 -23t13 -56q-6 -34 -32.5 -56t-60 -22t-52.5 22t-13 56z" />
    <glyph glyph-name="cedilla" unicode="&#xb8;" horiz-adv-x="187" 
d="M58 7l-36 -124l43 -7l17 50l-10 7l27 74h-41zM1 -151q5 -65 57 -65q31 0 54 26t31 69q6 36 -2 59t-27 23q-16 0 -31.5 -20t-24.5 -54q3 0 5.5 -3.5t1.5 -7.5q11 43 24 43q16 0 8 -42q-9 -51 -35 -51q-20 0 -20 33z" />
    <glyph glyph-name="uni00B9" unicode="&#xb9;" horiz-adv-x="280" 
d="M156 558h177l-17 -95h-177zM141 715l77 21l14 33v-119l-106 -22zM286 473h-106l52 296h106z" />
    <glyph glyph-name="ordmasculine" unicode="&#xba;" horiz-adv-x="308" 
d="M77 318h269l-15 -86h-269zM223 508q-12 -68 10 -68q23 0 35 68q11 65 -12 65q-22 0 -33 -65zM117 508q13 75 55 116t101 41q55 0 84 -41.5t16 -115.5q-13 -76 -55.5 -118.5t-101 -42.5t-85.5 42.5t-14 118.5z" />
    <glyph glyph-name="guillemotright" unicode="&#xbb;" horiz-adv-x="518" 
d="M166 265l-76 57l23 129l182 -124l-27 -153l-223 -109l22 130l94 40l56 9l2 13zM415 265l-76 57l23 129l182 -124l-27 -153l-223 -109l22 130l94 40l56 9l2 13z" />
    <glyph glyph-name="onequarter" unicode="&#xbc;" horiz-adv-x="712" 
d="M618 273l-41 -115l-15 -22v-8h33l30 173h108l-30 -173h11l-16 -86h-11l-8 -47h-108l8 47h-144l19 107l76 163zM127 607l77 21l14 33h106l-38 -211h44l-16 -95h-201l16 95h51l16 88l-84 -18zM622 654h170l-590 -654h-170z" />
    <glyph glyph-name="onehalf" unicode="&#xbd;" horiz-adv-x="705" 
d="M525 89l-1 -9l176 1l-15 -86h-263l30 168l116 7q33 2 38 31q4 22 -12 22q-26 0 -40 -43l-96 18q39 110 152 110q55 0 84 -29.5t21 -76.5q-7 -35 -38 -64.5t-76 -38.5l-30 -7zM127 607l77 21l14 33h106l-38 -211h44l-16 -95h-201l16 95h51l16 88l-84 -18zM622 654h170
l-590 -654h-170z" />
    <glyph glyph-name="threequarters" unicode="&#xbe;" horiz-adv-x="700" 
d="M597 273l-41 -115l-15 -22v-8h33l30 173h108l-30 -173h11l-15 -86h-11l-9 -47h-108l9 47h-144l19 107l75 163zM316 509l-1 -5q26 -4 38.5 -23.5t7.5 -46.5q-7 -39 -45 -61.5t-94 -22.5q-118 0 -121 104l103 20q0 -40 33 -40q16 0 20 21q1 8 -6.5 13.5t-20.5 5.5h-16
l12 66h16q30 0 33 18q4 23 -16 23q-29 0 -42 -33l-96 20q38 97 155 97q56 0 86.5 -23.5t23.5 -62.5q-4 -28 -23 -47t-47 -23zM618 654h170l-591 -654h-170z" />
    <glyph glyph-name="questiondown" unicode="&#xbf;" horiz-adv-x="406" 
d="M213 430q-9 -50 -22 -78t-36 -52q-6 -7 -24.5 -23.5t-28.5 -28t-24 -32t-24 -48t-16 -63.5q-14 -81 25.5 -132.5t122.5 -51.5q79 0 136 49.5t86 143.5l-146 30q-21 -87 -51 -87q-11 0 -15.5 12.5t-1.5 31.5q7 41 22 70t38.5 55t25.5 29q31 47 53 175h-120zM368 539
q-5 -33 -32 -56t-60.5 -23t-52 23t-13.5 56q6 34 33 56t60.5 22t52 -22t12.5 -56z" />
    <glyph glyph-name="Agrave" unicode="&#xc0;" horiz-adv-x="652" 
d="M325 886h125l12 -177h-81zM244 285h269l-26 -146h-269zM387 448l-204 -448h-168l309 654h233l82 -654h-167l-50 448l-1 56h-13z" />
    <glyph glyph-name="Aacute" unicode="&#xc1;" horiz-adv-x="652" 
d="M579 886l-118 -177h-81l74 177h125zM244 285h269l-26 -146h-269zM387 448l-204 -448h-168l309 654h233l82 -654h-167l-50 448l-1 56h-13z" />
    <glyph glyph-name="Acircumflex" unicode="&#xc2;" horiz-adv-x="652" 
d="M419 772l-57 -64h-117l123 136h154l75 -136h-117l-35 64l-3 21h-12zM244 285h269l-26 -146h-269zM387 448l-204 -448h-168l309 654h233l82 -654h-167l-50 448l-1 56h-13z" />
    <glyph glyph-name="Atilde" unicode="&#xc3;" horiz-adv-x="652" 
d="M514 832q-9 -55 -19 -55t-18.5 5.5t-11.5 9.5t-11 16q-7 11 -13 17t-19 11.5t-30 5.5q-47 0 -77.5 -33.5t-41.5 -95.5l78 -8q10 59 25 59q6 0 11.5 -2t10 -6.5l7.5 -7.5t8 -10.5l7 -10.5q24 -29 62 -29q89 0 111 127zM244 285h269l-26 -146h-269zM387 448l-204 -448h-168
l309 654h233l82 -654h-167l-50 448l-1 56h-13z" />
    <glyph glyph-name="Adieresis" unicode="&#xc4;" horiz-adv-x="652" 
d="M438 799q6 34 35 58.5t63 24.5t54 -24.5t14 -58.5t-35 -59t-62.5 -25t-54 25t-14.5 59zM263 799q6 34 35 58.5t63 24.5t54 -24.5t14 -58.5t-35 -59t-62.5 -25t-54 25t-14.5 59zM244 285h269l-26 -146h-269zM387 448l-204 -448h-168l309 654h233l82 -654h-167l-50 448
l-1 56h-13z" />
    <glyph glyph-name="Aring" unicode="&#xc5;" horiz-adv-x="652" 
d="M432 796q6 0 12.5 9.5t8.5 22t-0.5 22t-9.5 9.5q-6 0 -12.5 -9.5t-8.5 -22t1 -22t9 -9.5zM333 828q9 50 45.5 84.5t80.5 34.5t68 -34.5t15 -84.5t-45 -84.5t-80 -34.5t-68.5 34.5t-15.5 84.5zM244 285h269l-26 -146h-269zM387 448l-204 -448h-168l309 654h233l82 -654
h-167l-50 448l-1 56h-13z" />
    <glyph glyph-name="AE" unicode="&#xc6;" horiz-adv-x="798" 
d="M484 654h406l-26 -146h-248l-19 -108h248l-26 -147h-248l-19 -106h249l-26 -147h-407zM241 315h324l-26 -146h-346zM428 487l-247 -487h-166l330 654h139l-22 -123h-14z" />
    <glyph glyph-name="Ccedilla" unicode="&#xc7;" horiz-adv-x="586" 
d="M206 -152l83 20q-2 -23 11 -23q5 0 11 31q4 22 0 22q-6 0 -12 -23l-70 17l31 114h74l-44 -67l14 -11q21 32 45 32q22 0 33 -23t4 -59q-8 -48 -34 -76.5t-61 -28.5q-75 0 -85 75zM640 444l-160 -30q-2 55 -24 83.5t-61 28.5q-57 0 -98.5 -52.5t-58.5 -149.5
q-17 -92 6.5 -142.5t80.5 -50.5q42 0 76.5 32t52.5 90l150 -31q-43 -117 -125 -181.5t-181 -64.5q-128 0 -187.5 91.5t-30.5 256.5q29 169 121.5 262.5t220.5 93.5q90 0 148.5 -61.5t69.5 -174.5z" />
    <glyph glyph-name="Egrave" unicode="&#xc8;" horiz-adv-x="527" 
d="M287 886h125l12 -177h-81zM153 654h466l-26 -147h-309l-19 -107h280l-26 -147h-280l-18 -106h309l-26 -147h-466z" />
    <glyph glyph-name="Eacute" unicode="&#xc9;" horiz-adv-x="527" 
d="M541 886l-118 -177h-81l74 177h125zM153 654h466l-26 -147h-309l-19 -107h280l-26 -147h-280l-18 -106h309l-26 -147h-466z" />
    <glyph glyph-name="Ecircumflex" unicode="&#xca;" horiz-adv-x="527" 
d="M381 772l-57 -64h-117l123 136h154l75 -136h-117l-35 64l-3 21h-12zM153 654h466l-26 -147h-309l-19 -107h280l-26 -147h-280l-18 -106h309l-26 -147h-466z" />
    <glyph glyph-name="Edieresis" unicode="&#xcb;" horiz-adv-x="527" 
d="M400 799q6 34 35 58.5t63 24.5t54 -24.5t14 -58.5t-35 -59t-62.5 -25t-54 25t-14.5 59zM225 799q6 34 35 58.5t63 24.5t54 -24.5t14 -58.5t-35 -59t-62.5 -25t-54 25t-14.5 59zM153 654h466l-26 -147h-309l-19 -107h280l-26 -147h-280l-18 -106h309l-26 -147h-466z" />
    <glyph glyph-name="Igrave" unicode="&#xcc;" horiz-adv-x="231" 
d="M117 886h125l12 -177h-81zM153 655h157l-115 -655h-157z" />
    <glyph glyph-name="Iacute" unicode="&#xcd;" horiz-adv-x="231" 
d="M370 886l-118 -177h-81l74 177h125zM153 655h157l-115 -655h-157z" />
    <glyph glyph-name="Icircumflex" unicode="&#xce;" horiz-adv-x="231" 
d="M210 772l-57 -64h-117l123 136h154l75 -136h-117l-35 64l-3 21h-12zM153 655h157l-115 -655h-157z" />
    <glyph glyph-name="Idieresis" unicode="&#xcf;" horiz-adv-x="231" 
d="M229 799q6 34 35 58.5t63 24.5t54 -24.5t14 -58.5t-35 -59t-62.5 -25t-54 25t-14.5 59zM54 799q6 34 35 58.5t63 24.5t54 -24.5t14 -58.5t-35 -59t-62.5 -25t-54 25t-14.5 59zM153 655h157l-115 -655h-157z" />
    <glyph glyph-name="Eth" unicode="&#xd0;" horiz-adv-x="552" 
d="M58 390h311l-22 -127h-311zM39 0l116 654h225q117 0 174.5 -92t32 -237.5t-114.5 -235t-208 -89.5h-225zM222 148h57q57 0 96.5 47t54.5 134q16 86 -7 132.5t-80 46.5h-57z" />
    <glyph glyph-name="Ntilde" unicode="&#xd1;" horiz-adv-x="610" 
d="M495 832q-9 -55 -19 -55t-18.5 5.5t-11.5 9.5t-11 16q-7 11 -13 17t-19 11.5t-30 5.5q-47 0 -77.5 -33.5t-41.5 -95.5l78 -8q10 59 25 59q6 0 11.5 -2t10 -6.5l7.5 -7.5t8 -10.5l7 -10.5q24 -29 62 -29q89 0 111 127zM531 654h158l-115 -654h-206l-101 412l-72 -412h-157
l115 654h205l101 -410z" />
    <glyph glyph-name="Ograve" unicode="&#xd2;" horiz-adv-x="597" 
d="M296 886h125l12 -177h-81zM238 327q-16 -93 6 -144.5t78 -51.5t96.5 51.5t56.5 144.5q17 93 -5 146t-78 53t-96.5 -53t-57.5 -146zM80 327q29 165 120.5 259t218.5 94q119 0 181 -95.5t33 -257.5q-29 -166 -120 -258.5t-218 -92.5t-185.5 92.5t-29.5 258.5z" />
    <glyph glyph-name="Oacute" unicode="&#xd3;" horiz-adv-x="597" 
d="M550 886l-118 -177h-81l74 177h125zM238 327q-16 -93 6 -144.5t78 -51.5t96.5 51.5t56.5 144.5q17 93 -5 146t-78 53t-96.5 -53t-57.5 -146zM80 327q29 165 120.5 259t218.5 94q119 0 181 -95.5t33 -257.5q-29 -166 -120 -258.5t-218 -92.5t-185.5 92.5t-29.5 258.5z" />
    <glyph glyph-name="Ocircumflex" unicode="&#xd4;" horiz-adv-x="597" 
d="M390 772l-57 -64h-117l123 136h154l75 -136h-117l-35 64l-3 21h-12zM238 327q-16 -93 6 -144.5t78 -51.5t96.5 51.5t56.5 144.5q17 93 -5 146t-78 53t-96.5 -53t-57.5 -146zM80 327q29 165 120.5 259t218.5 94q119 0 181 -95.5t33 -257.5q-29 -166 -120 -258.5
t-218 -92.5t-185.5 92.5t-29.5 258.5z" />
    <glyph glyph-name="Otilde" unicode="&#xd5;" horiz-adv-x="597" 
d="M485 832q-9 -55 -19 -55t-18.5 5.5t-11.5 9.5t-11 16q-7 11 -13 17t-19 11.5t-30 5.5q-47 0 -77.5 -33.5t-41.5 -95.5l78 -8q10 59 25 59q6 0 11.5 -2t10 -6.5l7.5 -7.5t8 -10.5l7 -10.5q24 -29 62 -29q89 0 111 127zM238 327q-16 -93 6 -144.5t78 -51.5t96.5 51.5
t56.5 144.5q17 93 -5 146t-78 53t-96.5 -53t-57.5 -146zM80 327q29 165 120.5 259t218.5 94q119 0 181 -95.5t33 -257.5q-29 -166 -120 -258.5t-218 -92.5t-185.5 92.5t-29.5 258.5z" />
    <glyph glyph-name="Odieresis" unicode="&#xd6;" horiz-adv-x="597" 
d="M409 799q6 34 35 58.5t63 24.5t54 -24.5t14 -58.5t-35 -59t-62.5 -25t-54 25t-14.5 59zM234 799q6 34 35 58.5t63 24.5t54 -24.5t14 -58.5t-35 -59t-62.5 -25t-54 25t-14.5 59zM238 327q-16 -93 6 -144.5t78 -51.5t96.5 51.5t56.5 144.5q17 93 -5 146t-78 53t-96.5 -53
t-57.5 -146zM80 327q29 165 120.5 259t218.5 94q119 0 181 -95.5t33 -257.5q-29 -166 -120 -258.5t-218 -92.5t-185.5 92.5t-29.5 258.5z" />
    <glyph glyph-name="multiply" unicode="&#xd7;" horiz-adv-x="389" 
d="M258 354l97 104l73 -89l-108 -94l75 -94l-105 -89l-60 104l-98 -104l-73 89l108 94l-75 94l105 89z" />
    <glyph glyph-name="Oslash" unicode="&#xd8;" horiz-adv-x="597" 
d="M548 692l113 -71l-511 -670l-112 71zM238 327q-16 -93 6 -144.5t78 -51.5t96.5 51.5t56.5 144.5q17 93 -5 146t-78 53t-96.5 -53t-57.5 -146zM80 327q29 165 120.5 259t218.5 94q119 0 181 -95.5t33 -257.5q-29 -166 -120 -258.5t-218 -92.5t-185.5 92.5t-29.5 258.5z
" />
    <glyph glyph-name="Ugrave" unicode="&#xd9;" horiz-adv-x="561" 
d="M283 886h125l12 -177h-81zM310 654l-76 -429q-8 -47 10.5 -72.5t60.5 -25.5q41 0 67 25.5t34 72.5l76 429h158l-77 -440q-19 -103 -98.5 -169t-185.5 -66q-110 0 -166 65t-37 170l77 440h157z" />
    <glyph glyph-name="Uacute" unicode="&#xda;" horiz-adv-x="561" 
d="M536 886l-118 -177h-81l74 177h125zM310 654l-76 -429q-8 -47 10.5 -72.5t60.5 -25.5q41 0 67 25.5t34 72.5l76 429h158l-77 -440q-19 -103 -98.5 -169t-185.5 -66q-110 0 -166 65t-37 170l77 440h157z" />
    <glyph glyph-name="Ucircumflex" unicode="&#xdb;" horiz-adv-x="561" 
d="M376 772l-57 -64h-117l123 136h154l75 -136h-117l-35 64l-3 21h-12zM310 654l-76 -429q-8 -47 10.5 -72.5t60.5 -25.5q41 0 67 25.5t34 72.5l76 429h158l-77 -440q-19 -103 -98.5 -169t-185.5 -66q-110 0 -166 65t-37 170l77 440h157z" />
    <glyph glyph-name="Udieresis" unicode="&#xdc;" horiz-adv-x="561" 
d="M395 799q6 34 35 58.5t63 24.5t54 -24.5t14 -58.5t-35 -59t-62.5 -25t-54 25t-14.5 59zM220 799q6 34 35 58.5t63 24.5t54 -24.5t14 -58.5t-35 -59t-62.5 -25t-54 25t-14.5 59zM310 654l-76 -429q-8 -47 10.5 -72.5t60.5 -25.5q41 0 67 25.5t34 72.5l76 429h158l-77 -440
q-19 -103 -98.5 -169t-185.5 -66q-110 0 -166 65t-37 170l77 440h157z" />
    <glyph glyph-name="Yacute" unicode="&#xdd;" horiz-adv-x="608" 
d="M560 886l-118 -177h-81l74 177h125zM443 263l267 391h-167l-147 -231l-18 -45h-13l-3 45l-64 231h-168l129 -391h14l-47 -263h158l47 263h12z" />
    <glyph glyph-name="Thorn" unicode="&#xde;" horiz-adv-x="528" 
d="M153 654h157l-20 -116h80q102 0 156.5 -58.5t38.5 -149.5t-90.5 -148t-177.5 -57h-80l-22 -125h-157zM264 391l-21 -119h70q40 0 64.5 15.5t29.5 44.5t-14 44t-59 15h-70z" />
    <glyph glyph-name="germandbls" unicode="&#xdf;" horiz-adv-x="507" 
d="M320 0q74 2 128.5 49.5t67.5 124.5q12 68 -14.5 116.5t-83.5 58.5l2 12q46 9 79 50.5t43 100.5q15 85 -32 136t-140 51q-98 0 -164 -59t-85 -167l-83 -473h157l85 484q7 41 25.5 64.5t43.5 23.5q21 0 30.5 -19t3.5 -53q-6 -31 -20 -51.5t-32 -20.5h-30l-26 -147h30
q33 0 49 -21t10 -55q-5 -29 -21.5 -45t-39.5 -16h-58l-25 -144h100z" />
    <glyph glyph-name="agrave" unicode="&#xe0;" horiz-adv-x="440" 
d="M224 703h125l12 -177h-81zM206 148q-6 -36 24 -36q16 0 28.5 17.5t17.5 45.5h23q-16 -90 -57 -144.5t-92 -54.5q-57 0 -87.5 38.5t-20.5 98.5q10 57 46 88.5t110 58.5l100 40l-16 -95l-43 -23q-29 -13 -33 -34zM403 0h-158l60 110l-37 20l31 174q4 20 -2 32t-19 12
q-16 0 -29.5 -18t-20.5 -47l-152 20q25 80 86 130.5t142 50.5q82 0 124.5 -49t30.5 -120z" />
    <glyph glyph-name="aacute" unicode="&#xe1;" horiz-adv-x="440" 
d="M478 703l-118 -177h-81l74 177h125zM206 148q-6 -36 24 -36q16 0 28.5 17.5t17.5 45.5h23q-16 -90 -57 -144.5t-92 -54.5q-57 0 -87.5 38.5t-20.5 98.5q10 57 46 88.5t110 58.5l100 40l-16 -95l-43 -23q-29 -13 -33 -34zM403 0h-158l60 110l-37 20l31 174q4 20 -2 32
t-19 12q-16 0 -29.5 -18t-20.5 -47l-152 20q25 80 86 130.5t142 50.5q82 0 124.5 -49t30.5 -120z" />
    <glyph glyph-name="acircumflex" unicode="&#xe2;" horiz-adv-x="440" 
d="M318 589l-57 -64h-117l123 136h154l75 -136h-117l-35 64l-3 21h-12zM206 148q-6 -36 24 -36q16 0 28.5 17.5t17.5 45.5h23q-16 -90 -57 -144.5t-92 -54.5q-57 0 -87.5 38.5t-20.5 98.5q10 57 46 88.5t110 58.5l100 40l-16 -95l-43 -23q-29 -13 -33 -34zM403 0h-158
l60 110l-37 20l31 174q4 20 -2 32t-19 12q-16 0 -29.5 -18t-20.5 -47l-152 20q25 80 86 130.5t142 50.5q82 0 124.5 -49t30.5 -120z" />
    <glyph glyph-name="atilde" unicode="&#xe3;" horiz-adv-x="440" 
d="M413 649q-9 -55 -19 -55t-18.5 5.5t-11.5 9.5t-11 16q-7 11 -13 17t-19 11.5t-30 5.5q-47 0 -77.5 -33.5t-41.5 -95.5l78 -8q10 59 25 59q6 0 11.5 -2t10 -6.5l7.5 -7.5t8 -10.5l7 -10.5q24 -29 62 -29q89 0 111 127zM206 148q-6 -36 24 -36q16 0 28.5 17.5t17.5 45.5h23
q-16 -90 -57 -144.5t-92 -54.5q-57 0 -87.5 38.5t-20.5 98.5q10 57 46 88.5t110 58.5l100 40l-16 -95l-43 -23q-29 -13 -33 -34zM403 0h-158l60 110l-37 20l31 174q4 20 -2 32t-19 12q-16 0 -29.5 -18t-20.5 -47l-152 20q25 80 86 130.5t142 50.5q82 0 124.5 -49t30.5 -120z
" />
    <glyph glyph-name="adieresis" unicode="&#xe4;" horiz-adv-x="440" 
d="M337 616q6 34 35 58.5t63 24.5t54 -24.5t14 -58.5t-35 -59t-62.5 -25t-54 25t-14.5 59zM162 616q6 34 35 58.5t63 24.5t54 -24.5t14 -58.5t-35 -59t-62.5 -25t-54 25t-14.5 59zM206 148q-6 -36 24 -36q16 0 28.5 17.5t17.5 45.5h23q-16 -90 -57 -144.5t-92 -54.5
q-57 0 -87.5 38.5t-20.5 98.5q10 57 46 88.5t110 58.5l100 40l-16 -95l-43 -23q-29 -13 -33 -34zM403 0h-158l60 110l-37 20l31 174q4 20 -2 32t-19 12q-16 0 -29.5 -18t-20.5 -47l-152 20q25 80 86 130.5t142 50.5q82 0 124.5 -49t30.5 -120z" />
    <glyph glyph-name="aring" unicode="&#xe5;" horiz-adv-x="440" 
d="M331 613q6 0 12.5 9.5t8.5 22t-0.5 22t-9.5 9.5q-6 0 -12.5 -9.5t-8.5 -22t1 -22t9 -9.5zM232 645q9 50 45.5 84.5t80.5 34.5t68 -34.5t15 -84.5t-45 -84.5t-80 -34.5t-68.5 34.5t-15.5 84.5zM206 148q-6 -36 24 -36q16 0 28.5 17.5t17.5 45.5h23q-16 -90 -57 -144.5
t-92 -54.5q-57 0 -87.5 38.5t-20.5 98.5q10 57 46 88.5t110 58.5l100 40l-16 -95l-43 -23q-29 -13 -33 -34zM403 0h-158l60 110l-37 20l31 174q4 20 -2 32t-19 12q-16 0 -29.5 -18t-20.5 -47l-152 20q25 80 86 130.5t142 50.5q82 0 124.5 -49t30.5 -120z" />
    <glyph glyph-name="ae" unicode="&#xe6;" horiz-adv-x="683" 
d="M422 292l12 68h38l-28 -68h-22zM433 190q-4 -37 10 -57.5t44 -20.5q16 0 30 15.5t21 42.5l150 -21q-30 -81 -89.5 -126t-136.5 -45q-100 0 -150 71t-30 185q5 28 49.5 46.5t108.5 18.5q15 85 56.5 137.5t93.5 52.5q70 0 101.5 -68.5t12.5 -179.5l-9 -51h-262zM452 293
h103q5 27 -5.5 44t-30.5 17q-49 0 -67 -61zM205 142q-5 -30 22 -30q15 0 27 17t17 46h23q-16 -89 -61 -144t-104 -55q-49 0 -73 39t-13 100q10 57 56 93t138 62l55 20l-19 -106l-39 -14q-25 -8 -29 -28zM408 109h-60.5h-44t-34 0.5l-9.5 0.5l34 194q3 20 -4 32t-22 12
q-12 0 -22.5 -17.5t-17.5 -47.5l-152 20q25 83 84 132t133 49q78 0 121 -48t30 -121z" />
    <glyph glyph-name="ccedilla" unicode="&#xe7;" horiz-adv-x="465" 
d="M141 -152l83 20q-2 -23 11 -23q5 0 11 31q4 22 0 22q-6 0 -12 -23l-70 17l31 114h74l-44 -67l14 -11q21 32 45 32q22 0 33 -23t4 -59q-8 -48 -34 -76.5t-61 -28.5q-75 0 -85 75zM497 294l-155 -20q0 78 -41 78q-27 0 -48.5 -31t-31.5 -89q-10 -59 0 -90t38 -31
q22 0 41 23t30 64l151 -20q-33 -96 -99.5 -149t-146.5 -53q-99 0 -146 67.5t-26 188.5q22 121 92.5 187.5t169.5 66.5q72 0 118 -50t54 -142z" />
    <glyph glyph-name="egrave" unicode="&#xe8;" 
d="M233 703h125l12 -177h-81zM215 188q-4 -37 9 -57t42 -20q20 0 35 12.5t22 34.5l151 -21q-30 -75 -92 -118t-140 -43q-104 0 -152 68t-27 188q21 118 90 186t168 68q100 0 145 -68.5t25 -179.5l-8 -50h-268zM235 290h107q4 27 -8.5 44.5t-36.5 17.5q-45 0 -62 -62z" />
    <glyph glyph-name="eacute" unicode="&#xe9;" 
d="M487 703l-118 -177h-81l74 177h125zM215 188q-4 -37 9 -57t42 -20q20 0 35 12.5t22 34.5l151 -21q-30 -75 -92 -118t-140 -43q-104 0 -152 68t-27 188q21 118 90 186t168 68q100 0 145 -68.5t25 -179.5l-8 -50h-268zM235 290h107q4 27 -8.5 44.5t-36.5 17.5
q-45 0 -62 -62z" />
    <glyph glyph-name="ecircumflex" unicode="&#xea;" 
d="M326 589l-57 -64h-117l123 136h154l75 -136h-117l-35 64l-3 21h-12zM215 188q-4 -37 9 -57t42 -20q20 0 35 12.5t22 34.5l151 -21q-30 -75 -92 -118t-140 -43q-104 0 -152 68t-27 188q21 118 90 186t168 68q100 0 145 -68.5t25 -179.5l-8 -50h-268zM235 290h107
q4 27 -8.5 44.5t-36.5 17.5q-45 0 -62 -62z" />
    <glyph glyph-name="edieresis" unicode="&#xeb;" 
d="M345 616q6 34 35 58.5t63 24.5t54 -24.5t14 -58.5t-35 -59t-62.5 -25t-54 25t-14.5 59zM170 616q6 34 35 58.5t63 24.5t54 -24.5t14 -58.5t-35 -59t-62.5 -25t-54 25t-14.5 59zM215 188q-4 -37 9 -57t42 -20q20 0 35 12.5t22 34.5l151 -21q-30 -75 -92 -118t-140 -43
q-104 0 -152 68t-27 188q21 118 90 186t168 68q100 0 145 -68.5t25 -179.5l-8 -50h-268zM235 290h107q4 27 -8.5 44.5t-36.5 17.5q-45 0 -62 -62z" />
    <glyph glyph-name="igrave" unicode="&#xec;" horiz-adv-x="230" 
d="M115 703h125l12 -177h-81zM119 460h157l-81 -460h-157z" />
    <glyph glyph-name="iacute" unicode="&#xed;" horiz-adv-x="230" 
d="M369 703l-118 -177h-81l74 177h125zM119 460h157l-81 -460h-157z" />
    <glyph glyph-name="icircumflex" unicode="&#xee;" horiz-adv-x="230" 
d="M209 589l-57 -64h-117l123 136h154l75 -136h-117l-35 64l-3 21h-12zM119 460h157l-81 -460h-157z" />
    <glyph glyph-name="idieresis" unicode="&#xef;" horiz-adv-x="230" 
d="M228 616q6 34 35 58.5t63 24.5t54 -24.5t14 -58.5t-35 -59t-62.5 -25t-54 25t-14.5 59zM53 616q6 34 35 58.5t63 24.5t54 -24.5t14 -58.5t-35 -59t-62.5 -25t-54 25t-14.5 59zM119 460h157l-81 -460h-157z" />
    <glyph glyph-name="eth" unicode="&#xf0;" horiz-adv-x="489" 
d="M232 539l290 161l37 -90l-288 -161zM289 728q39 -12 68.5 -25.5t59 -35t49 -48t34.5 -65t20.5 -86.5t2 -112t-17.5 -142l-158 -2q11 64 16 97l31 8l-16 103q-1 45 -9.5 73.5t-29.5 47.5t-45.5 29.5t-70.5 24.5zM347 212q6 36 -6 61.5t-42 25.5t-52 -24t-30 -69
q-8 -44 2 -69.5t35 -25.5q33 0 59 28t34 73zM505 214q-18 -105 -97 -166.5t-175 -61.5q-97 0 -144.5 60t-29.5 161q18 100 83.5 163t145.5 63q52 0 76 -59t7 -156z" />
    <glyph glyph-name="ntilde" unicode="&#xf1;" horiz-adv-x="474" 
d="M423 649q-9 -55 -19 -55t-18.5 5.5t-11.5 9.5t-11 16q-7 11 -13 17t-19 11.5t-30 5.5q-47 0 -77.5 -33.5t-41.5 -95.5l78 -8q10 59 25 59q6 0 11.5 -2t10 -6.5l7.5 -7.5t8 -10.5l7 -10.5q24 -29 62 -29q89 0 111 127zM331 290q5 28 -3.5 44.5t-27.5 16.5t-34.5 -17.5
t-19.5 -45.5h-21q13 77 61.5 136.5t107.5 59.5q55 0 82.5 -53t14.5 -130l-53 -301h-158zM119 460h157l-56 -114l34 -13l-59 -333h-157z" />
    <glyph glyph-name="ograve" unicode="&#xf2;" 
d="M233 703h125l12 -177h-81zM221 232q-10 -59 -1 -90t35 -31t46.5 31.5t30.5 89.5t1 89t-36 31q-25 0 -45.5 -31t-30.5 -89zM63 232q22 121 91 187.5t167 66.5q92 0 141 -67.5t28 -186.5q-21 -121 -91 -188.5t-168 -67.5t-143.5 67t-24.5 189z" />
    <glyph glyph-name="oacute" unicode="&#xf3;" 
d="M487 703l-118 -177h-81l74 177h125zM221 232q-10 -59 -1 -90t35 -31t46.5 31.5t30.5 89.5t1 89t-36 31q-25 0 -45.5 -31t-30.5 -89zM63 232q22 121 91 187.5t167 66.5q92 0 141 -67.5t28 -186.5q-21 -121 -91 -188.5t-168 -67.5t-143.5 67t-24.5 189z" />
    <glyph glyph-name="ocircumflex" unicode="&#xf4;" 
d="M326 589l-57 -64h-117l123 136h154l75 -136h-117l-35 64l-3 21h-12zM221 232q-10 -59 -1 -90t35 -31t46.5 31.5t30.5 89.5t1 89t-36 31q-25 0 -45.5 -31t-30.5 -89zM63 232q22 121 91 187.5t167 66.5q92 0 141 -67.5t28 -186.5q-21 -121 -91 -188.5t-168 -67.5t-143.5 67
t-24.5 189z" />
    <glyph glyph-name="otilde" unicode="&#xf5;" 
d="M422 649q-9 -55 -19 -55t-18.5 5.5t-11.5 9.5t-11 16q-7 11 -13 17t-19 11.5t-30 5.5q-47 0 -77.5 -33.5t-41.5 -95.5l78 -8q10 59 25 59q6 0 11.5 -2t10 -6.5l7.5 -7.5t8 -10.5l7 -10.5q24 -29 62 -29q89 0 111 127zM221 232q-10 -59 -1 -90t35 -31t46.5 31.5t30.5 89.5
t1 89t-36 31q-25 0 -45.5 -31t-30.5 -89zM63 232q22 121 91 187.5t167 66.5q92 0 141 -67.5t28 -186.5q-21 -121 -91 -188.5t-168 -67.5t-143.5 67t-24.5 189z" />
    <glyph glyph-name="odieresis" unicode="&#xf6;" 
d="M345 616q6 34 35 58.5t63 24.5t54 -24.5t14 -58.5t-35 -59t-62.5 -25t-54 25t-14.5 59zM170 616q6 34 35 58.5t63 24.5t54 -24.5t14 -58.5t-35 -59t-62.5 -25t-54 25t-14.5 59zM221 232q-10 -59 -1 -90t35 -31t46.5 31.5t30.5 89.5t1 89t-36 31q-25 0 -45.5 -31
t-30.5 -89zM63 232q22 121 91 187.5t167 66.5q92 0 141 -67.5t28 -186.5q-21 -121 -91 -188.5t-168 -67.5t-143.5 67t-24.5 189z" />
    <glyph glyph-name="divide" unicode="&#xf7;" horiz-adv-x="378" 
d="M186 438q6 33 33 56t60 23t52 -23t13 -56t-33 -56t-60 -23t-52 23t-13 56zM128 110q6 33 33 56t60 23t52 -23t13 -56q-6 -34 -32.5 -56t-60 -22t-52.5 22t-13 56zM74 338h350l-22 -126h-350z" />
    <glyph glyph-name="oslash" unicode="&#xf8;" horiz-adv-x="452" 
d="M423 509l72 -63l-398 -493l-72 63zM212 232q-10 -59 -1.5 -90t34.5 -31q27 0 47 31.5t31 89.5q10 58 0.5 89t-35.5 31t-46 -31t-30 -89zM54 232q21 121 90 187.5t167 66.5q92 0 141.5 -67.5t28.5 -186.5q-22 -121 -92 -188.5t-167.5 -67.5t-143.5 67t-24 189z" />
    <glyph glyph-name="ugrave" unicode="&#xf9;" horiz-adv-x="474" 
d="M237 703h125l12 -177h-81zM226 173q-6 -33 2.5 -53.5t27 -20.5t34.5 21.5t22 54.5h21q-14 -79 -63 -139t-107 -60q-55 0 -82.5 54t-14.5 132l53 298h158zM438 0h-157l56 117l-33 13l58 330h157z" />
    <glyph glyph-name="uacute" unicode="&#xfa;" horiz-adv-x="474" 
d="M491 703l-118 -177h-81l74 177h125zM226 173q-6 -33 2.5 -53.5t27 -20.5t34.5 21.5t22 54.5h21q-14 -79 -63 -139t-107 -60q-55 0 -82.5 54t-14.5 132l53 298h158zM438 0h-157l56 117l-33 13l58 330h157z" />
    <glyph glyph-name="ucircumflex" unicode="&#xfb;" horiz-adv-x="474" 
d="M331 589l-57 -64h-117l123 136h154l75 -136h-117l-35 64l-3 21h-12zM226 173q-6 -33 2.5 -53.5t27 -20.5t34.5 21.5t22 54.5h21q-14 -79 -63 -139t-107 -60q-55 0 -82.5 54t-14.5 132l53 298h158zM438 0h-157l56 117l-33 13l58 330h157z" />
    <glyph glyph-name="udieresis" unicode="&#xfc;" horiz-adv-x="474" 
d="M350 616q6 34 35 58.5t63 24.5t54 -24.5t14 -58.5t-35 -59t-62.5 -25t-54 25t-14.5 59zM175 616q6 34 35 58.5t63 24.5t54 -24.5t14 -58.5t-35 -59t-62.5 -25t-54 25t-14.5 59zM226 173q-6 -33 2.5 -53.5t27 -20.5t34.5 21.5t22 54.5h21q-14 -79 -63 -139t-107 -60
q-55 0 -82.5 54t-14.5 132l53 298h158zM438 0h-157l56 117l-33 13l58 330h157z" />
    <glyph glyph-name="yacute" unicode="&#xfd;" horiz-adv-x="495" 
d="M496 703l-118 -177h-81l74 177h125zM303 209l90 251h170l-253 -541q-27 -59 -74.5 -90t-98.5 -31h-123l24 139h66q29 0 40 29l14 34l-62 460h168l3 -251l2 -56h12z" />
    <glyph glyph-name="thorn" unicode="&#xfe;" horiz-adv-x="504" 
d="M207 232q21 120 72.5 187t124.5 67t106 -71.5t13 -186.5t-76 -183.5t-129 -68.5q-74 0 -103.5 67t-7.5 189zM235.5 231q-10.5 -57 1.5 -88.5t43 -31.5t53 31.5t33 88.5q10 58 -1.5 89.5t-42.5 31.5t-53.5 -32t-33 -89zM159 687h157l-40 -227l-60 -114l37 -16l-35 -200
l-43 -16l20 -114l-34 -194h-157z" />
    <glyph glyph-name="ydieresis" unicode="&#xff;" horiz-adv-x="495" 
d="M355 616q6 34 35 58.5t63 24.5t54 -24.5t14 -58.5t-35 -59t-62.5 -25t-54 25t-14.5 59zM180 616q6 34 35 58.5t63 24.5t54 -24.5t14 -58.5t-35 -59t-62.5 -25t-54 25t-14.5 59zM303 209l90 251h170l-253 -541q-27 -59 -74.5 -90t-98.5 -31h-123l24 139h66q29 0 40 29
l14 34l-62 460h168l3 -251l2 -56h12z" />
    <glyph glyph-name="Amacron" unicode="&#x100;" horiz-adv-x="652" 
d="M318 805h238l-17 -97h-238zM244 285h269l-26 -146h-269zM387 448l-204 -448h-168l309 654h233l82 -654h-167l-50 448l-1 56h-13z" />
    <glyph glyph-name="amacron" unicode="&#x101;" horiz-adv-x="440" 
d="M217 622h238l-17 -97h-238zM206 148q-6 -36 24 -36q16 0 28.5 17.5t17.5 45.5h23q-16 -90 -57 -144.5t-92 -54.5q-57 0 -87.5 38.5t-20.5 98.5q10 57 46 88.5t110 58.5l100 40l-16 -95l-43 -23q-29 -13 -33 -34zM403 0h-158l60 110l-37 20l31 174q4 20 -2 32t-19 12
q-16 0 -29.5 -18t-20.5 -47l-152 20q25 80 86 130.5t142 50.5q82 0 124.5 -49t30.5 -120z" />
    <glyph glyph-name="Abreve" unicode="&#x102;" horiz-adv-x="652" 
d="M476 838q-3 -21 -15.5 -36.5t-26 -15.5t-20.5 15.5t-4 36.5h-113q-9 -56 26 -93.5t97.5 -37.5t111 37.5t57.5 93.5h-113zM244 285h269l-26 -146h-269zM387 448l-204 -448h-168l309 654h233l82 -654h-167l-50 448l-1 56h-13z" />
    <glyph glyph-name="abreve" unicode="&#x103;" horiz-adv-x="440" 
d="M375 655q-3 -21 -15.5 -36.5t-26 -15.5t-20.5 15.5t-4 36.5h-113q-9 -56 26 -93.5t97.5 -37.5t111 37.5t57.5 93.5h-113zM206 148q-6 -36 24 -36q16 0 28.5 17.5t17.5 45.5h23q-16 -90 -57 -144.5t-92 -54.5q-57 0 -87.5 38.5t-20.5 98.5q10 57 46 88.5t110 58.5l100 40
l-16 -95l-43 -23q-29 -13 -33 -34zM403 0h-158l60 110l-37 20l31 174q4 20 -2 32t-19 12q-16 0 -29.5 -18t-20.5 -47l-152 20q25 80 86 130.5t142 50.5q82 0 124.5 -49t30.5 -120z" />
    <glyph glyph-name="Aogonek" unicode="&#x104;" horiz-adv-x="652" 
d="M521 -59q-20 -25 -28 -68q-5 -28 11 -28q11 0 21 35l78 -12q-38 -95 -104 -95q-39 0 -59.5 21.5t-13.5 58.5q4 28 17.5 49t50.5 63l34 41h48zM244 285h269l-26 -146h-269zM387 448l-204 -448h-168l309 654h233l82 -654h-167l-50 448l-1 56h-13z" />
    <glyph glyph-name="aogonek" unicode="&#x105;" horiz-adv-x="440" 
d="M158 -59q-20 -25 -28 -68q-5 -28 11 -28q11 0 21 35l78 -12q-38 -95 -104 -95q-39 0 -59.5 21.5t-13.5 58.5q4 28 17.5 49t50.5 63l34 41h48zM206 148q-6 -36 24 -36q16 0 28.5 17.5t17.5 45.5h23q-16 -90 -57 -144.5t-92 -54.5q-57 0 -87.5 38.5t-20.5 98.5
q10 57 46 88.5t110 58.5l100 40l-16 -95l-43 -23q-29 -13 -33 -34zM403 0h-158l60 110l-37 20l31 174q4 20 -2 32t-19 12q-16 0 -29.5 -18t-20.5 -47l-152 20q25 80 86 130.5t142 50.5q82 0 124.5 -49t30.5 -120z" />
    <glyph glyph-name="Cacute" unicode="&#x106;" horiz-adv-x="586" 
d="M551 886l-118 -177h-81l74 177h125zM640 444l-160 -30q-2 55 -24 83.5t-61 28.5q-57 0 -98.5 -52.5t-58.5 -149.5q-17 -92 6.5 -142.5t80.5 -50.5q42 0 76.5 32t52.5 90l150 -31q-43 -117 -125 -181.5t-181 -64.5q-128 0 -187.5 91.5t-30.5 256.5q29 169 121.5 262.5
t220.5 93.5q90 0 148.5 -61.5t69.5 -174.5z" />
    <glyph glyph-name="cacute" unicode="&#x107;" horiz-adv-x="465" 
d="M487 703l-118 -177h-81l74 177h125zM497 294l-155 -20q0 78 -41 78q-27 0 -48.5 -31t-31.5 -89q-10 -59 0 -90t38 -31q22 0 41 23t30 64l151 -20q-33 -96 -99.5 -149t-146.5 -53q-99 0 -146 67.5t-26 188.5q22 121 92.5 187.5t169.5 66.5q72 0 118 -50t54 -142z" />
    <glyph glyph-name="Ccircumflex" unicode="&#x108;" horiz-adv-x="586" 
d="M390 772l-57 -64h-117l123 136h154l75 -136h-117l-35 64l-3 21h-12zM640 444l-160 -30q-2 55 -24 83.5t-61 28.5q-57 0 -98.5 -52.5t-58.5 -149.5q-17 -92 6.5 -142.5t80.5 -50.5q42 0 76.5 32t52.5 90l150 -31q-43 -117 -125 -181.5t-181 -64.5q-128 0 -187.5 91.5
t-30.5 256.5q29 169 121.5 262.5t220.5 93.5q90 0 148.5 -61.5t69.5 -174.5z" />
    <glyph glyph-name="ccircumflex" unicode="&#x109;" horiz-adv-x="465" 
d="M326 589l-57 -64h-117l123 136h154l75 -136h-117l-35 64l-3 21h-12zM497 294l-155 -20q0 78 -41 78q-27 0 -48.5 -31t-31.5 -89q-10 -59 0 -90t38 -31q22 0 41 23t30 64l151 -20q-33 -96 -99.5 -149t-146.5 -53q-99 0 -146 67.5t-26 188.5q22 121 92.5 187.5t169.5 66.5
q72 0 118 -50t54 -142z" />
    <glyph glyph-name="Cdotaccent" unicode="&#x10a;" horiz-adv-x="586" 
d="M328 818q6 34 35.5 58.5t62.5 24.5q34 0 54.5 -24.5t14.5 -58.5t-35 -59t-63 -25t-54.5 25.5t-14.5 58.5zM640 444l-160 -30q-2 55 -24 83.5t-61 28.5q-57 0 -98.5 -52.5t-58.5 -149.5q-17 -92 6.5 -142.5t80.5 -50.5q42 0 76.5 32t52.5 90l150 -31q-43 -117 -125 -181.5
t-181 -64.5q-128 0 -187.5 91.5t-30.5 256.5q29 169 121.5 262.5t220.5 93.5q90 0 148.5 -61.5t69.5 -174.5z" />
    <glyph glyph-name="cdotaccent" unicode="&#x10b;" horiz-adv-x="465" 
d="M264 635q6 34 35.5 58.5t62.5 24.5q34 0 54.5 -24.5t14.5 -58.5t-35 -59t-63 -25t-54.5 25.5t-14.5 58.5zM497 294l-155 -20q0 78 -41 78q-27 0 -48.5 -31t-31.5 -89q-10 -59 0 -90t38 -31q22 0 41 23t30 64l151 -20q-33 -96 -99.5 -149t-146.5 -53q-99 0 -146 67.5
t-26 188.5q22 121 92.5 187.5t169.5 66.5q72 0 118 -50t54 -142z" />
    <glyph glyph-name="Ccaron" unicode="&#x10c;" horiz-adv-x="586" 
d="M418 780l57 64h117l-123 -136h-154l-75 136h117l35 -64l3 -21h12zM640 444l-160 -30q-2 55 -24 83.5t-61 28.5q-57 0 -98.5 -52.5t-58.5 -149.5q-17 -92 6.5 -142.5t80.5 -50.5q42 0 76.5 32t52.5 90l150 -31q-43 -117 -125 -181.5t-181 -64.5q-128 0 -187.5 91.5
t-30.5 256.5q29 169 121.5 262.5t220.5 93.5q90 0 148.5 -61.5t69.5 -174.5z" />
    <glyph glyph-name="ccaron" unicode="&#x10d;" horiz-adv-x="465" 
d="M354 597l57 64h117l-123 -136h-154l-75 136h117l35 -64l3 -21h12zM497 294l-155 -20q0 78 -41 78q-27 0 -48.5 -31t-31.5 -89q-10 -59 0 -90t38 -31q22 0 41 23t30 64l151 -20q-33 -96 -99.5 -149t-146.5 -53q-99 0 -146 67.5t-26 188.5q22 121 92.5 187.5t169.5 66.5
q72 0 118 -50t54 -142z" />
    <glyph glyph-name="Dcaron" unicode="&#x10e;" horiz-adv-x="549" 
d="M374 780l57 64h117l-123 -136h-154l-75 136h117l35 -64l3 -21h12zM38 0l115 654h216q121 0 181.5 -92t34.5 -237.5t-117 -235t-214 -89.5h-216zM221 148h48q61 0 102.5 47t57.5 134q15 86 -10 132.5t-87 46.5h-48z" />
    <glyph glyph-name="dcaron" unicode="&#x10f;" horiz-adv-x="506" 
d="M594 696h126l-99 -178h-57zM342 231q10 59 1 90t-36 31q-30 0 -53 -31.5t-33 -89.5t1.5 -89t42.5 -31q26 0 46.5 31t30.5 89zM370.5 230.5q-21.5 -122.5 -71.5 -188.5t-119 -66q-72 0 -105 67.5t-12 184.5q21 121 81 189.5t131 68.5q66 0 91.5 -66.5t4 -189zM591 687
l-122 -687h-168l60 114l-37 16l36 200l43 16l-20 114l40 227h168z" />
    <glyph glyph-name="Dcroat" unicode="&#x110;" horiz-adv-x="552" 
d="M58 390h311l-22 -127h-311zM39 0l116 654h225q117 0 174.5 -92t32 -237.5t-114.5 -235t-208 -89.5h-225zM222 148h57q57 0 96.5 47t54.5 134q16 86 -7 132.5t-80 46.5h-57z" />
    <glyph glyph-name="dcroat" unicode="&#x111;" horiz-adv-x="505" 
d="M334 655l-22 -127h288l22 127h-288zM348 231q-10 -58 -31 -89t-49 -31q-32 0 -44.5 31t-2.5 89t33.5 89.5t55.5 31.5q28 0 38 -31t0 -90zM376.5 230.5q21.5 122.5 -4.5 189t-94 66.5q-72 0 -133 -68.5t-82 -189.5q-21 -117 13 -184.5t107 -67.5q70 0 121 66t72.5 188.5z
M597 687h-168l-40 -227l20 -114l-43 -16l-36 -200l37 -16l-60 -114h168z" />
    <glyph glyph-name="Emacron" unicode="&#x112;" horiz-adv-x="527" 
d="M280 805h238l-17 -97h-238zM153 654h466l-26 -147h-309l-19 -107h280l-26 -147h-280l-18 -106h309l-26 -147h-466z" />
    <glyph glyph-name="emacron" unicode="&#x113;" 
d="M226 622h238l-17 -97h-238zM215 188q-4 -37 9 -57t42 -20q20 0 35 12.5t22 34.5l151 -21q-30 -75 -92 -118t-140 -43q-104 0 -152 68t-27 188q21 118 90 186t168 68q100 0 145 -68.5t25 -179.5l-8 -50h-268zM235 290h107q4 27 -8.5 44.5t-36.5 17.5q-45 0 -62 -62z" />
    <glyph glyph-name="Ebreve" unicode="&#x114;" horiz-adv-x="527" 
d="M439 838q-3 -21 -15.5 -36.5t-26 -15.5t-20.5 15.5t-4 36.5h-113q-9 -56 26 -93.5t97.5 -37.5t111 37.5t57.5 93.5h-113zM153 654h466l-26 -147h-309l-19 -107h280l-26 -147h-280l-18 -106h309l-26 -147h-466z" />
    <glyph glyph-name="ebreve" unicode="&#x115;" 
d="M384 655q-3 -21 -15.5 -36.5t-26 -15.5t-20.5 15.5t-4 36.5h-113q-9 -56 26 -93.5t97.5 -37.5t111 37.5t57.5 93.5h-113zM215 188q-4 -37 9 -57t42 -20q20 0 35 12.5t22 34.5l151 -21q-30 -75 -92 -118t-140 -43q-104 0 -152 68t-27 188q21 118 90 186t168 68
q100 0 145 -68.5t25 -179.5l-8 -50h-268zM235 290h107q4 27 -8.5 44.5t-36.5 17.5q-45 0 -62 -62z" />
    <glyph glyph-name="Edotaccent" unicode="&#x116;" horiz-adv-x="527" 
d="M318 818q6 34 35.5 58.5t62.5 24.5q34 0 54.5 -24.5t14.5 -58.5t-35 -59t-63 -25t-54.5 25.5t-14.5 58.5zM153 654h466l-26 -147h-309l-19 -107h280l-26 -147h-280l-18 -106h309l-26 -147h-466z" />
    <glyph glyph-name="edotaccent" unicode="&#x117;" 
d="M264 635q6 34 35.5 58.5t62.5 24.5q34 0 54.5 -24.5t14.5 -58.5t-35 -59t-63 -25t-54.5 25.5t-14.5 58.5zM215 188q-4 -37 9 -57t42 -20q20 0 35 12.5t22 34.5l151 -21q-30 -75 -92 -118t-140 -43q-104 0 -152 68t-27 188q21 118 90 186t168 68q100 0 145 -68.5
t25 -179.5l-8 -50h-268zM235 290h107q4 27 -8.5 44.5t-36.5 17.5q-45 0 -62 -62z" />
    <glyph glyph-name="Eogonek" unicode="&#x118;" horiz-adv-x="527" 
d="M268 -59q-20 -25 -28 -68q-5 -28 11 -28q11 0 21 35l78 -12q-38 -95 -104 -95q-39 0 -59.5 21.5t-13.5 58.5q4 28 17.5 49t50.5 63l34 41h48zM153 654h466l-26 -147h-309l-19 -107h280l-26 -147h-280l-18 -106h309l-26 -147h-466z" />
    <glyph glyph-name="eogonek" unicode="&#x119;" 
d="M222 -59q-20 -25 -28 -68q-5 -28 11 -28q11 0 21 35l78 -12q-38 -95 -104 -95q-39 0 -59.5 21.5t-13.5 58.5q4 28 17.5 49t50.5 63l34 41h48zM215 188q-4 -37 9 -57t42 -20q20 0 35 12.5t22 34.5l151 -21q-30 -75 -92 -118t-140 -43q-104 0 -152 68t-27 188
q21 118 90 186t168 68q100 0 145 -68.5t25 -179.5l-8 -50h-268zM235 290h107q4 27 -8.5 44.5t-36.5 17.5q-45 0 -62 -62z" />
    <glyph glyph-name="Ecaron" unicode="&#x11a;" horiz-adv-x="527" 
d="M409 780l57 64h117l-123 -136h-154l-75 136h117l35 -64l3 -21h12zM153 654h466l-26 -147h-309l-19 -107h280l-26 -147h-280l-18 -106h309l-26 -147h-466z" />
    <glyph glyph-name="ecaron" unicode="&#x11b;" 
d="M354 597l57 64h117l-123 -136h-154l-75 136h117l35 -64l3 -21h12zM215 188q-4 -37 9 -57t42 -20q20 0 35 12.5t22 34.5l151 -21q-30 -75 -92 -118t-140 -43q-104 0 -152 68t-27 188q21 118 90 186t168 68q100 0 145 -68.5t25 -179.5l-8 -50h-268zM235 290h107
q4 27 -8.5 44.5t-36.5 17.5q-45 0 -62 -62z" />
    <glyph glyph-name="Gcircumflex" unicode="&#x11c;" horiz-adv-x="586" 
d="M384 772l-57 -64h-117l123 136h154l75 -136h-117l-35 64l-3 21h-12zM640 444q-12 114 -71.5 175t-155.5 61q-122 0 -213.5 -96t-121.5 -269q-28 -157 23 -248t152 -91q80 0 140 68.5t78 171.5h-26q-6 -39 -40.5 -62t-81.5 -23q-53 0 -77 51t-8 142q17 97 57.5 149.5
t95.5 52.5q83 0 89 -112zM304 362l-26 -146h167l-11 -67l48 -23l-74 -125h157l63 361h-324z" />
    <glyph glyph-name="gcircumflex" unicode="&#x11d;" horiz-adv-x="413" 
d="M254 687l-57 -64h-117l123 136h154l75 -136h-117l-35 64l-3 21h-12zM84 328q12 68 68.5 113t138.5 45q87 0 130.5 -50.5t28.5 -133.5q-13 -73 -66 -119t-125 -46q-6 9 -19.5 14t-25 5.5t-32.5 0.5l4 20q-59 4 -86 47t-16 104zM238 308q-9 -49 19 -49t37 49q8 46 -20 46
t-36 -46zM432 485q-27 0 -30 -16q-1 -9 10 -26l-58 23l15 21q-31 27 -25 61q6 31 33.5 48t70.5 17h74l-23 -128h-67zM-9 -105q8 45 52.5 71t112.5 26l2 12q-54 6 -79.5 27.5t-19.5 54.5q7 43 50.5 62t131.5 19l18 -30q-36 0 -39 -15q-2 -10 13 -16q193 -34 168 -176
q-13 -77 -75 -121.5t-156 -44.5q-93 0 -141 35.5t-38 95.5zM156 -60q-3 -16 8 -25t33 -9q42 0 48 34q2 11 -3 17.5t-24 17.5q-26 0 -42.5 -9.5t-19.5 -25.5z" />
    <glyph glyph-name="Gbreve" unicode="&#x11e;" horiz-adv-x="586" 
d="M442 838q-3 -21 -15.5 -36.5t-26 -15.5t-20.5 15.5t-4 36.5h-113q-9 -56 26 -93.5t97.5 -37.5t111 37.5t57.5 93.5h-113zM640 444q-12 114 -71.5 175t-155.5 61q-122 0 -213.5 -96t-121.5 -269q-28 -157 23 -248t152 -91q80 0 140 68.5t78 171.5h-26q-6 -39 -40.5 -62
t-81.5 -23q-53 0 -77 51t-8 142q17 97 57.5 149.5t95.5 52.5q83 0 89 -112zM304 362l-26 -146h167l-11 -67l48 -23l-74 -125h157l63 361h-324z" />
    <glyph glyph-name="gbreve" unicode="&#x11f;" horiz-adv-x="413" 
d="M311 753q-3 -21 -15.5 -36.5t-26 -15.5t-20.5 15.5t-4 36.5h-113q-9 -56 26 -93.5t97.5 -37.5t111 37.5t57.5 93.5h-113zM84 328q12 68 68.5 113t138.5 45q87 0 130.5 -50.5t28.5 -133.5q-13 -73 -66 -119t-125 -46q-6 9 -19.5 14t-25 5.5t-32.5 0.5l4 20q-59 4 -86 47
t-16 104zM238 308q-9 -49 19 -49t37 49q8 46 -20 46t-36 -46zM432 485q-27 0 -30 -16q-1 -9 10 -26l-58 23l15 21q-31 27 -25 61q6 31 33.5 48t70.5 17h74l-23 -128h-67zM-9 -105q8 45 52.5 71t112.5 26l2 12q-54 6 -79.5 27.5t-19.5 54.5q7 43 50.5 62t131.5 19l18 -30
q-36 0 -39 -15q-2 -10 13 -16q193 -34 168 -176q-13 -77 -75 -121.5t-156 -44.5q-93 0 -141 35.5t-38 95.5zM156 -60q-3 -16 8 -25t33 -9q42 0 48 34q2 11 -3 17.5t-24 17.5q-26 0 -42.5 -9.5t-19.5 -25.5z" />
    <glyph glyph-name="Gdotaccent" unicode="&#x120;" horiz-adv-x="586" 
d="M322 818q6 34 35.5 58.5t62.5 24.5q34 0 54.5 -24.5t14.5 -58.5t-35 -59t-63 -25t-54.5 25.5t-14.5 58.5zM640 444q-12 114 -71.5 175t-155.5 61q-122 0 -213.5 -96t-121.5 -269q-28 -157 23 -248t152 -91q80 0 140 68.5t78 171.5h-26q-6 -39 -40.5 -62t-81.5 -23
q-53 0 -77 51t-8 142q17 97 57.5 149.5t95.5 52.5q83 0 89 -112zM304 362l-26 -146h167l-11 -67l48 -23l-74 -125h157l63 361h-324z" />
    <glyph glyph-name="gdotaccent" unicode="&#x121;" horiz-adv-x="413" 
d="M191 733q6 34 35.5 58.5t62.5 24.5q34 0 54.5 -24.5t14.5 -58.5t-35 -59t-63 -25t-54.5 25.5t-14.5 58.5zM84 328q12 68 68.5 113t138.5 45q87 0 130.5 -50.5t28.5 -133.5q-13 -73 -66 -119t-125 -46q-6 9 -19.5 14t-25 5.5t-32.5 0.5l4 20q-59 4 -86 47t-16 104z
M238 308q-9 -49 19 -49t37 49q8 46 -20 46t-36 -46zM432 485q-27 0 -30 -16q-1 -9 10 -26l-58 23l15 21q-31 27 -25 61q6 31 33.5 48t70.5 17h74l-23 -128h-67zM-9 -105q8 45 52.5 71t112.5 26l2 12q-54 6 -79.5 27.5t-19.5 54.5q7 43 50.5 62t131.5 19l18 -30
q-36 0 -39 -15q-2 -10 13 -16q193 -34 168 -176q-13 -77 -75 -121.5t-156 -44.5q-93 0 -141 35.5t-38 95.5zM156 -60q-3 -16 8 -25t33 -9q42 0 48 34q2 11 -3 17.5t-24 17.5q-26 0 -42.5 -9.5t-19.5 -25.5z" />
    <glyph glyph-name="uni0122" unicode="&#x122;" horiz-adv-x="586" 
d="M205 -124q6 33 33 56t60 23t52 -23t13 -56q-22 -125 -74 -179.5t-121 -54.5l4 82q56 0 94.5 24t54.5 70q-21 -20 -51 -20q-33 0 -52 22t-13 56zM640 444q-12 114 -71.5 175t-155.5 61q-122 0 -213.5 -96t-121.5 -269q-28 -157 23 -248t152 -91q80 0 140 68.5t78 171.5
h-26q-6 -39 -40.5 -62t-81.5 -23q-53 0 -77 51t-8 142q17 97 57.5 149.5t95.5 52.5q83 0 89 -112zM304 362l-26 -146h167l-11 -67l48 -23l-74 -125h157l63 361h-324z" />
    <glyph glyph-name="uni0123" unicode="&#x123;" horiz-adv-x="413" 
d="M349 701q-6 -33 -33 -56t-60 -23t-52 23t-13 56q22 125 74 179.5t121 54.5l-4 -82q-56 0 -94.5 -24t-54.5 -70q21 20 51 20q33 0 52 -22t13 -56zM84 328q12 68 68.5 113t138.5 45q87 0 130.5 -50.5t28.5 -133.5q-13 -73 -66 -119t-125 -46q-6 9 -19.5 14t-25 5.5
t-32.5 0.5l4 20q-59 4 -86 47t-16 104zM238 308q-9 -49 19 -49t37 49q8 46 -20 46t-36 -46zM432 485q-27 0 -30 -16q-1 -9 10 -26l-58 23l15 21q-31 27 -25 61q6 31 33.5 48t70.5 17h74l-23 -128h-67zM-9 -105q8 45 52.5 71t112.5 26l2 12q-54 6 -79.5 27.5t-19.5 54.5
q7 43 50.5 62t131.5 19l18 -30q-36 0 -39 -15q-2 -10 13 -16q193 -34 168 -176q-13 -77 -75 -121.5t-156 -44.5q-93 0 -141 35.5t-38 95.5zM156 -60q-3 -16 8 -25t33 -9q42 0 48 34q2 11 -3 17.5t-24 17.5q-26 0 -42.5 -9.5t-19.5 -25.5z" />
    <glyph glyph-name="Hcircumflex" unicode="&#x124;" horiz-adv-x="570" 
d="M377 772l-57 -64h-117l123 136h154l75 -136h-117l-35 64l-3 21h-12zM185 410h335l-26 -147h-335zM491 654h158l-115 -654h-158zM153 654h157l-115 -654h-157z" />
    <glyph glyph-name="hcircumflex" unicode="&#x125;" horiz-adv-x="474" 
d="M205 793l-57 -64h-117l123 136h154l75 -136h-117l-35 64l-3 21h-12zM330 287q6 29 -2.5 46.5t-27.5 17.5t-34.5 -18.5t-20.5 -47.5h-21q14 79 62.5 139t107.5 60q55 0 82.5 -53.5t13.5 -132.5l-52 -298h-158zM276 460l-57 -117l34 -13l-58 -330h-157l121 687h157z" />
    <glyph glyph-name="Hbar" unicode="&#x126;" horiz-adv-x="574" 
d="M154 654h157l-13 -74h181l13 74h158l-13 -74h40l-22 -126h-40l-80 -454h-158l46 263h-181l-46 -263h-157l80 454h-39l22 126h39zM449 410l8 44h-181l-8 -44h181z" />
    <glyph glyph-name="hbar" unicode="&#x127;" horiz-adv-x="478" 
d="M86 655h319l-22 -127h-319zM333 287q5 29 -4.5 46.5t-29.5 17.5t-36.5 -18.5t-21.5 -47.5h-21q14 79 63.5 139t109.5 60q56 0 84.5 -54t14.5 -132l-52 -298h-158zM272 460l-57 -117l34 -13l-58 -330h-157l121 687h157z" />
    <glyph glyph-name="Itilde" unicode="&#x128;" horiz-adv-x="231" 
d="M305 832q-9 -55 -19 -55t-18.5 5.5t-11.5 9.5t-11 16q-7 11 -13 17t-19 11.5t-30 5.5q-47 0 -77.5 -33.5t-41.5 -95.5l78 -8q10 59 25 59q6 0 11.5 -2t10 -6.5l7.5 -7.5t8 -10.5l7 -10.5q24 -29 62 -29q89 0 111 127zM153 655h157l-115 -655h-157z" />
    <glyph glyph-name="itilde" unicode="&#x129;" horiz-adv-x="230" 
d="M305 649q-9 -55 -19 -55t-18.5 5.5t-11.5 9.5t-11 16q-7 11 -13 17t-19 11.5t-30 5.5q-47 0 -77.5 -33.5t-41.5 -95.5l78 -8q10 59 25 59q6 0 11.5 -2t10 -6.5l7.5 -7.5t8 -10.5l7 -10.5q24 -29 62 -29q89 0 111 127zM119 460h157l-81 -460h-157z" />
    <glyph glyph-name="Imacron" unicode="&#x12a;" horiz-adv-x="231" 
d="M109 805h238l-17 -97h-238zM153 655h157l-115 -655h-157z" />
    <glyph glyph-name="imacron" unicode="&#x12b;" horiz-adv-x="230" 
d="M108 622h238l-17 -97h-238zM119 460h157l-81 -460h-157z" />
    <glyph glyph-name="Ibreve" unicode="&#x12c;" horiz-adv-x="231" 
d="M267 838q-3 -21 -15.5 -36.5t-26 -15.5t-20.5 15.5t-4 36.5h-113q-9 -56 26 -93.5t97.5 -37.5t111 37.5t57.5 93.5h-113zM153 655h157l-115 -655h-157z" />
    <glyph glyph-name="ibreve" unicode="&#x12d;" horiz-adv-x="230" 
d="M267 655q-3 -21 -15.5 -36.5t-26 -15.5t-20.5 15.5t-4 36.5h-113q-9 -56 26 -93.5t97.5 -37.5t111 37.5t57.5 93.5h-113zM119 460h157l-81 -460h-157z" />
    <glyph glyph-name="Iogonek" unicode="&#x12e;" horiz-adv-x="231" 
d="M92 -59q-20 -25 -28 -68q-5 -28 11 -28q11 0 21 35l78 -12q-38 -95 -104 -95q-39 0 -59.5 21.5t-13.5 58.5q4 28 17.5 49t50.5 63l34 41h48zM153 655h157l-115 -655h-157z" />
    <glyph glyph-name="iogonek" unicode="&#x12f;" horiz-adv-x="230" 
d="M95 -59q-20 -25 -28 -68q-5 -28 11 -28q11 0 21 35l78 -12q-38 -95 -104 -95q-39 0 -59.5 21.5t-13.5 58.5q4 28 17.5 49t50.5 63l34 41h48zM131 588q6 36 36.5 62t66.5 26t57.5 -26t15.5 -62t-37 -62.5t-67 -26.5t-57 26.5t-15 62.5zM119 460h157l-81 -460h-157z" />
    <glyph glyph-name="Idotaccent" unicode="&#x130;" horiz-adv-x="231" 
d="M147 818q6 34 35.5 58.5t62.5 24.5q34 0 54.5 -24.5t14.5 -58.5t-35 -59t-63 -25t-54.5 25.5t-14.5 58.5zM153 655h157l-115 -655h-157z" />
    <glyph glyph-name="dotlessi" unicode="&#x131;" horiz-adv-x="230" 
d="M119 460h157l-81 -460h-157z" />
    <glyph glyph-name="IJ" unicode="&#x132;" horiz-adv-x="639" 
d="M718 654l-87 -496q-14 -77 -73.5 -128t-139.5 -51q-81 0 -121.5 51t-33.5 145l156 20q-4 -32 2 -52t20 -20q12 0 21 12.5t13 33.5l85 485h158zM153 655h157l-115 -655h-157z" />
    <glyph glyph-name="ij" unicode="&#x133;" horiz-adv-x="464" 
d="M366 588q6 36 36.5 62t66.5 26t57.5 -26t15.5 -62t-37 -62.5t-67 -26.5t-57 26.5t-15 62.5zM119 460h157l-81 -460h-157zM131 588q6 36 36.5 62t66.5 26t57.5 -26t15.5 -62t-37 -62.5t-67 -26.5t-57 26.5t-15 62.5zM354 460h157l-83 -474q-14 -80 -74.5 -127t-146.5 -47
h-43l26 148h43q13 0 26 16.5t17 40.5z" />
    <glyph glyph-name="Jcircumflex" unicode="&#x134;" horiz-adv-x="510" 
d="M506 772l-57 -64h-117l123 136h154l75 -136h-117l-35 64l-3 21h-12zM589 654h-158l-81 -455q-6 -34 -27.5 -55t-50.5 -21q-32 0 -47 28.5t-10 73.5l-160 -40q-3 -91 47.5 -148.5t146.5 -57.5q98 0 170 59.5t88 149.5z" />
    <glyph glyph-name="jcircumflex" unicode="&#x135;" horiz-adv-x="234" 
d="M207 589l-57 -64h-117l123 136h154l75 -136h-117l-35 64l-3 21h-12zM122 460h157l-84 -474q-13 -74 -72.5 -117.5t-145.5 -43.5h-43l26 148h43q13 0 25.5 12.5t15.5 31.5z" />
    <glyph glyph-name="uni0136" unicode="&#x136;" horiz-adv-x="601" 
d="M192 -124q6 33 33 56t60 23t52 -23t13 -56q-22 -125 -74 -179.5t-121 -54.5l4 82q56 0 94.5 24t54.5 70q-21 -20 -51 -20q-33 0 -52 22t-13 56zM153 654h157l-46 -263l255 263h184l-282 -299l167 -355h-212l-98 243l-49 -51l-34 -192h-157z" />
    <glyph glyph-name="uni0137" unicode="&#x137;" horiz-adv-x="496" 
d="M136 -124q6 33 33 56t60 23t52 -23t13 -56q-22 -125 -74 -179.5t-121 -54.5l4 82q56 0 94.5 24t54.5 70q-21 -20 -51 -20q-33 0 -52 22t-13 56zM159 687h157l-69 -393l135 166h187l-189 -218l108 -242h-181l-47 146l-51 -63l-14 -83h-157z" />
    <glyph glyph-name="kgreenlandic" unicode="&#x138;" horiz-adv-x="543" 
d="M119 460h157l-31 -175l176 175h190l-207 -212l126 -248h-184l-68 156l-68 -67l-15 -89h-157z" />
    <glyph glyph-name="Lacute" unicode="&#x139;" horiz-adv-x="527" 
d="M367 886l-118 -177h-81l74 177h125zM153 654h157l-89 -507h309l-26 -147h-466z" />
    <glyph glyph-name="lacute" unicode="&#x13a;" horiz-adv-x="231" 
d="M367 907l-118 -177h-81l74 177h125zM159 687h157l-121 -687h-157z" />
    <glyph glyph-name="uni013B" unicode="&#x13b;" horiz-adv-x="527" 
d="M188 -124q6 33 33 56t60 23t52 -23t13 -56q-22 -125 -74 -179.5t-121 -54.5l4 82q56 0 94.5 24t54.5 70q-21 -20 -51 -20q-33 0 -52 22t-13 56zM153 654h157l-89 -507h309l-26 -147h-466z" />
    <glyph glyph-name="uni013C" unicode="&#x13c;" horiz-adv-x="231" 
d="M15 -124q6 33 33 56t60 23t52 -23t13 -56q-22 -125 -74 -179.5t-121 -54.5l4 82q56 0 94.5 24t54.5 70q-21 -20 -51 -20q-33 0 -52 22t-13 56zM159 687h157l-121 -687h-157z" />
    <glyph glyph-name="Lcaron" unicode="&#x13d;" horiz-adv-x="527" 
d="M324 675h126l-99 -178h-57zM153 654h157l-89 -507h309l-26 -147h-466z" />
    <glyph glyph-name="lcaron" unicode="&#x13e;" horiz-adv-x="231" 
d="M324 696h126l-99 -178h-57zM159 687h157l-121 -687h-157z" />
    <glyph glyph-name="Ldot" unicode="&#x13f;" horiz-adv-x="527" 
d="M294 340q6 33 32.5 56t60 23t52.5 -23t13 -56q-6 -34 -32.5 -56t-60 -22t-52.5 22t-13 56zM153 654h157l-89 -507h309l-26 -147h-466z" />
    <glyph glyph-name="ldot" unicode="&#x140;" horiz-adv-x="393" 
d="M327 356q6 33 32.5 56t60 23t52.5 -23t13 -56q-6 -34 -32.5 -56t-60 -22t-52.5 22t-13 56zM159 687h157l-121 -687h-157z" />
    <glyph glyph-name="Lslash" unicode="&#x141;" horiz-adv-x="573" 
d="M156 654h157l-39 -219l110 35l22 -143l-160 -50l-23 -130h351l-26 -147h-508l40 226l-31 -10l-21 143l80 25z" />
    <glyph glyph-name="lslash" unicode="&#x142;" horiz-adv-x="268" 
d="M178 687h157l-40 -224l35 7l12 -144l-74 -18l-54 -308h-157l46 262l-38 -8l-12 143l77 19z" />
    <glyph glyph-name="Nacute" unicode="&#x143;" horiz-adv-x="610" 
d="M559 886l-118 -177h-81l74 177h125zM531 654h158l-115 -654h-206l-101 412l-72 -412h-157l115 654h205l101 -410z" />
    <glyph glyph-name="nacute" unicode="&#x144;" horiz-adv-x="474" 
d="M487 703l-118 -177h-81l74 177h125zM331 290q5 28 -3.5 44.5t-27.5 16.5t-34.5 -17.5t-19.5 -45.5h-21q13 77 61.5 136.5t107.5 59.5q55 0 82.5 -53t14.5 -130l-53 -301h-158zM119 460h157l-56 -114l34 -13l-59 -333h-157z" />
    <glyph glyph-name="uni0145" unicode="&#x145;" horiz-adv-x="610" 
d="M208 -124q6 33 33 56t60 23t52 -23t13 -56q-22 -125 -74 -179.5t-121 -54.5l4 82q56 0 94.5 24t54.5 70q-21 -20 -51 -20q-33 0 -52 22t-13 56zM531 654h158l-115 -654h-206l-101 412l-72 -412h-157l115 654h205l101 -410z" />
    <glyph glyph-name="uni0146" unicode="&#x146;" horiz-adv-x="474" 
d="M144 -124q6 33 33 56t60 23t52 -23t13 -56q-22 -125 -74 -179.5t-121 -54.5l4 82q56 0 94.5 24t54.5 70q-21 -20 -51 -20q-33 0 -52 22t-13 56zM331 290q5 28 -3.5 44.5t-27.5 16.5t-34.5 -17.5t-19.5 -45.5h-21q13 77 61.5 136.5t107.5 59.5q55 0 82.5 -53t14.5 -130
l-53 -301h-158zM119 460h157l-56 -114l34 -13l-59 -333h-157z" />
    <glyph glyph-name="Ncaron" unicode="&#x147;" horiz-adv-x="610" 
d="M427 780l57 64h117l-123 -136h-154l-75 136h117l35 -64l3 -21h12zM531 654h158l-115 -654h-206l-101 412l-72 -412h-157l115 654h205l101 -410z" />
    <glyph glyph-name="ncaron" unicode="&#x148;" horiz-adv-x="474" 
d="M355 597l57 64h117l-123 -136h-154l-75 136h117l35 -64l3 -21h12zM331 290q5 28 -3.5 44.5t-27.5 16.5t-34.5 -17.5t-19.5 -45.5h-21q13 77 61.5 136.5t107.5 59.5q55 0 82.5 -53t14.5 -130l-53 -301h-158zM119 460h157l-56 -114l34 -13l-59 -333h-157z" />
    <glyph glyph-name="napostrophe" unicode="&#x149;" horiz-adv-x="597" 
d="M454 290q5 28 -3.5 44.5t-27.5 16.5t-34.5 -17.5t-19.5 -45.5h-21q13 77 61.5 136.5t107.5 59.5q55 0 82.5 -53t14.5 -130l-53 -301h-158zM242 460h157l-56 -114l34 -13l-59 -333h-157zM113 687h131l-98 -219h-63z" />
    <glyph glyph-name="Eng" unicode="&#x14a;" horiz-adv-x="559" 
d="M38 654h157l-41 -168l41 -15v-471h-157v654zM365 428q0 54 -22.5 86t-58.5 32q-39 0 -64 -33.5t-25 -86.5h-21q0 111 45.5 177t121.5 66t129 -67t53 -164v-455q0 -89 -49.5 -138t-133.5 -49h-45v149h25q45 0 45 49v434z" />
    <glyph glyph-name="eng" unicode="&#x14b;" horiz-adv-x="474" 
d="M38 460h157l-41 -114l41 -16v-330h-157v460zM280 287q0 29 -10.5 46.5t-27.5 17.5q-21 0 -34 -18.5t-13 -47.5h-21q0 90 34 144.5t91 54.5q59 0 99 -53.5t40 -132.5v-328q0 -78 -38.5 -121t-104.5 -43h-68v139h28q10 0 17.5 10.5t7.5 25.5v306z" />
    <glyph glyph-name="Omacron" unicode="&#x14c;" horiz-adv-x="597" 
d="M289 805h238l-17 -97h-238zM238 327q-16 -93 6 -144.5t78 -51.5t96.5 51.5t56.5 144.5q17 93 -5 146t-78 53t-96.5 -53t-57.5 -146zM80 327q29 165 120.5 259t218.5 94q119 0 181 -95.5t33 -257.5q-29 -166 -120 -258.5t-218 -92.5t-185.5 92.5t-29.5 258.5z" />
    <glyph glyph-name="omacron" unicode="&#x14d;" 
d="M226 622h238l-17 -97h-238zM221 232q-10 -59 -1 -90t35 -31t46.5 31.5t30.5 89.5t1 89t-36 31q-25 0 -45.5 -31t-30.5 -89zM63 232q22 121 91 187.5t167 66.5q92 0 141 -67.5t28 -186.5q-21 -121 -91 -188.5t-168 -67.5t-143.5 67t-24.5 189z" />
    <glyph glyph-name="Obreve" unicode="&#x14e;" horiz-adv-x="597" 
d="M447 838q-3 -21 -15.5 -36.5t-26 -15.5t-20.5 15.5t-4 36.5h-113q-9 -56 26 -93.5t97.5 -37.5t111 37.5t57.5 93.5h-113zM238 327q-16 -93 6 -144.5t78 -51.5t96.5 51.5t56.5 144.5q17 93 -5 146t-78 53t-96.5 -53t-57.5 -146zM80 327q29 165 120.5 259t218.5 94
q119 0 181 -95.5t33 -257.5q-29 -166 -120 -258.5t-218 -92.5t-185.5 92.5t-29.5 258.5z" />
    <glyph glyph-name="obreve" unicode="&#x14f;" 
d="M384 655q-3 -21 -15.5 -36.5t-26 -15.5t-20.5 15.5t-4 36.5h-113q-9 -56 26 -93.5t97.5 -37.5t111 37.5t57.5 93.5h-113zM221 232q-10 -59 -1 -90t35 -31t46.5 31.5t30.5 89.5t1 89t-36 31q-25 0 -45.5 -31t-30.5 -89zM63 232q22 121 91 187.5t167 66.5q92 0 141 -67.5
t28 -186.5q-21 -121 -91 -188.5t-168 -67.5t-143.5 67t-24.5 189z" />
    <glyph glyph-name="Ohungarumlaut" unicode="&#x150;" horiz-adv-x="597" 
d="M592 886l-127 -177h-81l83 177h125zM432 886l-127 -177h-81l83 177h125zM238 327q-16 -93 6 -144.5t78 -51.5t96.5 51.5t56.5 144.5q17 93 -5 146t-78 53t-96.5 -53t-57.5 -146zM80 327q29 165 120.5 259t218.5 94q119 0 181 -95.5t33 -257.5q-29 -166 -120 -258.5
t-218 -92.5t-185.5 92.5t-29.5 258.5z" />
    <glyph glyph-name="ohungarumlaut" unicode="&#x151;" 
d="M529 703l-127 -177h-81l83 177h125zM369 703l-127 -177h-81l83 177h125zM221 232q-10 -59 -1 -90t35 -31t46.5 31.5t30.5 89.5t1 89t-36 31q-25 0 -45.5 -31t-30.5 -89zM63 232q22 121 91 187.5t167 66.5q92 0 141 -67.5t28 -186.5q-21 -121 -91 -188.5t-168 -67.5
t-143.5 67t-24.5 189z" />
    <glyph glyph-name="OE" unicode="&#x152;" horiz-adv-x="915" 
d="M555 654h451l-26 -146h-293l-19 -108h293l-26 -147h-293l-19 -106h293l-26 -147h-451l16 87l-23 3l76 234l8 226l21 2zM238 324q-18 -102 6 -157.5t85 -55.5t105 55.5t62 157.5q17 101 -7 156.5t-85 55.5t-105 -55.5t-61 -156.5zM80 324q29 165 109 255.5t189 90.5
q88 0 130 -92.5t14 -253.5q-30 -165 -101 -256.5t-165 -91.5q-110 0 -158 91.5t-18 256.5z" />
    <glyph glyph-name="oe" unicode="&#x153;" horiz-adv-x="729" 
d="M403 205l-15 -85h-81l36 85h60zM221 232q-10 -59 -3.5 -90t27.5 -31q29 0 50.5 31.5t31.5 89.5t-0.5 89t-39.5 31q-21 0 -38 -31t-28 -89zM63 232q22 121 88.5 187.5t159.5 66.5q94 0 144.5 -68t29.5 -186q-3 -16 -72 -26.5t-78 -21.5q-19 -92 -60.5 -150t-93.5 -58
q-75 0 -107 67t-11 189zM443 269l12 69h44l-17 -69h-39zM479 190q-4 -37 10 -57.5t44 -20.5q16 0 30 15.5t21 42.5l150 -21q-30 -81 -89.5 -126t-136.5 -45q-100 0 -150 71t-29 185q5 28 49.5 46.5t108.5 18.5q15 85 56 137.5t93 52.5q70 0 103 -60t16 -158l-14 -81h-262z
M498 293h103q5 27 -5.5 44t-30.5 17q-49 0 -67 -61z" />
    <glyph glyph-name="Racute" unicode="&#x154;" horiz-adv-x="525" 
d="M513 886l-118 -177h-81l74 177h125zM277 276h164l66 -276h-163zM38 0l115 654h237q102 0 156 -64t36 -164q-17 -96 -91.5 -155t-178.5 -59h-80l-37 -212h-157zM258 358h70q40 0 65 18.5t31 52.5q7 38 -11 58.5t-59 20.5h-70z" />
    <glyph glyph-name="racute" unicode="&#x155;" horiz-adv-x="323" 
d="M427 703l-118 -177h-81l74 177h125zM119 460h157l-60 -114l37 -16l-58 -330h-157zM320 324q-28 0 -52.5 -25t-31.5 -64l-11 50q15 84 53.5 134.5t87.5 50.5h27l-26 -146h-47z" />
    <glyph glyph-name="uni0156" unicode="&#x156;" horiz-adv-x="525" 
d="M162 -124q6 33 33 56t60 23t52 -23t13 -56q-22 -125 -74 -179.5t-121 -54.5l4 82q56 0 94.5 24t54.5 70q-21 -20 -51 -20q-33 0 -52 22t-13 56zM277 276h164l66 -276h-163zM38 0l115 654h237q102 0 156 -64t36 -164q-17 -96 -91.5 -155t-178.5 -59h-80l-37 -212h-157z
M258 358h70q40 0 65 18.5t31 52.5q7 38 -11 58.5t-59 20.5h-70z" />
    <glyph glyph-name="uni0157" unicode="&#x157;" horiz-adv-x="323" 
d="M15 -123q6 33 33 56t60 23t52 -23t13 -56q-22 -125 -74 -179.5t-121 -54.5l4 82q56 0 94.5 24t54.5 70q-21 -20 -51 -20q-33 0 -52 22t-13 56zM119 460h157l-60 -114l37 -16l-58 -330h-157zM320 324q-28 0 -52.5 -25t-31.5 -64l-11 50q15 84 53.5 134.5t87.5 50.5h27
l-26 -146h-47z" />
    <glyph glyph-name="Rcaron" unicode="&#x158;" horiz-adv-x="525" 
d="M381 780l57 64h117l-123 -136h-154l-75 136h117l35 -64l3 -21h12zM277 276h164l66 -276h-163zM38 0l115 654h237q102 0 156 -64t36 -164q-17 -96 -91.5 -155t-178.5 -59h-80l-37 -212h-157zM258 358h70q40 0 65 18.5t31 52.5q7 38 -11 58.5t-59 20.5h-70z" />
    <glyph glyph-name="rcaron" unicode="&#x159;" horiz-adv-x="323" 
d="M295 597l57 64h117l-123 -136h-154l-75 136h117l35 -64l3 -21h12zM119 460h157l-60 -114l37 -16l-58 -330h-157zM320 324q-28 0 -52.5 -25t-31.5 -64l-11 50q15 84 53.5 134.5t87.5 50.5h27l-26 -146h-47z" />
    <glyph glyph-name="Sacute" unicode="&#x15a;" horiz-adv-x="507" 
d="M497 886l-118 -177h-81l74 177h125zM518 182q-18 -97 -86.5 -153t-165.5 -56q-94 0 -148.5 54t-61.5 161l156 31q10 -92 80 -92q26 0 44.5 15.5t23.5 41.5q3 15 -2 26.5t-20.5 19.5t-27.5 12t-39 11q-7 2 -10 3q-38 9 -65.5 23.5t-51.5 38.5t-33 62.5t0 89.5
q17 97 84.5 153.5t165.5 56.5q92 0 145 -51t58 -153l-155 -31q-3 81 -71 81q-28 0 -46.5 -16t-23.5 -42q-5 -28 14.5 -41t71.5 -29q7 -3 11 -4q15 -4 27.5 -8.5t27.5 -11t26.5 -13.5t24 -17t21 -21.5t16 -26t11 -31.5t3.5 -38t-4 -45z" />
    <glyph glyph-name="sacute" unicode="&#x15b;" horiz-adv-x="402" 
d="M444 703l-118 -177h-81l74 177h125zM402 120q-12 -65 -64 -106t-123 -41q-76 0 -121.5 43t-45.5 129l155 18q-4 -66 24 -66q13 0 18 31q2 14 -3 24t-10.5 14t-18.5 11q-2 1 -5 2q-14 6 -20.5 9t-19 9t-19.5 10.5t-17 11.5t-15.5 13.5t-12.5 15.5t-10 19t-6 22t-2.5 25.5
t3.5 29.5q12 65 61 103.5t121 38.5q152 0 163 -151l-157 -28q4 55 -16 55q-12 0 -16 -24q-2 -11 1 -19.5t7 -12t13 -9.5l21 -9t22 -9.5t20.5 -10.5t20 -12t18 -13.5t16 -16.5t11.5 -19.5t8 -24t2 -28.5t-3 -34z" />
    <glyph glyph-name="Scircumflex" unicode="&#x15c;" horiz-adv-x="507" 
d="M336 772l-57 -64h-117l123 136h154l75 -136h-117l-35 64l-3 21h-12zM518 182q-18 -97 -86.5 -153t-165.5 -56q-94 0 -148.5 54t-61.5 161l156 31q10 -92 80 -92q26 0 44.5 15.5t23.5 41.5q3 15 -2 26.5t-20.5 19.5t-27.5 12t-39 11q-7 2 -10 3q-38 9 -65.5 23.5
t-51.5 38.5t-33 62.5t0 89.5q17 97 84.5 153.5t165.5 56.5q92 0 145 -51t58 -153l-155 -31q-3 81 -71 81q-28 0 -46.5 -16t-23.5 -42q-5 -28 14.5 -41t71.5 -29q7 -3 11 -4q15 -4 27.5 -8.5t27.5 -11t26.5 -13.5t24 -17t21 -21.5t16 -26t11 -31.5t3.5 -38t-4 -45z" />
    <glyph glyph-name="scircumflex" unicode="&#x15d;" horiz-adv-x="402" 
d="M284 589l-57 -64h-117l123 136h154l75 -136h-117l-35 64l-3 21h-12zM402 120q-12 -65 -64 -106t-123 -41q-76 0 -121.5 43t-45.5 129l155 18q-4 -66 24 -66q13 0 18 31q2 14 -3 24t-10.5 14t-18.5 11q-2 1 -5 2q-14 6 -20.5 9t-19 9t-19.5 10.5t-17 11.5t-15.5 13.5
t-12.5 15.5t-10 19t-6 22t-2.5 25.5t3.5 29.5q12 65 61 103.5t121 38.5q152 0 163 -151l-157 -28q4 55 -16 55q-12 0 -16 -24q-2 -11 1 -19.5t7 -12t13 -9.5l21 -9t22 -9.5t20.5 -10.5t20 -12t18 -13.5t16 -16.5t11.5 -19.5t8 -24t2 -28.5t-3 -34z" />
    <glyph glyph-name="Scedilla" unicode="&#x15e;" horiz-adv-x="507" 
d="M174 -152l83 20q-2 -23 11 -23q5 0 11 31q4 22 0 22q-6 0 -12 -23l-70 17l31 114h74l-44 -67l14 -11q21 32 45 32q22 0 33 -23t4 -59q-8 -48 -34 -76.5t-61 -28.5q-75 0 -85 75zM518 182q-18 -97 -86.5 -153t-165.5 -56q-94 0 -148.5 54t-61.5 161l156 31q10 -92 80 -92
q26 0 44.5 15.5t23.5 41.5q3 15 -2 26.5t-20.5 19.5t-27.5 12t-39 11q-7 2 -10 3q-38 9 -65.5 23.5t-51.5 38.5t-33 62.5t0 89.5q17 97 84.5 153.5t165.5 56.5q92 0 145 -51t58 -153l-155 -31q-3 81 -71 81q-28 0 -46.5 -16t-23.5 -42q-5 -28 14.5 -41t71.5 -29q7 -3 11 -4
q15 -4 27.5 -8.5t27.5 -11t26.5 -13.5t24 -17t21 -21.5t16 -26t11 -31.5t3.5 -38t-4 -45z" />
    <glyph glyph-name="scedilla" unicode="&#x15f;" horiz-adv-x="402" 
d="M114 -152l83 20q-2 -23 11 -23q5 0 11 31q4 22 0 22q-6 0 -12 -23l-70 17l31 114h74l-44 -67l14 -11q21 32 45 32q22 0 33 -23t4 -59q-8 -48 -34 -76.5t-61 -28.5q-75 0 -85 75zM402 120q-12 -65 -64 -106t-123 -41q-76 0 -121.5 43t-45.5 129l155 18q-4 -66 24 -66
q13 0 18 31q2 14 -3 24t-10.5 14t-18.5 11q-2 1 -5 2q-14 6 -20.5 9t-19 9t-19.5 10.5t-17 11.5t-15.5 13.5t-12.5 15.5t-10 19t-6 22t-2.5 25.5t3.5 29.5q12 65 61 103.5t121 38.5q152 0 163 -151l-157 -28q4 55 -16 55q-12 0 -16 -24q-2 -11 1 -19.5t7 -12t13 -9.5l21 -9
t22 -9.5t20.5 -10.5t20 -12t18 -13.5t16 -16.5t11.5 -19.5t8 -24t2 -28.5t-3 -34z" />
    <glyph glyph-name="Scaron" unicode="&#x160;" horiz-adv-x="507" 
d="M364 780l57 64h117l-123 -136h-154l-75 136h117l35 -64l3 -21h12zM518 182q-18 -97 -86.5 -153t-165.5 -56q-94 0 -148.5 54t-61.5 161l156 31q10 -92 80 -92q26 0 44.5 15.5t23.5 41.5q3 15 -2 26.5t-20.5 19.5t-27.5 12t-39 11q-7 2 -10 3q-38 9 -65.5 23.5t-51.5 38.5
t-33 62.5t0 89.5q17 97 84.5 153.5t165.5 56.5q92 0 145 -51t58 -153l-155 -31q-3 81 -71 81q-28 0 -46.5 -16t-23.5 -42q-5 -28 14.5 -41t71.5 -29q7 -3 11 -4q15 -4 27.5 -8.5t27.5 -11t26.5 -13.5t24 -17t21 -21.5t16 -26t11 -31.5t3.5 -38t-4 -45z" />
    <glyph glyph-name="scaron" unicode="&#x161;" horiz-adv-x="402" 
d="M312 597l57 64h117l-123 -136h-154l-75 136h117l35 -64l3 -21h12zM402 120q-12 -65 -64 -106t-123 -41q-76 0 -121.5 43t-45.5 129l155 18q-4 -66 24 -66q13 0 18 31q2 14 -3 24t-10.5 14t-18.5 11q-2 1 -5 2q-14 6 -20.5 9t-19 9t-19.5 10.5t-17 11.5t-15.5 13.5
t-12.5 15.5t-10 19t-6 22t-2.5 25.5t3.5 29.5q12 65 61 103.5t121 38.5q152 0 163 -151l-157 -28q4 55 -16 55q-12 0 -16 -24q-2 -11 1 -19.5t7 -12t13 -9.5l21 -9t22 -9.5t20.5 -10.5t20 -12t18 -13.5t16 -16.5t11.5 -19.5t8 -24t2 -28.5t-3 -34z" />
    <glyph glyph-name="uni0162" unicode="&#x162;" horiz-adv-x="542" 
d="M172 -151l83 20q-2 -23 11 -23q5 0 11 31q4 22 0 22q-6 0 -12 -23l-70 17l31 114h74l-44 -67l14 -11q21 32 45 32q22 0 33 -23t4 -59q-8 -48 -34 -76.5t-61 -28.5q-75 0 -85 75zM141 654h491l-25 -146h-167l-90 -508h-158l90 508h-166z" />
    <glyph glyph-name="uni0163" unicode="&#x163;" horiz-adv-x="338" 
d="M120 -152l83 20q-2 -23 11 -23q5 0 11 31q4 22 0 22q-6 0 -12 -23l-70 17l31 114h74l-44 -67l14 -11q21 32 45 32q22 0 33 -23t4 -59q-8 -48 -34 -76.5t-61 -28.5q-75 0 -85 75zM277 334l-26 -149q-7 -39 -0.5 -48.5t36.5 -9.5h60l-22 -127h-106q-78 0 -111 38t-16 136
l29 160h-47l22 126h47l24 135l158 11l-25 -146h106l-22 -126h-107z" />
    <glyph glyph-name="Tcaron" unicode="&#x164;" horiz-adv-x="542" 
d="M389 780l57 64h117l-123 -136h-154l-75 136h117l35 -64l3 -21h12zM141 654h491l-25 -146h-167l-90 -508h-158l90 508h-166z" />
    <glyph glyph-name="tcaron" unicode="&#x165;" horiz-adv-x="338" 
d="M346 671h126l-99 -178h-57zM277 334l-26 -149q-7 -39 -0.5 -48.5t36.5 -9.5h60l-22 -127h-106q-78 0 -111 38t-16 136l29 160h-47l22 126h47l24 135l158 11l-25 -146h106l-22 -126h-107z" />
    <glyph glyph-name="Tbar" unicode="&#x166;" horiz-adv-x="542" 
d="M185 421h321l-25 -145h-321zM141 654h491l-25 -146h-167l-90 -508h-158l90 508h-166z" />
    <glyph glyph-name="tbar" unicode="&#x167;" horiz-adv-x="338" 
d="M67 291h309l-17 -96h-309zM277 334l-26 -149q-7 -39 -0.5 -48.5t36.5 -9.5h60l-22 -127h-106q-78 0 -111 38t-16 136l29 160h-47l22 126h47l24 135l158 11l-25 -146h106l-22 -126h-107z" />
    <glyph glyph-name="Utilde" unicode="&#x168;" horiz-adv-x="561" 
d="M471 832q-9 -55 -19 -55t-18.5 5.5t-11.5 9.5t-11 16q-7 11 -13 17t-19 11.5t-30 5.5q-47 0 -77.5 -33.5t-41.5 -95.5l78 -8q10 59 25 59q6 0 11.5 -2t10 -6.5l7.5 -7.5t8 -10.5l7 -10.5q24 -29 62 -29q89 0 111 127zM310 654l-76 -429q-8 -47 10.5 -72.5t60.5 -25.5
q41 0 67 25.5t34 72.5l76 429h158l-77 -440q-19 -103 -98.5 -169t-185.5 -66q-110 0 -166 65t-37 170l77 440h157z" />
    <glyph glyph-name="utilde" unicode="&#x169;" horiz-adv-x="474" 
d="M427 649q-9 -55 -19 -55t-18.5 5.5t-11.5 9.5t-11 16q-7 11 -13 17t-19 11.5t-30 5.5q-47 0 -77.5 -33.5t-41.5 -95.5l78 -8q10 59 25 59q6 0 11.5 -2t10 -6.5l7.5 -7.5t8 -10.5l7 -10.5q24 -29 62 -29q89 0 111 127zM226 173q-6 -33 2.5 -53.5t27 -20.5t34.5 21.5
t22 54.5h21q-14 -79 -63 -139t-107 -60q-55 0 -82.5 54t-14.5 132l53 298h158zM438 0h-157l56 117l-33 13l58 330h157z" />
    <glyph glyph-name="Umacron" unicode="&#x16a;" horiz-adv-x="561" 
d="M275 805h238l-17 -97h-238zM310 654l-76 -429q-8 -47 10.5 -72.5t60.5 -25.5q41 0 67 25.5t34 72.5l76 429h158l-77 -440q-19 -103 -98.5 -169t-185.5 -66q-110 0 -166 65t-37 170l77 440h157z" />
    <glyph glyph-name="umacron" unicode="&#x16b;" horiz-adv-x="474" 
d="M230 622h238l-17 -97h-238zM226 173q-6 -33 2.5 -53.5t27 -20.5t34.5 21.5t22 54.5h21q-14 -79 -63 -139t-107 -60q-55 0 -82.5 54t-14.5 132l53 298h158zM438 0h-157l56 117l-33 13l58 330h157z" />
    <glyph glyph-name="Ubreve" unicode="&#x16c;" horiz-adv-x="561" 
d="M433 838q-3 -21 -15.5 -36.5t-26 -15.5t-20.5 15.5t-4 36.5h-113q-9 -56 26 -93.5t97.5 -37.5t111 37.5t57.5 93.5h-113zM310 654l-76 -429q-8 -47 10.5 -72.5t60.5 -25.5q41 0 67 25.5t34 72.5l76 429h158l-77 -440q-19 -103 -98.5 -169t-185.5 -66q-110 0 -166 65
t-37 170l77 440h157z" />
    <glyph glyph-name="ubreve" unicode="&#x16d;" horiz-adv-x="474" 
d="M389 655q-3 -21 -15.5 -36.5t-26 -15.5t-20.5 15.5t-4 36.5h-113q-9 -56 26 -93.5t97.5 -37.5t111 37.5t57.5 93.5h-113zM226 173q-6 -33 2.5 -53.5t27 -20.5t34.5 21.5t22 54.5h21q-14 -79 -63 -139t-107 -60q-55 0 -82.5 54t-14.5 132l53 298h158zM438 0h-157l56 117
l-33 13l58 330h157z" />
    <glyph glyph-name="Uring" unicode="&#x16e;" horiz-adv-x="561" 
d="M389 796q6 0 12.5 9.5t8.5 22t-0.5 22t-9.5 9.5q-6 0 -12.5 -9.5t-8.5 -22t1 -22t9 -9.5zM290 828q9 50 45.5 84.5t80.5 34.5t68 -34.5t15 -84.5t-45 -84.5t-80 -34.5t-68.5 34.5t-15.5 84.5zM310 654l-76 -429q-8 -47 10.5 -72.5t60.5 -25.5q41 0 67 25.5t34 72.5
l76 429h158l-77 -440q-19 -103 -98.5 -169t-185.5 -66q-110 0 -166 65t-37 170l77 440h157z" />
    <glyph glyph-name="uring" unicode="&#x16f;" horiz-adv-x="474" 
d="M344 613q6 0 12.5 9.5t8.5 22t-0.5 22t-9.5 9.5q-6 0 -12.5 -9.5t-8.5 -22t1 -22t9 -9.5zM245 645q9 50 45.5 84.5t80.5 34.5t68 -34.5t15 -84.5t-45 -84.5t-80 -34.5t-68.5 34.5t-15.5 84.5zM226 173q-6 -33 2.5 -53.5t27 -20.5t34.5 21.5t22 54.5h21q-14 -79 -63 -139
t-107 -60q-55 0 -82.5 54t-14.5 132l53 298h158zM438 0h-157l56 117l-33 13l58 330h157z" />
    <glyph glyph-name="Uhungarumlaut" unicode="&#x170;" horiz-adv-x="561" 
d="M578 886l-127 -177h-81l83 177h125zM418 886l-127 -177h-81l83 177h125zM310 654l-76 -429q-8 -47 10.5 -72.5t60.5 -25.5q41 0 67 25.5t34 72.5l76 429h158l-77 -440q-19 -103 -98.5 -169t-185.5 -66q-110 0 -166 65t-37 170l77 440h157z" />
    <glyph glyph-name="uhungarumlaut" unicode="&#x171;" horiz-adv-x="474" 
d="M534 703l-127 -177h-81l83 177h125zM374 703l-127 -177h-81l83 177h125zM226 173q-6 -33 2.5 -53.5t27 -20.5t34.5 21.5t22 54.5h21q-14 -79 -63 -139t-107 -60q-55 0 -82.5 54t-14.5 132l53 298h158zM438 0h-157l56 117l-33 13l58 330h157z" />
    <glyph glyph-name="Uogonek" unicode="&#x172;" horiz-adv-x="561" 
d="M260 -59q-20 -25 -28 -68q-5 -28 11 -28q11 0 21 35l78 -12q-38 -95 -104 -95q-39 0 -59.5 21.5t-13.5 58.5q4 28 17.5 49t50.5 63l34 41h48zM310 654l-76 -429q-8 -47 10.5 -72.5t60.5 -25.5q41 0 67 25.5t34 72.5l76 429h158l-77 -440q-19 -103 -98.5 -169t-185.5 -66
q-110 0 -166 65t-37 170l77 440h157z" />
    <glyph glyph-name="uogonek" unicode="&#x173;" horiz-adv-x="474" 
d="M222 -59q-20 -25 -28 -68q-5 -28 11 -28q11 0 21 35l78 -12q-38 -95 -104 -95q-39 0 -59.5 21.5t-13.5 58.5q4 28 17.5 49t50.5 63l34 41h48zM226 173q-6 -33 2.5 -53.5t27 -20.5t34.5 21.5t22 54.5h21q-14 -79 -63 -139t-107 -60q-55 0 -82.5 54t-14.5 132l53 298h158z
M438 0h-157l56 117l-33 13l58 330h157z" />
    <glyph glyph-name="Wcircumflex" unicode="&#x174;" horiz-adv-x="913" 
d="M544 772l-57 -64h-117l123 136h154l75 -136h-117l-35 64l-3 21h-12zM520 439l-145 -439h-234l-11 654h157l-2 -431l-2 -56h13l18 56l152 431h206l5 -431l-2 -56h13l18 56l153 431h155l-242 -654h-234l6 439l4 59h-11z" />
    <glyph glyph-name="wcircumflex" unicode="&#x175;" horiz-adv-x="726" 
d="M454 589l-57 -64h-117l123 136h154l75 -136h-117l-35 64l-3 21h-12zM393 236l-70 -236h-231l4 460h158l-17 -228l-6 -56h13l21 56l75 228h209l-4 -228l1 -56h12l15 56l63 228h158l-158 -460h-231l12 236l5 59h-11z" />
    <glyph glyph-name="Ycircumflex" unicode="&#x176;" horiz-adv-x="608" 
d="M400 772l-57 -64h-117l123 136h154l75 -136h-117l-35 64l-3 21h-12zM443 263l267 391h-167l-147 -231l-18 -45h-13l-3 45l-64 231h-168l129 -391h14l-47 -263h158l47 263h12z" />
    <glyph glyph-name="ycircumflex" unicode="&#x177;" horiz-adv-x="495" 
d="M336 589l-57 -64h-117l123 136h154l75 -136h-117l-35 64l-3 21h-12zM303 209l90 251h170l-253 -541q-27 -59 -74.5 -90t-98.5 -31h-123l24 139h66q29 0 40 29l14 34l-62 460h168l3 -251l2 -56h12z" />
    <glyph glyph-name="Ydieresis" unicode="&#x178;" horiz-adv-x="608" 
d="M419 799q6 34 35 58.5t63 24.5t54 -24.5t14 -58.5t-35 -59t-62.5 -25t-54 25t-14.5 59zM244 799q6 34 35 58.5t63 24.5t54 -24.5t14 -58.5t-35 -59t-62.5 -25t-54 25t-14.5 59zM443 263l267 391h-167l-147 -231l-18 -45h-13l-3 45l-64 231h-168l129 -391h14l-47 -263h158
l47 263h12z" />
    <glyph glyph-name="Zacute" unicode="&#x179;" horiz-adv-x="506" 
d="M499 886l-118 -177h-81l74 177h125zM147 654h443l-30 -170l-281 -284l-83 -61l-3 -12h304l-22 -127h-443l30 170l301 297l75 48l2 12h-315z" />
    <glyph glyph-name="zacute" unicode="&#x17a;" horiz-adv-x="375" 
d="M441 703l-118 -177h-81l74 177h125zM104 460h331l-34 -189l-178 -119l-24 -11l-2 -14h179l-23 -127h-331l35 196l167 118l29 7l2 13h-174z" />
    <glyph glyph-name="Zdotaccent" unicode="&#x17b;" horiz-adv-x="506" 
d="M276 818q6 34 35.5 58.5t62.5 24.5q34 0 54.5 -24.5t14.5 -58.5t-35 -59t-63 -25t-54.5 25.5t-14.5 58.5zM147 654h443l-30 -170l-281 -284l-83 -61l-3 -12h304l-22 -127h-443l30 170l301 297l75 48l2 12h-315z" />
    <glyph glyph-name="zdotaccent" unicode="&#x17c;" horiz-adv-x="375" 
d="M218 635q6 34 35.5 58.5t62.5 24.5q34 0 54.5 -24.5t14.5 -58.5t-35 -59t-63 -25t-54.5 25.5t-14.5 58.5zM104 460h331l-34 -189l-178 -119l-24 -11l-2 -14h179l-23 -127h-331l35 196l167 118l29 7l2 13h-174z" />
    <glyph glyph-name="Zcaron" unicode="&#x17d;" horiz-adv-x="506" 
d="M367 780l57 64h117l-123 -136h-154l-75 136h117l35 -64l3 -21h12zM147 654h443l-30 -170l-281 -284l-83 -61l-3 -12h304l-22 -127h-443l30 170l301 297l75 48l2 12h-315z" />
    <glyph glyph-name="zcaron" unicode="&#x17e;" horiz-adv-x="375" 
d="M308 597l57 64h117l-123 -136h-154l-75 136h117l35 -64l3 -21h12zM104 460h331l-34 -189l-178 -119l-24 -11l-2 -14h179l-23 -127h-331l35 196l167 118l29 7l2 13h-174z" />
    <glyph glyph-name="longs" unicode="&#x17f;" horiz-adv-x="270" 
d="M136 559q13 70 52.5 99t118.5 29h63l-22 -126h-54l-0.5 -3t-2 -11.5t-3.5 -16.5l-93 -530h-157z" />
    <glyph glyph-name="uni018E" unicode="&#x18e;" horiz-adv-x="527" 
d="M490 0h-466l26 147h309l19 107h-280l26 147h280l19 106h-310l26 147h466z" />
    <glyph glyph-name="uni018F" unicode="&#x18f;" 
d="M339 274q4 37 -9.5 57t-42.5 20q-19 0 -34.5 -12.5t-22.5 -34.5l-150 21q29 75 91 118t140 43q105 0 152.5 -68.5t26.5 -187.5q-21 -118 -90 -186t-168 -68q-100 0 -145 68.5t-25 179.5l9 50h268zM319 172h-107q-5 -27 7.5 -44.5t36.5 -17.5q45 0 63 62z" />
    <glyph glyph-name="Ohorn" unicode="&#x1a0;" horiz-adv-x="597" 
d="M532 802l136 -30q-16 -90 -89 -164.5t-154 -74.5l18 120q29 0 53.5 44.5t35.5 104.5zM238 327q-16 -93 6 -144.5t78 -51.5t96.5 51.5t56.5 144.5q17 93 -5 146t-78 53t-96.5 -53t-57.5 -146zM80 327q29 165 120.5 259t218.5 94q119 0 181 -95.5t33 -257.5
q-29 -166 -120 -258.5t-218 -92.5t-185.5 92.5t-29.5 258.5z" />
    <glyph glyph-name="ohorn" unicode="&#x1a1;" 
d="M467 609l136 -30q-16 -90 -89 -164.5t-154 -74.5l18 120q29 0 53.5 44.5t35.5 104.5zM221 232q-10 -59 -1 -90t35 -31t46.5 31.5t30.5 89.5t1 89t-36 31q-25 0 -45.5 -31t-30.5 -89zM63 232q22 121 91 187.5t167 66.5q92 0 141 -67.5t28 -186.5q-21 -121 -91 -188.5
t-168 -67.5t-143.5 67t-24.5 189z" />
    <glyph glyph-name="Uhorn" unicode="&#x1af;" horiz-adv-x="561" 
d="M609 802l136 -30q-16 -90 -89 -164.5t-154 -74.5l18 120q29 0 53.5 44.5t35.5 104.5zM310 654l-76 -429q-8 -47 10.5 -72.5t60.5 -25.5q41 0 67 25.5t34 72.5l76 429h158l-77 -440q-19 -103 -98.5 -169t-185.5 -66q-110 0 -166 65t-37 170l77 440h157z" />
    <glyph glyph-name="uhorn" unicode="&#x1b0;" horiz-adv-x="474" 
d="M471 609l136 -30q-16 -90 -89 -164.5t-154 -74.5l18 120q29 0 53.5 44.5t35.5 104.5zM226 173q-6 -33 2.5 -53.5t27 -20.5t34.5 21.5t22 54.5h21q-14 -79 -63 -139t-107 -60q-55 0 -82.5 54t-14.5 132l53 298h158zM438 0h-157l56 117l-33 13l58 330h157z" />
    <glyph glyph-name="uni01CD" unicode="&#x1cd;" horiz-adv-x="652" 
d="M447 780l57 64h117l-123 -136h-154l-75 136h117l35 -64l3 -21h12zM244 285h269l-26 -146h-269zM387 448l-204 -448h-168l309 654h233l82 -654h-167l-50 448l-1 56h-13z" />
    <glyph glyph-name="uni01CE" unicode="&#x1ce;" horiz-adv-x="440" 
d="M346 597l57 64h117l-123 -136h-154l-75 136h117l35 -64l3 -21h12zM206 148q-6 -36 24 -36q16 0 28.5 17.5t17.5 45.5h23q-16 -90 -57 -144.5t-92 -54.5q-57 0 -87.5 38.5t-20.5 98.5q10 57 46 88.5t110 58.5l100 40l-16 -95l-43 -23q-29 -13 -33 -34zM403 0h-158l60 110
l-37 20l31 174q4 20 -2 32t-19 12q-16 0 -29.5 -18t-20.5 -47l-152 20q25 80 86 130.5t142 50.5q82 0 124.5 -49t30.5 -120z" />
    <glyph glyph-name="uni01CF" unicode="&#x1cf;" horiz-adv-x="231" 
d="M238 780l57 64h117l-123 -136h-154l-75 136h117l35 -64l3 -21h12zM153 655h157l-115 -655h-157z" />
    <glyph glyph-name="uni01D0" unicode="&#x1d0;" horiz-adv-x="230" 
d="M237 597l57 64h117l-123 -136h-154l-75 136h117l35 -64l3 -21h12zM119 460h157l-81 -460h-157z" />
    <glyph glyph-name="uni01D1" unicode="&#x1d1;" horiz-adv-x="597" 
d="M418 780l57 64h117l-123 -136h-154l-75 136h117l35 -64l3 -21h12zM238 327q-16 -93 6 -144.5t78 -51.5t96.5 51.5t56.5 144.5q17 93 -5 146t-78 53t-96.5 -53t-57.5 -146zM80 327q29 165 120.5 259t218.5 94q119 0 181 -95.5t33 -257.5q-29 -166 -120 -258.5t-218 -92.5
t-185.5 92.5t-29.5 258.5z" />
    <glyph glyph-name="uni01D2" unicode="&#x1d2;" 
d="M354 597l57 64h117l-123 -136h-154l-75 136h117l35 -64l3 -21h12zM221 232q-10 -59 -1 -90t35 -31t46.5 31.5t30.5 89.5t1 89t-36 31q-25 0 -45.5 -31t-30.5 -89zM63 232q22 121 91 187.5t167 66.5q92 0 141 -67.5t28 -186.5q-21 -121 -91 -188.5t-168 -67.5t-143.5 67
t-24.5 189z" />
    <glyph glyph-name="uni01D3" unicode="&#x1d3;" horiz-adv-x="561" 
d="M404 780l57 64h117l-123 -136h-154l-75 136h117l35 -64l3 -21h12zM310 654l-76 -429q-8 -47 10.5 -72.5t60.5 -25.5q41 0 67 25.5t34 72.5l76 429h158l-77 -440q-19 -103 -98.5 -169t-185.5 -66q-110 0 -166 65t-37 170l77 440h157z" />
    <glyph glyph-name="uni01D4" unicode="&#x1d4;" horiz-adv-x="474" 
d="M359 597l57 64h117l-123 -136h-154l-75 136h117l35 -64l3 -21h12zM226 173q-6 -33 2.5 -53.5t27 -20.5t34.5 21.5t22 54.5h21q-14 -79 -63 -139t-107 -60q-55 0 -82.5 54t-14.5 132l53 298h158zM438 0h-157l56 117l-33 13l58 330h157z" />
    <glyph glyph-name="uni0237" unicode="&#x237;" horiz-adv-x="234" 
d="M122 460h157l-84 -474q-13 -74 -72.5 -117.5t-145.5 -43.5h-43l26 148h43q13 0 25.5 12.5t15.5 31.5z" />
    <glyph glyph-name="uni02BC" unicode="&#x2bc;" horiz-adv-x="122" 
d="M113 687h131l-98 -219h-63z" />
    <glyph glyph-name="gravecomb" unicode="&#x300;" horiz-adv-x="198" 
d="M131 707h125l12 -177h-81z" />
    <glyph glyph-name="acutecomb" unicode="&#x301;" horiz-adv-x="197" 
d="M318 707l-118 -177h-81l74 177h125z" />
    <glyph glyph-name="uni0302" unicode="&#x302;" horiz-adv-x="324" 
d="M254 593l-57 -64h-117l123 136h154l75 -136h-117l-35 64l-3 21h-12z" />
    <glyph glyph-name="tildecomb" unicode="&#x303;" horiz-adv-x="311" 
d="M341 653q-9 -55 -19 -55t-18.5 5.5t-11.5 9.5t-11 16q-7 11 -13 17t-19 11.5t-30 5.5q-47 0 -77.5 -33.5t-41.5 -95.5l78 -8q10 59 25 59q6 0 11.5 -2t10 -6.5l7.5 -7.5t8 -10.5l7 -10.5q24 -29 62 -29q89 0 111 127z" />
    <glyph glyph-name="uni0304" unicode="&#x304;" horiz-adv-x="287" 
d="M136 626h238l-17 -97h-238z" />
    <glyph glyph-name="uni0306" unicode="&#x306;" horiz-adv-x="303" 
d="M301 659q-3 -21 -15.5 -36.5t-26 -15.5t-20.5 15.5t-4 36.5h-113q-9 -56 26 -93.5t97.5 -37.5t111 37.5t57.5 93.5h-113z" />
    <glyph glyph-name="uni0307" unicode="&#x307;" horiz-adv-x="102" 
d="M80 639q6 34 35.5 58.5t62.5 24.5q34 0 54.5 -24.5t14.5 -58.5t-35 -59t-63 -25t-54.5 25.5t-14.5 58.5z" />
    <glyph glyph-name="uni0308" unicode="&#x308;" horiz-adv-x="306" 
d="M267 620q6 34 35 58.5t63 24.5t54 -24.5t14 -58.5t-35 -59t-62.5 -25t-54 25t-14.5 59zM92 620q6 34 35 58.5t63 24.5t54 -24.5t14 -58.5t-35 -59t-62.5 -25t-54 25t-14.5 59z" />
    <glyph glyph-name="hookabovecomb" unicode="&#x309;" horiz-adv-x="169" 
d="M205 620q2 12 -8 12q-8 0 -17 -21l-72 23q15 40 45 61t60 21q36 0 56.5 -27.5t13.5 -67.5q-3 -18 -13.5 -35.5t-19 -27.5t-26 -26.5t-21.5 -20.5l-41 56q40 36 43 53z" />
    <glyph glyph-name="uni030A" unicode="&#x30a;" horiz-adv-x="201" 
d="M206 594q6 0 12.5 9.5t8.5 22t-0.5 22t-9.5 9.5q-6 0 -12.5 -9.5t-8.5 -22t1 -22t9 -9.5zM107 626q9 50 45.5 84.5t80.5 34.5t68 -34.5t15 -84.5t-45 -84.5t-80 -34.5t-68.5 34.5t-15.5 84.5z" />
    <glyph glyph-name="uni030B" unicode="&#x30b;" horiz-adv-x="330" 
d="M468 707l-127 -177h-81l83 177h125zM308 707l-127 -177h-81l83 177h125z" />
    <glyph glyph-name="uni030C" unicode="&#x30c;" horiz-adv-x="324" 
d="M282 601l57 64h117l-123 -136h-154l-75 136h117l35 -64l3 -21h12z" />
    <glyph glyph-name="uni0312" unicode="&#x312;" horiz-adv-x="162" 
d="M268 607q-6 -33 -33 -56t-60 -23t-52 23t-13 56q22 125 74 179.5t121 54.5l-4 -82q-56 0 -94.5 -24t-54.5 -70q21 20 51 20q33 0 52 -22t13 -56z" />
    <glyph glyph-name="uni0315" unicode="&#x315;" horiz-adv-x="121" 
d="M246 496h126l-99 -178h-57z" />
    <glyph glyph-name="uni031B" unicode="&#x31b;" horiz-adv-x="283" 
d="M189 560l136 -30q-16 -90 -89 -164.5t-154 -74.5l18 120q29 0 53.5 44.5t35.5 104.5z" />
    <glyph glyph-name="dotbelowcomb" unicode="&#x323;" horiz-adv-x="102" 
d="M-64 -153q7 36 37.5 62t66.5 26t57.5 -26t14.5 -62q-6 -36 -37 -62.5t-66.5 -26.5t-57 26.5t-15.5 62.5z" />
    <glyph glyph-name="uni0326" unicode="&#x326;" horiz-adv-x="163" 
d="M-18 -123q6 33 33 56t60 23t52 -23t13 -56q-22 -125 -74 -179.5t-121 -54.5l4 82q56 0 94.5 24t54.5 70q-21 -20 -51 -20q-33 0 -52 22t-13 56z" />
    <glyph glyph-name="uni0327" unicode="&#x327;" horiz-adv-x="186" 
d="M-30 -151l83 20q-2 -23 11 -23q5 0 11 31q4 22 0 22q-6 0 -12 -23l-70 17l31 114h74l-44 -67l14 -11q21 32 45 32q22 0 33 -23t4 -59q-8 -48 -34 -76.5t-61 -28.5q-75 0 -85 75z" />
    <glyph glyph-name="uni0328" unicode="&#x328;" horiz-adv-x="185" 
d="M76 -58q-20 -25 -28 -68q-5 -28 11 -28q11 0 21 35l78 -12q-38 -95 -104 -95q-39 0 -59.5 21.5t-13.5 58.5q4 28 17.5 49t50.5 63l34 41h48z" />
    <glyph glyph-name="uni0400" unicode="&#x400;" horiz-adv-x="527" 
d="M288 886h125l12 -177h-81zM153 654h466l-26 -147h-309l-19 -107h280l-26 -147h-280l-18 -106h309l-26 -147h-466z" />
    <glyph glyph-name="uni0401" unicode="&#x401;" horiz-adv-x="527" 
d="M401 799q6 34 35 58.5t63 24.5t54 -24.5t14 -58.5t-35 -59t-62.5 -25t-54 25t-14.5 59zM226 799q6 34 35 58.5t63 24.5t54 -24.5t14 -58.5t-35 -59t-62.5 -25t-54 25t-14.5 59zM153 654h466l-26 -147h-309l-19 -107h280l-26 -147h-280l-18 -106h309l-26 -147h-466z" />
    <glyph glyph-name="uni0402" unicode="&#x402;" horiz-adv-x="510" 
d="M285 147q72 0 82 57q4 24 -11 36.5t-49 12.5q-38 0 -68 -30l-39 -223h-157l90 508h-43l25 146h439l-25 -146h-239l-25 -138q47 30 95 30q92 0 135.5 -55t26.5 -151q-16 -89 -84 -141.5t-168 -52.5h-39l26 147h28z" />
    <glyph glyph-name="uni0403" unicode="&#x403;" horiz-adv-x="478" 
d="M510 897l-118 -177h-81l74 177h125zM153 654l-115 -654h157l89 508h270l26 146h-427z" />
    <glyph glyph-name="uni0404" unicode="&#x404;" horiz-adv-x="586" 
d="M133 388l-22 -126h309l22 126h-309zM640 444q-11 113 -69.5 174.5t-148.5 61.5q-128 0 -220.5 -93.5t-121.5 -262.5q-29 -165 30.5 -256.5t187.5 -91.5q99 0 181 64.5t125 181.5l-150 31q-18 -58 -52.5 -90t-76.5 -32q-57 0 -80.5 50.5t-6.5 142.5q17 97 58.5 149.5
t98.5 52.5q39 0 61 -28.5t24 -83.5z" />
    <glyph glyph-name="uni0405" unicode="&#x405;" horiz-adv-x="507" 
d="M518 182q-18 -97 -86.5 -153t-165.5 -56q-94 0 -148.5 54t-61.5 161l156 31q10 -92 80 -92q26 0 44.5 15.5t23.5 41.5q3 15 -2 26.5t-20.5 19.5t-27.5 12t-39 11q-7 2 -10 3q-38 9 -65.5 23.5t-51.5 38.5t-33 62.5t0 89.5q17 97 84.5 153.5t165.5 56.5q92 0 145 -51
t58 -153l-155 -31q-3 81 -71 81q-28 0 -46.5 -16t-23.5 -42q-5 -28 14.5 -41t71.5 -29q7 -3 11 -4q15 -4 27.5 -8.5t27.5 -11t26.5 -13.5t24 -17t21 -21.5t16 -26t11 -31.5t3.5 -38t-4 -45z" />
    <glyph glyph-name="uni0406" unicode="&#x406;" horiz-adv-x="231" 
d="M153 655h157l-115 -655h-157z" />
    <glyph glyph-name="uni0407" unicode="&#x407;" horiz-adv-x="231" 
d="M230 799q6 34 35 58.5t63 24.5t54 -24.5t14 -58.5t-35 -59t-62.5 -25t-54 25t-14.5 59zM55 799q6 34 35 58.5t63 24.5t54 -24.5t14 -58.5t-35 -59t-62.5 -25t-54 25t-14.5 59zM153 655h157l-115 -655h-157z" />
    <glyph glyph-name="uni0408" unicode="&#x408;" horiz-adv-x="510" 
d="M589 654h-158l-81 -455q-6 -34 -27.5 -55t-50.5 -21q-32 0 -47 28.5t-10 73.5l-160 -40q-3 -91 47.5 -148.5t146.5 -57.5q98 0 170 59.5t88 149.5z" />
    <glyph glyph-name="uni0409" unicode="&#x409;" horiz-adv-x="918" 
d="M599 253l-19 -106h101q85 0 94 52q5 25 -16 39.5t-66 14.5h-94zM669 654l-44 -254h101q108 0 165 -56.5t41 -148.5q-16 -89 -88.5 -142t-177.5 -53h-269l90 508h-113l-45 -254q-11 -63 -32.5 -109.5t-47.5 -74t-61.5 -43.5t-68.5 -21.5t-74 -5.5h-19l26 148h19
q19 0 32.5 3.5t28 14.5t25 35.5t17.5 63.5l68 389h427z" />
    <glyph glyph-name="uni040A" unicode="&#x40a;" horiz-adv-x="788" 
d="M38 0h156l45 255h93l-45 -255h246q107 0 179.5 51.5t87.5 137.5q17 95 -40.5 153t-167.5 58h-78l45 254h-157l-44 -251h-93l44 251h-156zM470 147l18 106h71q47 0 68.5 -16t16.5 -44q-8 -46 -96 -46h-78z" />
    <glyph glyph-name="uni040B" unicode="&#x40b;" horiz-adv-x="526" 
d="M362 173q5 34 -6 52t-38 18t-50 -30l-38 -213h-157l90 508h-73l25 146h439l-25 -146h-209l-27 -148q45 30 93 30q77 0 113 -60.5t19 -160.5l-30 -169h-157z" />
    <glyph glyph-name="uni040C" unicode="&#x40c;" horiz-adv-x="601" 
d="M544 886l-118 -177h-81l74 177h125zM153 654h157l-46 -263l255 263h184l-282 -299l167 -355h-212l-98 243l-49 -51l-34 -192h-157z" />
    <glyph glyph-name="uni040D" unicode="&#x40d;" horiz-adv-x="610" 
d="M301 886h125l12 -177h-81zM311 654l-71 -404l250 404h199l-115 -654h-157l71 406l-250 -406h-200l115 654h158z" />
    <glyph glyph-name="uni040E" unicode="&#x40e;" horiz-adv-x="495" 
d="M395 838q-3 -21 -15.5 -36.5t-26 -15.5t-20.5 15.5t-4 36.5h-113q-9 -56 26 -93.5t97.5 -37.5t111 37.5t57.5 93.5h-113zM339 412l89 242h169l-251 -532q-27 -60 -74.5 -91t-99.5 -31h-117l25 140h60q28 0 40 29l13 34l-63 451h169l4 -242l1 -56h13z" />
    <glyph glyph-name="uni040F" unicode="&#x40f;" horiz-adv-x="630" 
d="M243 0h-205l115 654h157l-89 -508h242l89 508h157l-115 -654h-194l-22 -123h-157z" />
    <glyph glyph-name="uni0410" unicode="&#x410;" horiz-adv-x="652" 
d="M244 285h269l-26 -146h-269zM387 448l-204 -448h-168l309 654h233l82 -654h-167l-50 448l-1 56h-13z" />
    <glyph glyph-name="uni0411" unicode="&#x411;" horiz-adv-x="538" 
d="M557 508h-273l-19 -108h77q110 0 167.5 -56.5t41.5 -148.5q-15 -89 -88 -142t-180 -53h-245l115 654h430zM221 147h77q88 0 97 52q4 25 -17.5 39.5t-68.5 14.5h-70z" />
    <glyph glyph-name="uni0412" unicode="&#x412;" horiz-adv-x="538" 
d="M221 147h77q88 0 97 52q5 27 -15 40.5t-64 13.5h-77zM265 400h77q77 0 87 57q5 26 -11 38.5t-57 12.5h-77zM432 333l-3 -13q63 -13 95 -54.5t22 -100.5q-13 -75 -84 -120t-179 -45h-245l115 654h245q107 0 157.5 -46.5t36.5 -124.5q-11 -60 -52.5 -100t-107.5 -50z" />
    <glyph glyph-name="uni0413" unicode="&#x413;" horiz-adv-x="478" 
d="M153 654l-115 -654h157l89 508h270l26 146h-427z" />
    <glyph glyph-name="uni0414" unicode="&#x414;" horiz-adv-x="636" 
d="M630 88l-44 -248h-158l18 100h-278l-18 -100h-156l44 248h69q15 0 26 5.5t25 24t26 60.5t24 107l65 368h405l-100 -565h52zM421 88l74 419h-91l-41 -233q-23 -131 -96 -162l-1 -24h155z" />
    <glyph glyph-name="uni0415" unicode="&#x415;" horiz-adv-x="527" 
d="M153 654h466l-26 -147h-309l-19 -107h280l-26 -147h-280l-18 -106h309l-26 -147h-466z" />
    <glyph glyph-name="uni0416" unicode="&#x416;" horiz-adv-x="945" 
d="M624 411h17l219 243h187l-280 -318l164 -336h-191l-125 263h-17l-46 -263h-158l47 263h-17l-222 -263h-187l283 337l-168 317h191l129 -243h17l43 243h157z" />
    <glyph glyph-name="uni0417" unicode="&#x417;" horiz-adv-x="481" 
d="M406 334q53 9 90.5 49t47.5 99q16 88 -34 143t-144 55q-93 0 -159 -52t-101 -153l146 -30q15 47 36 69t51 22q26 0 38.5 -17.5t7.5 -45.5q-7 -37 -31 -59.5t-58 -22.5h-84l-22 -127h84q33 0 49.5 -22t10.5 -59q-5 -28 -24 -45.5t-44 -17.5q-30 0 -42.5 27t-9.5 84
l-156 -29q-3 -111 44 -168.5t140 -57.5q94 0 163.5 55t84.5 143q10 59 -13 99t-73 49z" />
    <glyph glyph-name="uni0418" unicode="&#x418;" horiz-adv-x="610" 
d="M311 654l-71 -404l250 404h199l-115 -654h-157l71 406l-250 -406h-200l115 654h158z" />
    <glyph glyph-name="uni0419" unicode="&#x419;" horiz-adv-x="610" 
d="M453 838q-3 -21 -15.5 -36.5t-26 -15.5t-20.5 15.5t-4 36.5h-113q-9 -56 26 -93.5t97.5 -37.5t111 37.5t57.5 93.5h-113zM311 654l-71 -404l250 404h199l-115 -654h-157l71 406l-250 -406h-200l115 654h158z" />
    <glyph glyph-name="uni041A" unicode="&#x41a;" horiz-adv-x="601" 
d="M153 654h157l-46 -263l255 263h184l-282 -299l167 -355h-212l-98 243l-49 -51l-34 -192h-157z" />
    <glyph glyph-name="uni041B" unicode="&#x41b;" horiz-adv-x="570" 
d="M648 654l-115 -654h-157l90 508h-101l-45 -254q-11 -63 -32.5 -109.5t-46.5 -74t-59.5 -43.5t-67 -21.5t-72.5 -5.5h-16l26 148h16q18 0 30 3.5t26 14.5t24 35.5t17 63.5l68 389h415z" />
    <glyph glyph-name="uni041C" unicode="&#x41c;" horiz-adv-x="806" 
d="M456 224l233 430h196l-115 -654h-148l67 382l-196 -382h-179l-52 382l-67 -382h-157l115 654h206l71 -430l3 -54z" />
    <glyph glyph-name="uni041D" unicode="&#x41d;" horiz-adv-x="570" 
d="M153 654h157l-43 -244h181l43 244h158l-115 -654h-158l46 263h-181l-46 -263h-157z" />
    <glyph glyph-name="uni041E" unicode="&#x41e;" horiz-adv-x="597" 
d="M238 327q-16 -93 6 -144.5t78 -51.5t96.5 51.5t56.5 144.5q17 93 -5 146t-78 53t-96.5 -53t-57.5 -146zM80 327q29 165 120.5 259t218.5 94q119 0 181 -95.5t33 -257.5q-29 -166 -120 -258.5t-218 -92.5t-185.5 92.5t-29.5 258.5z" />
    <glyph glyph-name="uni041F" unicode="&#x41f;" horiz-adv-x="550" 
d="M153 654h476l-115 -654h-158l89 507h-161l-89 -507h-157z" />
    <glyph glyph-name="uni0420" unicode="&#x420;" horiz-adv-x="525" 
d="M38 0l115 654h237q102 0 156 -64t36 -164q-17 -96 -91.5 -155t-178.5 -59h-80l-37 -212h-157zM258 358h70q40 0 65 18.5t31 52.5q7 38 -11 58.5t-59 20.5h-70z" />
    <glyph glyph-name="uni0421" unicode="&#x421;" horiz-adv-x="586" 
d="M640 444l-160 -30q-2 55 -24 83.5t-61 28.5q-57 0 -98.5 -52.5t-58.5 -149.5q-17 -92 6.5 -142.5t80.5 -50.5q42 0 76.5 32t52.5 90l150 -31q-43 -117 -125 -181.5t-181 -64.5q-128 0 -187.5 91.5t-30.5 256.5q29 169 121.5 262.5t220.5 93.5q90 0 148.5 -61.5
t69.5 -174.5z" />
    <glyph glyph-name="uni0422" unicode="&#x422;" horiz-adv-x="542" 
d="M141 654h491l-25 -146h-167l-90 -508h-158l90 508h-166z" />
    <glyph glyph-name="uni0423" unicode="&#x423;" horiz-adv-x="495" 
d="M339 412l89 242h169l-251 -532q-27 -60 -74.5 -91t-99.5 -31h-117l25 140h60q28 0 40 29l13 34l-63 451h169l4 -242l1 -56h13z" />
    <glyph glyph-name="uni0424" unicode="&#x424;" horiz-adv-x="591" 
d="M337 654h151l-116 -654h-151zM236 335q-12 -68 13 -104.5t81 -36.5t94 36.5t49 104.5q12 67 -13 103.5t-81 36.5t-93.5 -36.5t-49.5 -103.5zM81 335q23 130 109.5 202t212.5 72q117 0 182.5 -73t42.5 -201q-23 -131 -110 -203.5t-212.5 -72.5t-186.5 72.5t-38 203.5z" />
    <glyph glyph-name="uni0425" unicode="&#x425;" horiz-adv-x="604" 
d="M395 421l142 233h169l-219 -329l102 -325h-167l-61 233l-2 46h-13l-19 -46l-144 -233h-168l219 325l-104 329h168l62 -233l3 -46h13z" />
    <glyph glyph-name="uni0426" unicode="&#x426;" horiz-adv-x="555" 
d="M38 0l115 654h157l-89 -508h139l89 508h157l-89 -508h43l-43 -240h-157l17 94h-339z" />
    <glyph glyph-name="uni0427" unicode="&#x427;" horiz-adv-x="502" 
d="M265 464q-7 -41 6 -66t42 -25q28 0 48 7.5t27 15.5l39 -120q-48 -49 -142 -49t-145.5 64.5t-34.5 161.5l36 201h158zM424 654h157l-116 -654h-157z" />
    <glyph glyph-name="uni0428" unicode="&#x428;" horiz-adv-x="768" 
d="M732 0h-694l115 654h157l-89 -508h112l89 508h157l-89 -508h111l89 508h157z" />
    <glyph glyph-name="uni0429" unicode="&#x429;" horiz-adv-x="805" 
d="M38 0l115 654h157l-89 -508h112l89 508h157l-89 -508h111l89 508h157l-89 -508h52l-43 -240h-157l17 94h-589z" />
    <glyph glyph-name="uni042A" unicode="&#x42a;" horiz-adv-x="510" 
d="M279 410h36q110 0 167.5 -58t40.5 -152q-16 -91 -89 -145.5t-180 -54.5h-204l89 505h-50l26 149h207zM233 147h36q88 0 98 57q5 28 -16.5 43.5t-68.5 15.5h-29z" />
    <glyph glyph-name="uni042B" unicode="&#x42b;" horiz-adv-x="763" 
d="M685 654h157l-115 -654h-157zM267 410h89q110 0 167.5 -57.5t40.5 -151.5q-16 -92 -89 -146.5t-180 -54.5h-257l115 654h157zM221 147h89q88 0 98 58q5 27 -16.5 42.5t-68.5 15.5h-82z" />
    <glyph glyph-name="uni042C" unicode="&#x42c;" horiz-adv-x="538" 
d="M267 410h80q109 0 165.5 -57.5t39.5 -151.5q-16 -92 -88.5 -146.5t-177.5 -54.5h-248l115 654h157zM221 147h80q85 0 95 58q5 27 -16 42.5t-66 15.5h-73z" />
    <glyph glyph-name="uni042D" unicode="&#x42d;" horiz-adv-x="586" 
d="M570 268l22 126h-309l-22 -126h309zM63 212q11 -113 69 -174.5t148 -61.5q129 0 221 93.5t122 262.5q29 165 -30.5 256.5t-188.5 91.5q-99 0 -181 -64.5t-124 -181.5l149 -31q19 58 53 90t76 32q58 0 81 -50.5t7 -142.5q-17 -97 -58.5 -149.5t-99.5 -52.5
q-39 0 -60.5 28.5t-24.5 83.5z" />
    <glyph glyph-name="uni042E" unicode="&#x42e;" horiz-adv-x="757" 
d="M452 324q18 103 52.5 159t77.5 56t57 -56t-4 -159t-52 -159.5t-77 -56.5t-57.5 56t3.5 160zM294 324q-28 -159 24 -247t167 -88t197.5 88t110.5 247q27 155 -28 244t-162 89q-115 0 -198 -87.5t-111 -245.5zM38 0h156l45 255h98l26 148h-98l44 251h-156z" />
    <glyph glyph-name="uni042F" unicode="&#x42f;" horiz-adv-x="525" 
d="M365 276l-164 -276h-163l162 276h165zM507 0h-157l37 212h-80q-103 0 -157 59t-37 155q18 100 94 164t178 64h237zM413 358l26 150h-70q-40 0 -65.5 -20.5t-32.5 -58.5q-6 -34 13 -52.5t59 -18.5h70z" />
    <glyph glyph-name="uni0430" unicode="&#x430;" horiz-adv-x="440" 
d="M206 148q-6 -36 24 -36q16 0 28.5 17.5t17.5 45.5h23q-16 -90 -57 -144.5t-92 -54.5q-57 0 -87.5 38.5t-20.5 98.5q10 57 46 88.5t110 58.5l100 40l-16 -95l-43 -23q-29 -13 -33 -34zM403 0h-158l60 110l-37 20l31 174q4 20 -2 32t-19 12q-16 0 -29.5 -18t-20.5 -47
l-152 20q25 80 86 130.5t142 50.5q82 0 124.5 -49t30.5 -120z" />
    <glyph glyph-name="uni0431" unicode="&#x431;" horiz-adv-x="489" 
d="M65 244q-21 -119 32 -193.5t158 -74.5q94 0 162 62t86 164q18 104 -14.5 172.5t-100.5 68.5q-63 0 -113.5 -60.5t-66.5 -154.5zM217 206q8 48 29.5 75.5t49.5 27.5q32 0 45.5 -26.5t4.5 -72.5q-8 -46 -29 -72.5t-50 -26.5t-43 27t-7 68zM351 641q-92 -28 -145 -71
t-85 -118t-56 -208l155 -22q11 65 13 87l-24 18l49 83q15 46 36.5 68.5t68.5 33.5q73 15 127 47t73 63l-111 84q-24 -46 -101 -65z" />
    <glyph glyph-name="uni0432" unicode="&#x432;" horiz-adv-x="488" 
d="M217 127h70q45 0 49 23q3 17 -42 17h-70zM247 294h70q34 0 37 20q2 10 -5 15t-25 5h-70zM385 237l-3 -13q55 -8 84 -35.5t23 -64.5q-10 -57 -67.5 -90.5t-145.5 -33.5h-238l81 460h238q87 0 128.5 -32t31.5 -87q-7 -40 -42 -68t-90 -36z" />
    <glyph glyph-name="uni0433" unicode="&#x433;" horiz-adv-x="378" 
d="M119 460l-81 -460h157l55 314h170l26 146h-327z" />
    <glyph glyph-name="uni0434" unicode="&#x434;" horiz-adv-x="546" 
d="M542 98l-46 -258h-158l20 110h-188l-20 -110h-156l46 258h29q15 0 26 4t23.5 17t22.5 42t18 74l40 225h365l-64 -362h42zM343 98l38 216h-51l-16 -90q-15 -83 -66 -102v-24h95z" />
    <glyph glyph-name="uni0435" unicode="&#x435;" 
d="M215 188q-4 -37 9 -57t42 -20q20 0 35 12.5t22 34.5l151 -21q-30 -75 -92 -118t-140 -43q-104 0 -152 68t-27 188q21 118 90 186t168 68q100 0 145 -68.5t25 -179.5l-8 -50h-268zM235 290h107q4 27 -8.5 44.5t-36.5 17.5q-45 0 -62 -62z" />
    <glyph glyph-name="uni0436" unicode="&#x436;" horiz-adv-x="733" 
d="M499 304h10l111 156h181l-184 -230l102 -230h-181l-55 156h-10l-27 -156h-158l28 156h-10l-110 -156h-181l183 230l-102 230h181l55 -156h10l28 156h157z" />
    <glyph glyph-name="uni0437" unicode="&#x437;" horiz-adv-x="435" 
d="M373 239q39 6 66.5 34.5t34.5 70.5q11 62 -35.5 101.5t-131.5 39.5q-83 0 -140.5 -38t-85.5 -112l153 -20q14 33 46 33q17 0 25 -9.5t6 -25.5q-3 -17 -45 -17h-58l-23 -127h58q19 0 29.5 -7.5t7.5 -20.5q-3 -19 -15.5 -30t-30.5 -11q-30 0 -29 51l-159 -19
q1 -77 44.5 -117.5t125.5 -40.5q85 0 146.5 43.5t73.5 112.5q7 39 -10.5 65t-55.5 32z" />
    <glyph glyph-name="uni0438" unicode="&#x438;" horiz-adv-x="508" 
d="M277 460h-158l-81 -460h180l138 232l-41 -232h157l81 460h-179l-138 -230z" />
    <glyph glyph-name="uni0439" unicode="&#x439;" horiz-adv-x="508" 
d="M405 655q-3 -21 -15.5 -36.5t-26 -15.5t-20.5 15.5t-4 36.5h-113q-9 -56 26 -93.5t97.5 -37.5t111 37.5t57.5 93.5h-113zM277 460h-158l-81 -460h180l138 232l-41 -232h157l81 460h-179l-138 -230z" />
    <glyph glyph-name="uni043A" unicode="&#x43a;" horiz-adv-x="501" 
d="M119 460h157l-29 -166l135 166h187l-189 -218l108 -242h-181l-47 146l-51 -63l-14 -83h-157z" />
    <glyph glyph-name="uni043B" unicode="&#x43b;" horiz-adv-x="490" 
d="M535 460l-82 -460h-157l56 314h-42l-16 -90q-10 -56 -28.5 -97t-41 -65t-53 -38.5t-59 -19t-64.5 -4.5h-29l26 148h29q25 0 40 16.5t25 70.5l40 225h356z" />
    <glyph glyph-name="uni043C" unicode="&#x43c;" horiz-adv-x="653" 
d="M401 0h-139l-31 205l-36 -205h-157l81 460h190l51 -293l158 293h180l-81 -460h-148l36 205z" />
    <glyph glyph-name="uni043D" unicode="&#x43d;" horiz-adv-x="480" 
d="M119 460h157l-28 -160h91l28 160h158l-81 -460h-158l27 153h-91l-27 -153h-157z" />
    <glyph glyph-name="uni043E" unicode="&#x43e;" 
d="M221 232q-10 -59 -1 -90t35 -31t46.5 31.5t30.5 89.5t1 89t-36 31q-25 0 -45.5 -31t-30.5 -89zM63 232q22 121 91 187.5t167 66.5q92 0 141 -67.5t28 -186.5q-21 -121 -91 -188.5t-168 -67.5t-143.5 67t-24.5 189z" />
    <glyph glyph-name="uni043F" unicode="&#x43f;" horiz-adv-x="500" 
d="M119 460h426l-81 -460h-158l55 313h-111l-55 -313h-157z" />
    <glyph glyph-name="uni0440" unicode="&#x440;" horiz-adv-x="506" 
d="M236 229q10 58 33 89t54 31t42.5 -31t1.5 -89t-32.5 -89.5t-53.5 -31.5t-43 31.5t-2 89.5zM208.5 229.5q-21.5 -122.5 3.5 -189t91 -66.5q75 0 138 68.5t85 189.5q20 117 -15.5 184.5t-112.5 67.5q-69 0 -118.5 -66t-71 -188.5zM3 -197h158l35 197l-21 114l44 16l35 200
l-36 16l59 114h-158z" />
    <glyph glyph-name="uni0441" unicode="&#x441;" horiz-adv-x="465" 
d="M497 294l-155 -20q0 78 -41 78q-27 0 -48.5 -31t-31.5 -89q-10 -59 0 -90t38 -31q22 0 41 23t30 64l151 -20q-33 -96 -99.5 -149t-146.5 -53q-99 0 -146 67.5t-26 188.5q22 121 92.5 187.5t169.5 66.5q72 0 118 -50t54 -142z" />
    <glyph glyph-name="uni0442" unicode="&#x442;" horiz-adv-x="441" 
d="M107 460l-26 -146h115l-55 -314h158l55 314h117l26 146h-390z" />
    <glyph glyph-name="uni0443" unicode="&#x443;" horiz-adv-x="495" 
d="M303 209l90 251h170l-253 -541q-27 -59 -74.5 -90t-98.5 -31h-123l24 139h66q29 0 40 29l14 34l-62 460h168l3 -251l2 -56h12z" />
    <glyph glyph-name="uni0444" unicode="&#x444;" horiz-adv-x="551" 
d="M290 529h161l-107 -607h-161zM213 230q-7 -38 16.5 -58t72.5 -20t80 20t38 58q6 37 -17.5 57t-72.5 20t-80 -20t-37 -57zM63 230q18 102 96 158t195 56q109 0 171.5 -57t44.5 -157q-18 -102 -97 -159t-195 -57t-174.5 57t-40.5 159z" />
    <glyph glyph-name="uni0445" unicode="&#x445;" horiz-adv-x="495" 
d="M323 327l72 133h168l-148 -232l66 -228h-167l-25 133l-3 46h-13l-19 -46l-72 -133h-167l147 228l-66 232h167l25 -133l3 -46h13z" />
    <glyph glyph-name="uni0446" unicode="&#x446;" horiz-adv-x="495" 
d="M38 0l81 460h157l-55 -314h79l55 314h157l-55 -314h43l-43 -240h-157l17 94h-279z" />
    <glyph glyph-name="uni0447" unicode="&#x447;" horiz-adv-x="446" 
d="M242 310q-4 -23 3 -37t22 -14q20 0 37 20t25 43l44 -90q-71 -109 -193 -109q-55 0 -85 39t-20 97l35 201h158zM333 460h157l-81 -460h-157z" />
    <glyph glyph-name="uni0448" unicode="&#x448;" horiz-adv-x="690" 
d="M612 0h-574l81 460h154l-55 -314h58l55 314h151l-55 -314h57l55 314h154z" />
    <glyph glyph-name="uni0449" unicode="&#x449;" horiz-adv-x="745" 
d="M38 0l81 460h154l-55 -314h58l55 314h151l-55 -314h57l55 314h154l-55 -314h112l-43 -240h-157l17 94h-529z" />
    <glyph glyph-name="uni044A" unicode="&#x44a;" horiz-adv-x="480" 
d="M243 147h41q43 0 47 26q2 9 -8.5 14t-33.5 5h-38zM298 460l-21 -120h38q91 0 139 -45t34 -124q-14 -82 -73.5 -126.5t-155.5 -44.5h-199l55 314h-60l26 146h217z" />
    <glyph glyph-name="uni044B" unicode="&#x44b;" horiz-adv-x="673" 
d="M561 460h157l-81 -460h-157zM221 147h54q53 0 57 22q4 23 -52 23h-51zM276 460l-21 -120h61q91 0 139 -46t33 -127q-14 -80 -73 -123.5t-155 -43.5h-222l81 460h157z" />
    <glyph glyph-name="uni044C" unicode="&#x44c;" horiz-adv-x="468" 
d="M221 147h45q50 0 54 22q4 23 -49 23h-42zM276 460l-21 -120h52q90 0 137 -46t32 -127q-14 -80 -72.5 -123.5t-152.5 -43.5h-213l81 460h157z" />
    <glyph glyph-name="uni044D" unicode="&#x44d;" 
d="M240 293l-22 -126h222l22 126h-222zM48 148q10 -83 58.5 -127.5t121.5 -44.5q99 0 170 66.5t92 187.5t-26 188.5t-146 67.5q-80 0 -145.5 -47.5t-96.5 -134.5l150 -20q10 32 28 49.5t40 17.5q28 0 38 -31t0 -90q-10 -58 -31 -89t-49 -31q-45 0 -48 58z" />
    <glyph glyph-name="uni044E" unicode="&#x44e;" horiz-adv-x="661" 
d="M410 232q10 58 30 89t47 31t36.5 -31t-0.5 -89q-11 -58 -31.5 -89.5t-47.5 -31.5q-26 0 -35 31t1 90zM252 232q-21 -117 25.5 -181.5t145 -64.5t168 64.5t90.5 181.5q20 114 -30 179t-142 65q-99 0 -168 -64t-89 -180zM38 0h156l28 160h92l26 148h-92l27 152h-156z" />
    <glyph glyph-name="uni044F" unicode="&#x44f;" horiz-adv-x="470" 
d="M43 0l124 204h161l-123 -204h-162zM334 313h-67q-33 0 -36 -17q-2 -9 6 -13.5t26 -4.5h65zM279 0l23 130h-52q-91 0 -139 44.5t-34.5 123t72.5 120.5t155 42h211l-82 -460h-154z" />
    <glyph glyph-name="uni0450" unicode="&#x450;" 
d="M233 703h125l12 -177h-81zM215 188q-4 -37 9 -57t42 -20q20 0 35 12.5t22 34.5l151 -21q-30 -75 -92 -118t-140 -43q-104 0 -152 68t-27 188q21 118 90 186t168 68q100 0 145 -68.5t25 -179.5l-8 -50h-268zM235 290h107q4 27 -8.5 44.5t-36.5 17.5q-45 0 -62 -62z" />
    <glyph glyph-name="uni0451" unicode="&#x451;" 
d="M346 616q6 34 35 58.5t63 24.5t54 -24.5t14 -58.5t-35 -59t-62.5 -25t-54 25t-14.5 59zM171 616q6 34 35 58.5t63 24.5t54 -24.5t14 -58.5t-35 -59t-62.5 -25t-54 25t-14.5 59zM215 188q-4 -37 9 -57t42 -20q20 0 35 12.5t22 34.5l151 -21q-30 -75 -92 -118t-140 -43
q-104 0 -152 68t-27 188q21 118 90 186t168 68q100 0 145 -68.5t25 -179.5l-8 -50h-268zM235 290h107q4 27 -8.5 44.5t-36.5 17.5q-45 0 -62 -62z" />
    <glyph glyph-name="uni0452" unicode="&#x452;" horiz-adv-x="477" 
d="M271 460l-57 -117l20 -7q22 63 65.5 105.5t92.5 42.5q56 0 84.5 -54t15.5 -132l-55 -309q-14 -78 -65 -121t-127 -43h-48l23 129h28q10 0 20 13t13 33l51 287q5 29 -4.5 46.5t-29.5 17.5t-36.5 -18.5t-21.5 -47.5l-50 -285h-157l91 518h-33l21 117h33l9 52h157l-9 -52
h109l-21 -117h-109z" />
    <glyph glyph-name="uni0453" unicode="&#x453;" horiz-adv-x="378" 
d="M441 703l-118 -177h-81l74 177h125zM119 460l-81 -460h157l55 314h170l26 146h-327z" />
    <glyph glyph-name="uni0454" unicode="&#x454;" 
d="M310 169l22 126h-219l-22 -126h219zM505 314q-10 83 -58.5 127.5t-121.5 44.5q-99 0 -169.5 -66.5t-92.5 -187.5q-21 -121 26 -188.5t146 -67.5q80 0 145.5 47.5t96.5 134.5l-150 20q-10 -32 -28 -49.5t-40 -17.5q-28 0 -38 31t0 90q10 58 31.5 89t48.5 31q45 0 48 -58z
" />
    <glyph glyph-name="uni0455" unicode="&#x455;" horiz-adv-x="402" 
d="M402 120q3 18 3 34t-2 28.5t-8 24t-11.5 19.5t-16 16.5t-18 13.5t-20 12t-20.5 10.5t-22 9.5l-21 9q-9 6 -13 9.5t-7 12t-1 19.5q4 24 16 24q20 0 16 -55l157 28q-11 151 -163 151q-72 0 -121 -38.5t-61 -103.5q-3 -16 -3.5 -29.5t2.5 -25.5t6 -22t10 -19t12.5 -15.5
t15.5 -13.5t17 -11.5t19.5 -10.5t19 -9t20.5 -9q3 -1 5 -2q13 -7 18.5 -11t10.5 -14t3 -24q-5 -31 -18 -31q-28 0 -24 66l-155 -18q0 -86 45.5 -129t121.5 -43q71 0 123 41t64 106z" />
    <glyph glyph-name="uni0456" unicode="&#x456;" horiz-adv-x="229" 
d="M131 588q6 36 36.5 62t66.5 26t57.5 -26t15.5 -62t-37 -62.5t-67 -26.5t-57 26.5t-15 62.5zM119 460h157l-81 -460h-157z" />
    <glyph glyph-name="uni0457" unicode="&#x457;" horiz-adv-x="230" 
d="M229 616q6 34 35 58.5t63 24.5t54 -24.5t14 -58.5t-35 -59t-62.5 -25t-54 25t-14.5 59zM54 616q6 34 35 58.5t63 24.5t54 -24.5t14 -58.5t-35 -59t-62.5 -25t-54 25t-14.5 59zM119 460h157l-81 -460h-157z" />
    <glyph glyph-name="uni0458" unicode="&#x458;" horiz-adv-x="234" 
d="M133 588q7 36 37.5 62t66.5 26t57.5 -26t14.5 -62q-6 -36 -36.5 -62.5t-66.5 -26.5t-57.5 26.5t-15.5 62.5zM122 460h157l-84 -474q-14 -80 -74 -127t-146 -47h-43l26 148h43q13 0 26 16.5t17 40.5z" />
    <glyph glyph-name="uni0459" unicode="&#x459;" horiz-adv-x="745" 
d="M485 192l-8 -45h86q30 0 34 23q4 22 -29 22h-83zM349 314h-53l-15 -90q-13 -69 -35.5 -115.5t-54 -69t-62.5 -31t-71 -8.5h-32l26 148h22q18 0 30 16.5t22 70.5l39 225h367l-21 -120h73q90 0 136.5 -47.5t31.5 -131.5q-13 -78 -71.5 -119.5t-152.5 -41.5h-234z" />
    <glyph glyph-name="uni045A" unicode="&#x45a;" horiz-adv-x="678" 
d="M430 147l6 36h73q23 0 20 -17q-3 -19 -23 -19h-76zM485 460h-157l-81 -460h214q94 0 152 40t71 115q14 77 -33.5 121.5t-137.5 44.5h-53zM38 0h156l30 172h103l26 148h-103l25 140h-156z" />
    <glyph glyph-name="uni045B" unicode="&#x45b;" horiz-adv-x="477" 
d="M271 460l-57 -117l20 -7q22 63 65.5 105.5t92.5 42.5q56 0 84.5 -54t15.5 -132l-53 -298h-158l51 287q5 29 -4.5 46.5t-29.5 17.5t-36.5 -18.5t-21.5 -47.5l-50 -285h-157l91 518h-33l21 117h33l9 52h157l-9 -52h109l-21 -117h-109z" />
    <glyph glyph-name="uni045C" unicode="&#x45c;" horiz-adv-x="501" 
d="M497 703l-118 -177h-81l74 177h125zM119 460h157l-29 -166l135 166h187l-189 -218l108 -242h-181l-47 146l-51 -63l-14 -83h-157z" />
    <glyph glyph-name="uni045D" unicode="&#x45d;" horiz-adv-x="508" 
d="M254 703h125l12 -177h-81zM277 460h-158l-81 -460h180l138 232l-41 -232h157l81 460h-179l-138 -230z" />
    <glyph glyph-name="uni045E" unicode="&#x45e;" horiz-adv-x="495" 
d="M393 655q-3 -21 -15.5 -36.5t-26 -15.5t-20.5 15.5t-4 36.5h-113q-9 -56 26 -93.5t97.5 -37.5t111 37.5t57.5 93.5h-113zM303 209l90 251h170l-253 -541q-27 -59 -74.5 -90t-98.5 -31h-123l24 139h66q29 0 40 29l14 34l-62 460h168l3 -251l2 -56h12z" />
    <glyph glyph-name="uni045F" unicode="&#x45f;" horiz-adv-x="500" 
d="M183 0h-145l81 460h158l-55 -313h111l55 313h157l-81 -460h-134l-22 -123h-147z" />
    <glyph glyph-name="uni0490" unicode="&#x490;" horiz-adv-x="520" 
d="M153 654l-115 -654h157l89 508h312l44 249h-157l-18 -103h-312z" />
    <glyph glyph-name="uni0491" unicode="&#x491;" horiz-adv-x="378" 
d="M119 460l-81 -460h157l55 314h170l39 219h-157l-13 -73h-170z" />
    <glyph glyph-name="uni0492" unicode="&#x492;" horiz-adv-x="522" 
d="M70 398l-22 -126h312l22 126h-312zM154 654l-115 -654h157l90 508h312l25 146h-469z" />
    <glyph glyph-name="uni0493" unicode="&#x493;" horiz-adv-x="380" 
d="M47 268l-22 -126h251l22 126h-251zM120 460l-81 -460h157l55 314h170l26 146h-327z" />
    <glyph glyph-name="uni1EA0" unicode="&#x1ea0;" horiz-adv-x="652" 
d="M222 -154q7 36 37.5 62t66.5 26t57.5 -26t14.5 -62q-6 -36 -37 -62.5t-66.5 -26.5t-57 26.5t-15.5 62.5zM244 285h269l-26 -146h-269zM387 448l-204 -448h-168l309 654h233l82 -654h-167l-50 448l-1 56h-13z" />
    <glyph glyph-name="uni1EA1" unicode="&#x1ea1;" horiz-adv-x="440" 
d="M104 -154q7 36 37.5 62t66.5 26t57.5 -26t14.5 -62q-6 -36 -37 -62.5t-66.5 -26.5t-57 26.5t-15.5 62.5zM206 148q-6 -36 24 -36q16 0 28.5 17.5t17.5 45.5h23q-16 -90 -57 -144.5t-92 -54.5q-57 0 -87.5 38.5t-20.5 98.5q10 57 46 88.5t110 58.5l100 40l-16 -95l-43 -23
q-29 -13 -33 -34zM403 0h-158l60 110l-37 20l31 174q4 20 -2 32t-19 12q-16 0 -29.5 -18t-20.5 -47l-152 20q25 80 86 130.5t142 50.5q82 0 124.5 -49t30.5 -120z" />
    <glyph glyph-name="uni1EA2" unicode="&#x1ea2;" horiz-adv-x="652" 
d="M445 799q2 12 -8 12q-8 0 -17 -21l-72 23q15 40 45 61t60 21q36 0 56.5 -27.5t13.5 -67.5q-3 -18 -13.5 -35.5t-19 -27.5t-26 -26.5t-21.5 -20.5l-41 56q40 36 43 53zM244 285h269l-26 -146h-269zM387 448l-204 -448h-168l309 654h233l82 -654h-167l-50 448l-1 56h-13z
" />
    <glyph glyph-name="uni1EA3" unicode="&#x1ea3;" horiz-adv-x="440" 
d="M343 616q2 12 -8 12q-8 0 -17 -21l-72 23q15 40 45 61t60 21q36 0 56.5 -27.5t13.5 -67.5q-3 -18 -13.5 -35.5t-19 -27.5t-26 -26.5t-21.5 -20.5l-41 56q40 36 43 53zM206 148q-6 -36 24 -36q16 0 28.5 17.5t17.5 45.5h23q-16 -90 -57 -144.5t-92 -54.5q-57 0 -87.5 38.5
t-20.5 98.5q10 57 46 88.5t110 58.5l100 40l-16 -95l-43 -23q-29 -13 -33 -34zM403 0h-158l60 110l-37 20l31 174q4 20 -2 32t-19 12q-16 0 -29.5 -18t-20.5 -47l-152 20q25 80 86 130.5t142 50.5q82 0 124.5 -49t30.5 -120z" />
    <glyph glyph-name="uni1EA4" unicode="&#x1ea4;" horiz-adv-x="652" 
d="M775 990l-118 -177h-81l74 177h125zM420 772l-57 -64h-117l123 136h154l75 -136h-117l-35 64l-3 21h-12zM244 285h269l-26 -146h-269zM387 448l-204 -448h-168l309 654h233l82 -654h-167l-50 448l-1 56h-13z" />
    <glyph glyph-name="uni1EA5" unicode="&#x1ea5;" horiz-adv-x="440" 
d="M673 807l-118 -177h-81l74 177h125zM318 589l-57 -64h-117l123 136h154l75 -136h-117l-35 64l-3 21h-12zM206 148q-6 -36 24 -36q16 0 28.5 17.5t17.5 45.5h23q-16 -90 -57 -144.5t-92 -54.5q-57 0 -87.5 38.5t-20.5 98.5q10 57 46 88.5t110 58.5l100 40l-16 -95l-43 -23
q-29 -13 -33 -34zM403 0h-158l60 110l-37 20l31 174q4 20 -2 32t-19 12q-16 0 -29.5 -18t-20.5 -47l-152 20q25 80 86 130.5t142 50.5q82 0 124.5 -49t30.5 -120z" />
    <glyph glyph-name="uni1EA6" unicode="&#x1ea6;" horiz-adv-x="652" 
d="M532 990h125l12 -177h-81zM420 772l-57 -64h-117l123 136h154l75 -136h-117l-35 64l-3 21h-12zM244 285h269l-26 -146h-269zM387 448l-204 -448h-168l309 654h233l82 -654h-167l-50 448l-1 56h-13z" />
    <glyph glyph-name="uni1EA7" unicode="&#x1ea7;" horiz-adv-x="440" 
d="M430 807h125l12 -177h-81zM318 589l-57 -64h-117l123 136h154l75 -136h-117l-35 64l-3 21h-12zM206 148q-6 -36 24 -36q16 0 28.5 17.5t17.5 45.5h23q-16 -90 -57 -144.5t-92 -54.5q-57 0 -87.5 38.5t-20.5 98.5q10 57 46 88.5t110 58.5l100 40l-16 -95l-43 -23
q-29 -13 -33 -34zM403 0h-158l60 110l-37 20l31 174q4 20 -2 32t-19 12q-16 0 -29.5 -18t-20.5 -47l-152 20q25 80 86 130.5t142 50.5q82 0 124.5 -49t30.5 -120z" />
    <glyph glyph-name="uni1EA8" unicode="&#x1ea8;" horiz-adv-x="652" 
d="M625 912q2 12 -7 12t-17 -21l-72 23q14 40 44.5 61t59.5 21q36 0 56.5 -27.5t13.5 -67.5q-3 -18 -13.5 -35.5t-19 -27.5t-26 -26.5t-21.5 -20.5l-41 56q40 36 43 53zM420 772l-57 -64h-117l123 136h154l75 -136h-117l-35 64l-3 21h-12zM244 285h269l-26 -146h-269z
M387 448l-204 -448h-168l309 654h233l82 -654h-167l-50 448l-1 56h-13z" />
    <glyph glyph-name="uni1EA9" unicode="&#x1ea9;" horiz-adv-x="440" 
d="M523 729q2 12 -7 12t-17 -21l-72 23q14 40 44.5 61t59.5 21q36 0 56.5 -27.5t13.5 -67.5q-3 -18 -13.5 -35.5t-19 -27.5t-26 -26.5t-21.5 -20.5l-41 56q40 36 43 53zM318 589l-57 -64h-117l123 136h154l75 -136h-117l-35 64l-3 21h-12zM206 148q-6 -36 24 -36
q16 0 28.5 17.5t17.5 45.5h23q-16 -90 -57 -144.5t-92 -54.5q-57 0 -87.5 38.5t-20.5 98.5q10 57 46 88.5t110 58.5l100 40l-16 -95l-43 -23q-29 -13 -33 -34zM403 0h-158l60 110l-37 20l31 174q4 20 -2 32t-19 12q-16 0 -29.5 -18t-20.5 -47l-152 20q25 80 86 130.5
t142 50.5q82 0 124.5 -49t30.5 -120z" />
    <glyph glyph-name="uni1EAA" unicode="&#x1eaa;" horiz-adv-x="652" 
d="M513 1014q-9 -55 -19 -55t-18.5 5.5t-11.5 9.5t-11 16q-7 11 -13 17t-19 11.5t-30 5.5q-47 0 -77.5 -33.5t-41.5 -95.5l78 -8q10 59 25 59q6 0 11.5 -2t10 -6.5l7.5 -7.5t8 -10.5l7 -10.5q24 -29 62 -29q89 0 111 127zM419 772l-57 -64h-117l123 136h154l75 -136h-117
l-35 64l-3 21h-12zM244 285h269l-26 -146h-269zM387 448l-204 -448h-168l309 654h233l82 -654h-167l-50 448l-1 56h-13z" />
    <glyph glyph-name="uni1EAB" unicode="&#x1eab;" horiz-adv-x="440" 
d="M403 821q-9 -55 -19 -55t-18.5 5.5t-11.5 9.5t-11 16q-7 11 -13 17t-19 11.5t-30 5.5q-47 0 -77.5 -33.5t-41.5 -95.5l78 -8q10 59 25 59q6 0 11.5 -2t10 -6.5l7.5 -7.5t8 -10.5l7 -10.5q24 -29 62 -29q89 0 111 127zM318 589l-57 -64h-117l123 136h154l75 -136h-117
l-35 64l-3 21h-12zM206 148q-6 -36 24 -36q16 0 28.5 17.5t17.5 45.5h23q-16 -90 -57 -144.5t-92 -54.5q-57 0 -87.5 38.5t-20.5 98.5q10 57 46 88.5t110 58.5l100 40l-16 -95l-43 -23q-29 -13 -33 -34zM403 0h-158l60 110l-37 20l31 174q4 20 -2 32t-19 12q-16 0 -29.5 -18
t-20.5 -47l-152 20q25 80 86 130.5t142 50.5q82 0 124.5 -49t30.5 -120z" />
    <glyph glyph-name="uni1EAC" unicode="&#x1eac;" horiz-adv-x="652" 
d="M417 804l-57 -64h-117l123 136h154l75 -136h-117l-35 64l-3 21h-12zM222 -154q7 36 37.5 62t66.5 26t57.5 -26t14.5 -62q-6 -36 -37 -62.5t-66.5 -26.5t-57 26.5t-15.5 62.5zM244 285h269l-26 -146h-269zM387 448l-204 -448h-168l309 654h233l82 -654h-167l-50 448l-1 56
h-13z" />
    <glyph glyph-name="uni1EAD" unicode="&#x1ead;" horiz-adv-x="440" 
d="M310 610l-57 -64h-117l123 136h154l75 -136h-117l-35 64l-3 21h-12zM104 -154q7 36 37.5 62t66.5 26t57.5 -26t14.5 -62q-6 -36 -37 -62.5t-66.5 -26.5t-57 26.5t-15.5 62.5zM206 148q-6 -36 24 -36q16 0 28.5 17.5t17.5 45.5h23q-16 -90 -57 -144.5t-92 -54.5
q-57 0 -87.5 38.5t-20.5 98.5q10 57 46 88.5t110 58.5l100 40l-16 -95l-43 -23q-29 -13 -33 -34zM403 0h-158l60 110l-37 20l31 174q4 20 -2 32t-19 12q-16 0 -29.5 -18t-20.5 -47l-152 20q25 80 86 130.5t142 50.5q82 0 124.5 -49t30.5 -120z" />
    <glyph glyph-name="uni1EAE" unicode="&#x1eae;" horiz-adv-x="652" 
d="M578 1041l-118 -177h-81l74 177h125zM476 838q-3 -21 -15.5 -36.5t-26 -15.5t-20.5 15.5t-4 36.5h-113q-9 -56 26 -93.5t97.5 -37.5t111 37.5t57.5 93.5h-113zM244 285h269l-26 -146h-269zM387 448l-204 -448h-168l309 654h233l82 -654h-167l-50 448l-1 56h-13z" />
    <glyph glyph-name="uni1EAF" unicode="&#x1eaf;" horiz-adv-x="440" 
d="M458 864l-118 -177h-81l74 177h125zM375 655q-3 -21 -15.5 -36.5t-26 -15.5t-20.5 15.5t-4 36.5h-113q-9 -56 26 -93.5t97.5 -37.5t111 37.5t57.5 93.5h-113zM206 148q-6 -36 24 -36q16 0 28.5 17.5t17.5 45.5h23q-16 -90 -57 -144.5t-92 -54.5q-57 0 -87.5 38.5
t-20.5 98.5q10 57 46 88.5t110 58.5l100 40l-16 -95l-43 -23q-29 -13 -33 -34zM403 0h-158l60 110l-37 20l31 174q4 20 -2 32t-19 12q-16 0 -29.5 -18t-20.5 -47l-152 20q25 80 86 130.5t142 50.5q82 0 124.5 -49t30.5 -120z" />
    <glyph glyph-name="uni1EB0" unicode="&#x1eb0;" horiz-adv-x="652" 
d="M325 1041h125l12 -177h-81zM476 838q-3 -21 -15.5 -36.5t-26 -15.5t-20.5 15.5t-4 36.5h-113q-9 -56 26 -93.5t97.5 -37.5t111 37.5t57.5 93.5h-113zM244 285h269l-26 -146h-269zM387 448l-204 -448h-168l309 654h233l82 -654h-167l-50 448l-1 56h-13z" />
    <glyph glyph-name="uni1EB1" unicode="&#x1eb1;" horiz-adv-x="440" 
d="M205 864h125l12 -177h-81zM375 655q-3 -21 -15.5 -36.5t-26 -15.5t-20.5 15.5t-4 36.5h-113q-9 -56 26 -93.5t97.5 -37.5t111 37.5t57.5 93.5h-113zM206 148q-6 -36 24 -36q16 0 28.5 17.5t17.5 45.5h23q-16 -90 -57 -144.5t-92 -54.5q-57 0 -87.5 38.5t-20.5 98.5
q10 57 46 88.5t110 58.5l100 40l-16 -95l-43 -23q-29 -13 -33 -34zM403 0h-158l60 110l-37 20l31 174q4 20 -2 32t-19 12q-16 0 -29.5 -18t-20.5 -47l-152 20q25 80 86 130.5t142 50.5q82 0 124.5 -49t30.5 -120z" />
    <glyph glyph-name="uni1EB2" unicode="&#x1eb2;" horiz-adv-x="652" 
d="M445 954q2 12 -8 12q-8 0 -17 -21l-72 23q15 40 45 61t60 21q36 0 56.5 -27.5t13.5 -67.5q-3 -18 -13.5 -35.5t-19 -27.5t-26 -26.5t-21.5 -20.5l-41 56q40 36 43 53zM476 838q-3 -21 -15.5 -36.5t-26 -15.5t-20.5 15.5t-4 36.5h-113q-9 -56 26 -93.5t97.5 -37.5
t111 37.5t57.5 93.5h-113zM244 285h269l-26 -146h-269zM387 448l-204 -448h-168l309 654h233l82 -654h-167l-50 448l-1 56h-13z" />
    <glyph glyph-name="uni1EB3" unicode="&#x1eb3;" horiz-adv-x="440" 
d="M324 777q2 12 -8 12q-8 0 -17 -21l-72 23q15 40 45 61t60 21q36 0 56.5 -27.5t13.5 -67.5q-3 -18 -13.5 -35.5t-19 -27.5t-26 -26.5t-21.5 -20.5l-41 56q40 36 43 53zM375 655q-3 -21 -15.5 -36.5t-26 -15.5t-20.5 15.5t-4 36.5h-113q-9 -56 26 -93.5t97.5 -37.5
t111 37.5t57.5 93.5h-113zM206 148q-6 -36 24 -36q16 0 28.5 17.5t17.5 45.5h23q-16 -90 -57 -144.5t-92 -54.5q-57 0 -87.5 38.5t-20.5 98.5q10 57 46 88.5t110 58.5l100 40l-16 -95l-43 -23q-29 -13 -33 -34zM403 0h-158l60 110l-37 20l31 174q4 20 -2 32t-19 12
q-16 0 -29.5 -18t-20.5 -47l-152 20q25 80 86 130.5t142 50.5q82 0 124.5 -49t30.5 -120z" />
    <glyph glyph-name="uni1EB4" unicode="&#x1eb4;" horiz-adv-x="652" 
d="M515 987q-9 -55 -19 -55t-18.5 5.5t-11.5 9.5t-11 16q-7 11 -13 17t-19 11.5t-30 5.5q-47 0 -77.5 -33.5t-41.5 -95.5l78 -8q10 59 25 59q6 0 11.5 -2t10 -6.5l7.5 -7.5t8 -10.5l7 -10.5q24 -29 62 -29q89 0 111 127zM476 838q-3 -21 -15.5 -36.5t-26 -15.5t-20.5 15.5
t-4 36.5h-113q-9 -56 26 -93.5t97.5 -37.5t111 37.5t57.5 93.5h-113zM244 285h269l-26 -146h-269zM387 448l-204 -448h-168l309 654h233l82 -654h-167l-50 448l-1 56h-13z" />
    <glyph glyph-name="uni1EB5" unicode="&#x1eb5;" horiz-adv-x="440" 
d="M394 810q-9 -55 -19 -55t-18.5 5.5t-11.5 9.5t-11 16q-7 11 -13 17t-19 11.5t-30 5.5q-47 0 -77.5 -33.5t-41.5 -95.5l78 -8q10 59 25 59q6 0 11.5 -2t10 -6.5l7.5 -7.5t8 -10.5l7 -10.5q24 -29 62 -29q89 0 111 127zM375 655q-3 -21 -15.5 -36.5t-26 -15.5t-20.5 15.5
t-4 36.5h-113q-9 -56 26 -93.5t97.5 -37.5t111 37.5t57.5 93.5h-113zM206 148q-6 -36 24 -36q16 0 28.5 17.5t17.5 45.5h23q-16 -90 -57 -144.5t-92 -54.5q-57 0 -87.5 38.5t-20.5 98.5q10 57 46 88.5t110 58.5l100 40l-16 -95l-43 -23q-29 -13 -33 -34zM403 0h-158l60 110
l-37 20l31 174q4 20 -2 32t-19 12q-16 0 -29.5 -18t-20.5 -47l-152 20q25 80 86 130.5t142 50.5q82 0 124.5 -49t30.5 -120z" />
    <glyph glyph-name="uni1EB6" unicode="&#x1eb6;" horiz-adv-x="652" 
d="M474 871q-3 -21 -15.5 -36.5t-26 -15.5t-20.5 15.5t-4 36.5h-113q-9 -56 26 -93.5t97.5 -37.5t111 37.5t57.5 93.5h-113zM222 -154q7 36 37.5 62t66.5 26t57.5 -26t14.5 -62q-6 -36 -37 -62.5t-66.5 -26.5t-57 26.5t-15.5 62.5zM244 285h269l-26 -146h-269zM387 448
l-204 -448h-168l309 654h233l82 -654h-167l-50 448l-1 56h-13z" />
    <glyph glyph-name="uni1EB7" unicode="&#x1eb7;" horiz-adv-x="440" 
d="M367 677q-3 -21 -15.5 -36.5t-26 -15.5t-20.5 15.5t-4 36.5h-113q-9 -56 26 -93.5t97.5 -37.5t111 37.5t57.5 93.5h-113zM104 -154q7 36 37.5 62t66.5 26t57.5 -26t14.5 -62q-6 -36 -37 -62.5t-66.5 -26.5t-57 26.5t-15.5 62.5zM206 148q-6 -36 24 -36q16 0 28.5 17.5
t17.5 45.5h23q-16 -90 -57 -144.5t-92 -54.5q-57 0 -87.5 38.5t-20.5 98.5q10 57 46 88.5t110 58.5l100 40l-16 -95l-43 -23q-29 -13 -33 -34zM403 0h-158l60 110l-37 20l31 174q4 20 -2 32t-19 12q-16 0 -29.5 -18t-20.5 -47l-152 20q25 80 86 130.5t142 50.5
q82 0 124.5 -49t30.5 -120z" />
    <glyph glyph-name="uni1EB8" unicode="&#x1eb8;" horiz-adv-x="527" 
d="M177 -154q7 36 37.5 62t66.5 26t57.5 -26t14.5 -62q-6 -36 -37 -62.5t-66.5 -26.5t-57 26.5t-15.5 62.5zM153 654h466l-26 -147h-309l-19 -107h280l-26 -147h-280l-18 -106h309l-26 -147h-466z" />
    <glyph glyph-name="uni1EB9" unicode="&#x1eb9;" 
d="M131 -154q7 36 37.5 62t66.5 26t57.5 -26t14.5 -62q-6 -36 -37 -62.5t-66.5 -26.5t-57 26.5t-15.5 62.5zM215 188q-4 -37 9 -57t42 -20q20 0 35 12.5t22 34.5l151 -21q-30 -75 -92 -118t-140 -43q-104 0 -152 68t-27 188q21 118 90 186t168 68q100 0 145 -68.5t25 -179.5
l-8 -50h-268zM235 290h107q4 27 -8.5 44.5t-36.5 17.5q-45 0 -62 -62z" />
    <glyph glyph-name="uni1EBA" unicode="&#x1eba;" horiz-adv-x="527" 
d="M407 799q2 12 -8 12q-8 0 -17 -21l-72 23q15 40 45 61t60 21q36 0 56.5 -27.5t13.5 -67.5q-3 -18 -13.5 -35.5t-19 -27.5t-26 -26.5t-21.5 -20.5l-41 56q40 36 43 53zM153 654h466l-26 -147h-309l-19 -107h280l-26 -147h-280l-18 -106h309l-26 -147h-466z" />
    <glyph glyph-name="uni1EBB" unicode="&#x1ebb;" 
d="M352 616q2 12 -8 12q-8 0 -17 -21l-72 23q15 40 45 61t60 21q36 0 56.5 -27.5t13.5 -67.5q-3 -18 -13.5 -35.5t-19 -27.5t-26 -26.5t-21.5 -20.5l-41 56q40 36 43 53zM215 188q-4 -37 9 -57t42 -20q20 0 35 12.5t22 34.5l151 -21q-30 -75 -92 -118t-140 -43
q-104 0 -152 68t-27 188q21 118 90 186t168 68q100 0 145 -68.5t25 -179.5l-8 -50h-268zM235 290h107q4 27 -8.5 44.5t-36.5 17.5q-45 0 -62 -62z" />
    <glyph glyph-name="uni1EBC" unicode="&#x1ebc;" horiz-adv-x="527" 
d="M477 832q-9 -55 -19 -55t-18.5 5.5t-11.5 9.5t-11 16q-7 11 -13 17t-19 11.5t-30 5.5q-47 0 -77.5 -33.5t-41.5 -95.5l78 -8q10 59 25 59q6 0 11.5 -2t10 -6.5l7.5 -7.5t8 -10.5l7 -10.5q24 -29 62 -29q89 0 111 127zM153 654h466l-26 -147h-309l-19 -107h280l-26 -147
h-280l-18 -106h309l-26 -147h-466z" />
    <glyph glyph-name="uni1EBD" unicode="&#x1ebd;" 
d="M422 649q-9 -55 -19 -55t-18.5 5.5t-11.5 9.5t-11 16q-7 11 -13 17t-19 11.5t-30 5.5q-47 0 -77.5 -33.5t-41.5 -95.5l78 -8q10 59 25 59q6 0 11.5 -2t10 -6.5l7.5 -7.5t8 -10.5l7 -10.5q24 -29 62 -29q89 0 111 127zM215 188q-4 -37 9 -57t42 -20q20 0 35 12.5t22 34.5
l151 -21q-30 -75 -92 -118t-140 -43q-104 0 -152 68t-27 188q21 118 90 186t168 68q100 0 145 -68.5t25 -179.5l-8 -50h-268zM235 290h107q4 27 -8.5 44.5t-36.5 17.5q-45 0 -62 -62z" />
    <glyph glyph-name="uni1EBE" unicode="&#x1ebe;" horiz-adv-x="527" 
d="M737 990l-118 -177h-81l74 177h125zM382 772l-57 -64h-117l123 136h154l75 -136h-117l-35 64l-3 21h-12zM153 654h466l-26 -147h-309l-19 -107h280l-26 -147h-280l-18 -106h309l-26 -147h-466z" />
    <glyph glyph-name="uni1EBF" unicode="&#x1ebf;" 
d="M682 807l-118 -177h-81l74 177h125zM327 589l-57 -64h-117l123 136h154l75 -136h-117l-35 64l-3 21h-12zM215 188q-4 -37 9 -57t42 -20q20 0 35 12.5t22 34.5l151 -21q-30 -75 -92 -118t-140 -43q-104 0 -152 68t-27 188q21 118 90 186t168 68q100 0 145 -68.5t25 -179.5
l-8 -50h-268zM235 290h107q4 27 -8.5 44.5t-36.5 17.5q-45 0 -62 -62z" />
    <glyph glyph-name="uni1EC0" unicode="&#x1ec0;" horiz-adv-x="527" 
d="M494 990h125l12 -177h-81zM382 772l-57 -64h-117l123 136h154l75 -136h-117l-35 64l-3 21h-12zM153 654h466l-26 -147h-309l-19 -107h280l-26 -147h-280l-18 -106h309l-26 -147h-466z" />
    <glyph glyph-name="uni1EC1" unicode="&#x1ec1;" 
d="M439 807h125l12 -177h-81zM327 589l-57 -64h-117l123 136h154l75 -136h-117l-35 64l-3 21h-12zM215 188q-4 -37 9 -57t42 -20q20 0 35 12.5t22 34.5l151 -21q-30 -75 -92 -118t-140 -43q-104 0 -152 68t-27 188q21 118 90 186t168 68q100 0 145 -68.5t25 -179.5l-8 -50
h-268zM235 290h107q4 27 -8.5 44.5t-36.5 17.5q-45 0 -62 -62z" />
    <glyph glyph-name="uni1EC2" unicode="&#x1ec2;" horiz-adv-x="527" 
d="M587 912q2 12 -7 12t-17 -21l-72 23q14 40 44.5 61t59.5 21q36 0 56.5 -27.5t13.5 -67.5q-3 -18 -13.5 -35.5t-19 -27.5t-26 -26.5t-21.5 -20.5l-41 56q40 36 43 53zM382 772l-57 -64h-117l123 136h154l75 -136h-117l-35 64l-3 21h-12zM153 654h466l-26 -147h-309
l-19 -107h280l-26 -147h-280l-18 -106h309l-26 -147h-466z" />
    <glyph glyph-name="uni1EC3" unicode="&#x1ec3;" 
d="M532 729q2 12 -7 12t-17 -21l-72 23q14 40 44.5 61t59.5 21q36 0 56.5 -27.5t13.5 -67.5q-3 -18 -13.5 -35.5t-19 -27.5t-26 -26.5t-21.5 -20.5l-41 56q40 36 43 53zM327 589l-57 -64h-117l123 136h154l75 -136h-117l-35 64l-3 21h-12zM215 188q-4 -37 9 -57t42 -20
q20 0 35 12.5t22 34.5l151 -21q-30 -75 -92 -118t-140 -43q-104 0 -152 68t-27 188q21 118 90 186t168 68q100 0 145 -68.5t25 -179.5l-8 -50h-268zM235 290h107q4 27 -8.5 44.5t-36.5 17.5q-45 0 -62 -62z" />
    <glyph glyph-name="uni1EC4" unicode="&#x1ec4;" horiz-adv-x="527" 
d="M473 1014q-9 -55 -19 -55t-18.5 5.5t-11.5 9.5t-11 16q-7 11 -13 17t-19 11.5t-30 5.5q-47 0 -77.5 -33.5t-41.5 -95.5l78 -8q10 59 25 59q6 0 11.5 -2t10 -6.5l7.5 -7.5t8 -10.5l7 -10.5q24 -29 62 -29q89 0 111 127zM381 772l-57 -64h-117l123 136h154l75 -136h-117
l-35 64l-3 21h-12zM153 654h466l-26 -147h-309l-19 -107h280l-26 -147h-280l-18 -106h309l-26 -147h-466z" />
    <glyph glyph-name="uni1EC5" unicode="&#x1ec5;" 
d="M413 821q-9 -55 -19 -55t-18.5 5.5t-11.5 9.5t-11 16q-7 11 -13 17t-19 11.5t-30 5.5q-47 0 -77.5 -33.5t-41.5 -95.5l78 -8q10 59 25 59q6 0 11.5 -2t10 -6.5l7.5 -7.5t8 -10.5l7 -10.5q24 -29 62 -29q89 0 111 127zM326 589l-57 -64h-117l123 136h154l75 -136h-117
l-35 64l-3 21h-12zM215 188q-4 -37 9 -57t42 -20q20 0 35 12.5t22 34.5l151 -21q-30 -75 -92 -118t-140 -43q-104 0 -152 68t-27 188q21 118 90 186t168 68q100 0 145 -68.5t25 -179.5l-8 -50h-268zM235 290h107q4 27 -8.5 44.5t-36.5 17.5q-45 0 -62 -62z" />
    <glyph glyph-name="uni1EC6" unicode="&#x1ec6;" horiz-adv-x="527" 
d="M363 804l-57 -64h-117l123 136h154l75 -136h-117l-35 64l-3 21h-12zM177 -154q7 36 37.5 62t66.5 26t57.5 -26t14.5 -62q-6 -36 -37 -62.5t-66.5 -26.5t-57 26.5t-15.5 62.5zM153 654h466l-26 -147h-309l-19 -107h280l-26 -147h-280l-18 -106h309l-26 -147h-466z" />
    <glyph glyph-name="uni1EC7" unicode="&#x1ec7;" 
d="M327 610l-57 -64h-117l123 136h154l75 -136h-117l-35 64l-3 21h-12zM131 -154q7 36 37.5 62t66.5 26t57.5 -26t14.5 -62q-6 -36 -37 -62.5t-66.5 -26.5t-57 26.5t-15.5 62.5zM215 188q-4 -37 9 -57t42 -20q20 0 35 12.5t22 34.5l151 -21q-30 -75 -92 -118t-140 -43
q-104 0 -152 68t-27 188q21 118 90 186t168 68q100 0 145 -68.5t25 -179.5l-8 -50h-268zM235 290h107q4 27 -8.5 44.5t-36.5 17.5q-45 0 -62 -62z" />
    <glyph glyph-name="uni1EC8" unicode="&#x1ec8;" horiz-adv-x="231" 
d="M236 799q2 12 -8 12q-8 0 -17 -21l-72 23q15 40 45 61t60 21q36 0 56.5 -27.5t13.5 -67.5q-3 -18 -13.5 -35.5t-19 -27.5t-26 -26.5t-21.5 -20.5l-41 56q40 36 43 53zM153 655h157l-115 -655h-157z" />
    <glyph glyph-name="uni1EC9" unicode="&#x1ec9;" horiz-adv-x="230" 
d="M235 616q2 12 -8 12q-8 0 -17 -21l-72 23q15 40 45 61t60 21q36 0 56.5 -27.5t13.5 -67.5q-3 -18 -13.5 -35.5t-19 -27.5t-26 -26.5t-21.5 -20.5l-41 56q40 36 43 53zM119 460h157l-81 -460h-157z" />
    <glyph glyph-name="uni1ECA" unicode="&#x1eca;" horiz-adv-x="231" 
d="M2 -154q7 36 37.5 62t66.5 26t57.5 -26t14.5 -62q-6 -36 -37 -62.5t-66.5 -26.5t-57 26.5t-15.5 62.5zM153 655h157l-115 -655h-157z" />
    <glyph glyph-name="uni1ECB" unicode="&#x1ecb;" horiz-adv-x="230" 
d="M4 -154q7 36 37.5 62t66.5 26t57.5 -26t14.5 -62q-6 -36 -37 -62.5t-66.5 -26.5t-57 26.5t-15.5 62.5zM131 588q6 36 36.5 62t66.5 26t57.5 -26t15.5 -62t-37 -62.5t-67 -26.5t-57 26.5t-15 62.5zM119 460h157l-81 -460h-157z" />
    <glyph glyph-name="uni1ECC" unicode="&#x1ecc;" horiz-adv-x="597" 
d="M185 -154q7 36 37.5 62t66.5 26t57.5 -26t14.5 -62q-6 -36 -37 -62.5t-66.5 -26.5t-57 26.5t-15.5 62.5zM238 327q-16 -93 6 -144.5t78 -51.5t96.5 51.5t56.5 144.5q17 93 -5 146t-78 53t-96.5 -53t-57.5 -146zM80 327q29 165 120.5 259t218.5 94q119 0 181 -95.5
t33 -257.5q-29 -166 -120 -258.5t-218 -92.5t-185.5 92.5t-29.5 258.5z" />
    <glyph glyph-name="uni1ECD" unicode="&#x1ecd;" 
d="M122 -154q7 36 37.5 62t66.5 26t57.5 -26t14.5 -62q-6 -36 -37 -62.5t-66.5 -26.5t-57 26.5t-15.5 62.5zM221 232q-10 -59 -1 -90t35 -31t46.5 31.5t30.5 89.5t1 89t-36 31q-25 0 -45.5 -31t-30.5 -89zM63 232q22 121 91 187.5t167 66.5q92 0 141 -67.5t28 -186.5
q-21 -121 -91 -188.5t-168 -67.5t-143.5 67t-24.5 189z" />
    <glyph glyph-name="uni1ECE" unicode="&#x1ece;" horiz-adv-x="597" 
d="M415 799q2 12 -8 12q-8 0 -17 -21l-72 23q15 40 45 61t60 21q36 0 56.5 -27.5t13.5 -67.5q-3 -18 -13.5 -35.5t-19 -27.5t-26 -26.5t-21.5 -20.5l-41 56q40 36 43 53zM238 327q-16 -93 6 -144.5t78 -51.5t96.5 51.5t56.5 144.5q17 93 -5 146t-78 53t-96.5 -53t-57.5 -146
zM80 327q29 165 120.5 259t218.5 94q119 0 181 -95.5t33 -257.5q-29 -166 -120 -258.5t-218 -92.5t-185.5 92.5t-29.5 258.5z" />
    <glyph glyph-name="uni1ECF" unicode="&#x1ecf;" 
d="M352 616q2 12 -8 12q-8 0 -17 -21l-72 23q15 40 45 61t60 21q36 0 56.5 -27.5t13.5 -67.5q-3 -18 -13.5 -35.5t-19 -27.5t-26 -26.5t-21.5 -20.5l-41 56q40 36 43 53zM221 232q-10 -59 -1 -90t35 -31t46.5 31.5t30.5 89.5t1 89t-36 31q-25 0 -45.5 -31t-30.5 -89zM63 232
q22 121 91 187.5t167 66.5q92 0 141 -67.5t28 -186.5q-21 -121 -91 -188.5t-168 -67.5t-143.5 67t-24.5 189z" />
    <glyph glyph-name="uni1ED0" unicode="&#x1ed0;" horiz-adv-x="597" 
d="M745 990l-118 -177h-81l74 177h125zM390 772l-57 -64h-117l123 136h154l75 -136h-117l-35 64l-3 21h-12zM238 327q-16 -93 6 -144.5t78 -51.5t96.5 51.5t56.5 144.5q17 93 -5 146t-78 53t-96.5 -53t-57.5 -146zM80 327q29 165 120.5 259t218.5 94q119 0 181 -95.5
t33 -257.5q-29 -166 -120 -258.5t-218 -92.5t-185.5 92.5t-29.5 258.5z" />
    <glyph glyph-name="uni1ED1" unicode="&#x1ed1;" 
d="M682 807l-118 -177h-81l74 177h125zM327 589l-57 -64h-117l123 136h154l75 -136h-117l-35 64l-3 21h-12zM221 232q-10 -59 -1 -90t35 -31t46.5 31.5t30.5 89.5t1 89t-36 31q-25 0 -45.5 -31t-30.5 -89zM63 232q22 121 91 187.5t167 66.5q92 0 141 -67.5t28 -186.5
q-21 -121 -91 -188.5t-168 -67.5t-143.5 67t-24.5 189z" />
    <glyph glyph-name="uni1ED2" unicode="&#x1ed2;" horiz-adv-x="597" 
d="M502 990h125l12 -177h-81zM390 772l-57 -64h-117l123 136h154l75 -136h-117l-35 64l-3 21h-12zM238 327q-16 -93 6 -144.5t78 -51.5t96.5 51.5t56.5 144.5q17 93 -5 146t-78 53t-96.5 -53t-57.5 -146zM80 327q29 165 120.5 259t218.5 94q119 0 181 -95.5t33 -257.5
q-29 -166 -120 -258.5t-218 -92.5t-185.5 92.5t-29.5 258.5z" />
    <glyph glyph-name="uni1ED3" unicode="&#x1ed3;" 
d="M439 807h125l12 -177h-81zM327 589l-57 -64h-117l123 136h154l75 -136h-117l-35 64l-3 21h-12zM221 232q-10 -59 -1 -90t35 -31t46.5 31.5t30.5 89.5t1 89t-36 31q-25 0 -45.5 -31t-30.5 -89zM63 232q22 121 91 187.5t167 66.5q92 0 141 -67.5t28 -186.5
q-21 -121 -91 -188.5t-168 -67.5t-143.5 67t-24.5 189z" />
    <glyph glyph-name="uni1ED4" unicode="&#x1ed4;" horiz-adv-x="597" 
d="M595 912q2 12 -7 12t-17 -21l-72 23q14 40 44.5 61t59.5 21q36 0 56.5 -27.5t13.5 -67.5q-3 -18 -13.5 -35.5t-19 -27.5t-26 -26.5t-21.5 -20.5l-41 56q40 36 43 53zM390 772l-57 -64h-117l123 136h154l75 -136h-117l-35 64l-3 21h-12zM238 327q-16 -93 6 -144.5
t78 -51.5t96.5 51.5t56.5 144.5q17 93 -5 146t-78 53t-96.5 -53t-57.5 -146zM80 327q29 165 120.5 259t218.5 94q119 0 181 -95.5t33 -257.5q-29 -166 -120 -258.5t-218 -92.5t-185.5 92.5t-29.5 258.5z" />
    <glyph glyph-name="uni1ED5" unicode="&#x1ed5;" 
d="M532 729q2 12 -7 12t-17 -21l-72 23q14 40 44.5 61t59.5 21q36 0 56.5 -27.5t13.5 -67.5q-3 -18 -13.5 -35.5t-19 -27.5t-26 -26.5t-21.5 -20.5l-41 56q40 36 43 53zM327 589l-57 -64h-117l123 136h154l75 -136h-117l-35 64l-3 21h-12zM221 232q-10 -59 -1 -90t35 -31
t46.5 31.5t30.5 89.5t1 89t-36 31q-25 0 -45.5 -31t-30.5 -89zM63 232q22 121 91 187.5t167 66.5q92 0 141 -67.5t28 -186.5q-21 -121 -91 -188.5t-168 -67.5t-143.5 67t-24.5 189z" />
    <glyph glyph-name="uni1ED6" unicode="&#x1ed6;" horiz-adv-x="597" 
d="M456 1014q-9 -55 -19 -55t-18.5 5.5t-11.5 9.5t-11 16q-7 11 -13 17t-19 11.5t-30 5.5q-47 0 -77.5 -33.5t-41.5 -95.5l78 -8q10 59 25 59q6 0 11.5 -2t10 -6.5l7.5 -7.5t8 -10.5l7 -10.5q24 -29 62 -29q89 0 111 127zM390 772l-57 -64h-117l123 136h154l75 -136h-117
l-35 64l-3 21h-12zM238 327q-16 -93 6 -144.5t78 -51.5t96.5 51.5t56.5 144.5q17 93 -5 146t-78 53t-96.5 -53t-57.5 -146zM80 327q29 165 120.5 259t218.5 94q119 0 181 -95.5t33 -257.5q-29 -166 -120 -258.5t-218 -92.5t-185.5 92.5t-29.5 258.5z" />
    <glyph glyph-name="uni1ED7" unicode="&#x1ed7;" 
d="M413 821q-9 -55 -19 -55t-18.5 5.5t-11.5 9.5t-11 16q-7 11 -13 17t-19 11.5t-30 5.5q-47 0 -77.5 -33.5t-41.5 -95.5l78 -8q10 59 25 59q6 0 11.5 -2t10 -6.5l7.5 -7.5t8 -10.5l7 -10.5q24 -29 62 -29q89 0 111 127zM326 589l-57 -64h-117l123 136h154l75 -136h-117
l-35 64l-3 21h-12zM221 232q-10 -59 -1 -90t35 -31t46.5 31.5t30.5 89.5t1 89t-36 31q-25 0 -45.5 -31t-30.5 -89zM63 232q22 121 91 187.5t167 66.5q92 0 141 -67.5t28 -186.5q-21 -121 -91 -188.5t-168 -67.5t-143.5 67t-24.5 189z" />
    <glyph glyph-name="uni1ED8" unicode="&#x1ed8;" horiz-adv-x="597" 
d="M391 804l-57 -64h-117l123 136h154l75 -136h-117l-35 64l-3 21h-12zM185 -154q7 36 37.5 62t66.5 26t57.5 -26t14.5 -62q-6 -36 -37 -62.5t-66.5 -26.5t-57 26.5t-15.5 62.5zM238 327q-16 -93 6 -144.5t78 -51.5t96.5 51.5t56.5 144.5q17 93 -5 146t-78 53t-96.5 -53
t-57.5 -146zM80 327q29 165 120.5 259t218.5 94q119 0 181 -95.5t33 -257.5q-29 -166 -120 -258.5t-218 -92.5t-185.5 92.5t-29.5 258.5z" />
    <glyph glyph-name="uni1ED9" unicode="&#x1ed9;" 
d="M327 610l-57 -64h-117l123 136h154l75 -136h-117l-35 64l-3 21h-12zM122 -154q7 36 37.5 62t66.5 26t57.5 -26t14.5 -62q-6 -36 -37 -62.5t-66.5 -26.5t-57 26.5t-15.5 62.5zM221 232q-10 -59 -1 -90t35 -31t46.5 31.5t30.5 89.5t1 89t-36 31q-25 0 -45.5 -31t-30.5 -89z
M63 232q22 121 91 187.5t167 66.5q92 0 141 -67.5t28 -186.5q-21 -121 -91 -188.5t-168 -67.5t-143.5 67t-24.5 189z" />
    <glyph glyph-name="uni1EDA" unicode="&#x1eda;" horiz-adv-x="597" 
d="M489 926l-118 -177h-81l74 177h125zM532 802l136 -30q-16 -90 -89 -164.5t-154 -74.5l18 120q29 0 53.5 44.5t35.5 104.5zM238 327q-16 -93 6 -144.5t78 -51.5t96.5 51.5t56.5 144.5q17 93 -5 146t-78 53t-96.5 -53t-57.5 -146zM80 327q29 165 120.5 259t218.5 94
q119 0 181 -95.5t33 -257.5q-29 -166 -120 -258.5t-218 -92.5t-185.5 92.5t-29.5 258.5z" />
    <glyph glyph-name="uni1EDB" unicode="&#x1edb;" 
d="M448 723l-118 -177h-81l74 177h125zM467 609l136 -30q-16 -90 -89 -164.5t-154 -74.5l18 120q29 0 53.5 44.5t35.5 104.5zM221 232q-10 -59 -1 -90t35 -31t46.5 31.5t30.5 89.5t1 89t-36 31q-25 0 -45.5 -31t-30.5 -89zM63 232q22 121 91 187.5t167 66.5q92 0 141 -67.5
t28 -186.5q-21 -121 -91 -188.5t-168 -67.5t-143.5 67t-24.5 189z" />
    <glyph glyph-name="uni1EDC" unicode="&#x1edc;" horiz-adv-x="597" 
d="M236 926h125l12 -177h-81zM532 802l136 -30q-16 -90 -89 -164.5t-154 -74.5l18 120q29 0 53.5 44.5t35.5 104.5zM238 327q-16 -93 6 -144.5t78 -51.5t96.5 51.5t56.5 144.5q17 93 -5 146t-78 53t-96.5 -53t-57.5 -146zM80 327q29 165 120.5 259t218.5 94q119 0 181 -95.5
t33 -257.5q-29 -166 -120 -258.5t-218 -92.5t-185.5 92.5t-29.5 258.5z" />
    <glyph glyph-name="uni1EDD" unicode="&#x1edd;" 
d="M195 723h125l12 -177h-81zM467 609l136 -30q-16 -90 -89 -164.5t-154 -74.5l18 120q29 0 53.5 44.5t35.5 104.5zM221 232q-10 -59 -1 -90t35 -31t46.5 31.5t30.5 89.5t1 89t-36 31q-25 0 -45.5 -31t-30.5 -89zM63 232q22 121 91 187.5t167 66.5q92 0 141 -67.5t28 -186.5
q-21 -121 -91 -188.5t-168 -67.5t-143.5 67t-24.5 189z" />
    <glyph glyph-name="uni1EDE" unicode="&#x1ede;" horiz-adv-x="597" 
d="M355 839q2 12 -8 12q-8 0 -17 -21l-72 23q15 40 45 61t60 21q36 0 56.5 -27.5t13.5 -67.5q-3 -18 -13.5 -35.5t-19 -27.5t-26 -26.5t-21.5 -20.5l-41 56q40 36 43 53zM532 802l136 -30q-16 -90 -89 -164.5t-154 -74.5l18 120q29 0 53.5 44.5t35.5 104.5zM238 327
q-16 -93 6 -144.5t78 -51.5t96.5 51.5t56.5 144.5q17 93 -5 146t-78 53t-96.5 -53t-57.5 -146zM80 327q29 165 120.5 259t218.5 94q119 0 181 -95.5t33 -257.5q-29 -166 -120 -258.5t-218 -92.5t-185.5 92.5t-29.5 258.5z" />
    <glyph glyph-name="uni1EDF" unicode="&#x1edf;" 
d="M313 636q2 12 -8 12q-8 0 -17 -21l-72 23q15 40 45 61t60 21q36 0 56.5 -27.5t13.5 -67.5q-3 -18 -13.5 -35.5t-19 -27.5t-26 -26.5t-21.5 -20.5l-41 56q40 36 43 53zM467 609l136 -30q-16 -90 -89 -164.5t-154 -74.5l18 120q29 0 53.5 44.5t35.5 104.5zM221 232
q-10 -59 -1 -90t35 -31t46.5 31.5t30.5 89.5t1 89t-36 31q-25 0 -45.5 -31t-30.5 -89zM63 232q22 121 91 187.5t167 66.5q92 0 141 -67.5t28 -186.5q-21 -121 -91 -188.5t-168 -67.5t-143.5 67t-24.5 189z" />
    <glyph glyph-name="uni1EE0" unicode="&#x1ee0;" horiz-adv-x="597" 
d="M425 872q-9 -55 -19 -55t-18.5 5.5t-11.5 9.5t-11 16q-7 11 -13 17t-19 11.5t-30 5.5q-47 0 -77.5 -33.5t-41.5 -95.5l78 -8q10 59 25 59q6 0 11.5 -2t10 -6.5l7.5 -7.5t8 -10.5l7 -10.5q24 -29 62 -29q89 0 111 127zM532 802l136 -30q-16 -90 -89 -164.5t-154 -74.5
l18 120q29 0 53.5 44.5t35.5 104.5zM238 327q-16 -93 6 -144.5t78 -51.5t96.5 51.5t56.5 144.5q17 93 -5 146t-78 53t-96.5 -53t-57.5 -146zM80 327q29 165 120.5 259t218.5 94q119 0 181 -95.5t33 -257.5q-29 -166 -120 -258.5t-218 -92.5t-185.5 92.5t-29.5 258.5z" />
    <glyph glyph-name="uni1EE1" unicode="&#x1ee1;" 
d="M384 669q-9 -55 -19 -55t-18.5 5.5t-11.5 9.5t-11 16q-7 11 -13 17t-19 11.5t-30 5.5q-47 0 -77.5 -33.5t-41.5 -95.5l78 -8q10 59 25 59q6 0 11.5 -2t10 -6.5l7.5 -7.5t8 -10.5l7 -10.5q24 -29 62 -29q89 0 111 127zM467 609l136 -30q-16 -90 -89 -164.5t-154 -74.5
l18 120q29 0 53.5 44.5t35.5 104.5zM221 232q-10 -59 -1 -90t35 -31t46.5 31.5t30.5 89.5t1 89t-36 31q-25 0 -45.5 -31t-30.5 -89zM63 232q22 121 91 187.5t167 66.5q92 0 141 -67.5t28 -186.5q-21 -121 -91 -188.5t-168 -67.5t-143.5 67t-24.5 189z" />
    <glyph glyph-name="uni1EE2" unicode="&#x1ee2;" horiz-adv-x="597" 
d="M195 -154q7 36 37.5 62t66.5 26t57.5 -26t14.5 -62q-6 -36 -37 -62.5t-66.5 -26.5t-57 26.5t-15.5 62.5zM532 802l136 -30q-16 -90 -89 -164.5t-154 -74.5l18 120q29 0 53.5 44.5t35.5 104.5zM238 327q-16 -93 6 -144.5t78 -51.5t96.5 51.5t56.5 144.5q17 93 -5 146
t-78 53t-96.5 -53t-57.5 -146zM80 327q29 165 120.5 259t218.5 94q119 0 181 -95.5t33 -257.5q-29 -166 -120 -258.5t-218 -92.5t-185.5 92.5t-29.5 258.5z" />
    <glyph glyph-name="uni1EE3" unicode="&#x1ee3;" 
d="M122 -154q7 36 37.5 62t66.5 26t57.5 -26t14.5 -62q-6 -36 -37 -62.5t-66.5 -26.5t-57 26.5t-15.5 62.5zM467 609l136 -30q-16 -90 -89 -164.5t-154 -74.5l18 120q29 0 53.5 44.5t35.5 104.5zM221 232q-10 -59 -1 -90t35 -31t46.5 31.5t30.5 89.5t1 89t-36 31
q-25 0 -45.5 -31t-30.5 -89zM63 232q22 121 91 187.5t167 66.5q92 0 141 -67.5t28 -186.5q-21 -121 -91 -188.5t-168 -67.5t-143.5 67t-24.5 189z" />
    <glyph glyph-name="uni1EE4" unicode="&#x1ee4;" horiz-adv-x="561" 
d="M169 -154q7 36 37.5 62t66.5 26t57.5 -26t14.5 -62q-6 -36 -37 -62.5t-66.5 -26.5t-57 26.5t-15.5 62.5zM310 654l-76 -429q-8 -47 10.5 -72.5t60.5 -25.5q41 0 67 25.5t34 72.5l76 429h158l-77 -440q-19 -103 -98.5 -169t-185.5 -66q-110 0 -166 65t-37 170l77 440h157z
" />
    <glyph glyph-name="uni1EE5" unicode="&#x1ee5;" horiz-adv-x="474" 
d="M130 -154q7 36 37.5 62t66.5 26t57.5 -26t14.5 -62q-6 -36 -37 -62.5t-66.5 -26.5t-57 26.5t-15.5 62.5zM226 173q-6 -33 2.5 -53.5t27 -20.5t34.5 21.5t22 54.5h21q-14 -79 -63 -139t-107 -60q-55 0 -82.5 54t-14.5 132l53 298h158zM438 0h-157l56 117l-33 13l58 330
h157z" />
    <glyph glyph-name="uni1EE6" unicode="&#x1ee6;" horiz-adv-x="561" 
d="M401 799q2 12 -8 12q-8 0 -17 -21l-72 23q15 40 45 61t60 21q36 0 56.5 -27.5t13.5 -67.5q-3 -18 -13.5 -35.5t-19 -27.5t-26 -26.5t-21.5 -20.5l-41 56q40 36 43 53zM310 654l-76 -429q-8 -47 10.5 -72.5t60.5 -25.5q41 0 67 25.5t34 72.5l76 429h158l-77 -440
q-19 -103 -98.5 -169t-185.5 -66q-110 0 -166 65t-37 170l77 440h157z" />
    <glyph glyph-name="uni1EE7" unicode="&#x1ee7;" horiz-adv-x="474" 
d="M356 616q2 12 -8 12q-8 0 -17 -21l-72 23q15 40 45 61t60 21q36 0 56.5 -27.5t13.5 -67.5q-3 -18 -13.5 -35.5t-19 -27.5t-26 -26.5t-21.5 -20.5l-41 56q40 36 43 53zM226 173q-6 -33 2.5 -53.5t27 -20.5t34.5 21.5t22 54.5h21q-14 -79 -63 -139t-107 -60q-55 0 -82.5 54
t-14.5 132l53 298h158zM438 0h-157l56 117l-33 13l58 330h157z" />
    <glyph glyph-name="uni1EE8" unicode="&#x1ee8;" horiz-adv-x="561" 
d="M508 886l-118 -177h-81l74 177h125zM609 802l136 -30q-16 -90 -89 -164.5t-154 -74.5l18 120q29 0 53.5 44.5t35.5 104.5zM310 654l-76 -429q-8 -47 10.5 -72.5t60.5 -25.5q41 0 67 25.5t34 72.5l76 429h158l-77 -440q-19 -103 -98.5 -169t-185.5 -66q-110 0 -166 65
t-37 170l77 440h157z" />
    <glyph glyph-name="uni1EE9" unicode="&#x1ee9;" horiz-adv-x="474" 
d="M456 703l-118 -177h-81l74 177h125zM471 609l136 -30q-16 -90 -89 -164.5t-154 -74.5l18 120q29 0 53.5 44.5t35.5 104.5zM226 173q-6 -33 2.5 -53.5t27 -20.5t34.5 21.5t22 54.5h21q-14 -79 -63 -139t-107 -60q-55 0 -82.5 54t-14.5 132l53 298h158zM438 0h-157l56 117
l-33 13l58 330h157z" />
    <glyph glyph-name="uni1EEA" unicode="&#x1eea;" horiz-adv-x="561" 
d="M255 886h125l12 -177h-81zM609 802l136 -30q-16 -90 -89 -164.5t-154 -74.5l18 120q29 0 53.5 44.5t35.5 104.5zM310 654l-76 -429q-8 -47 10.5 -72.5t60.5 -25.5q41 0 67 25.5t34 72.5l76 429h158l-77 -440q-19 -103 -98.5 -169t-185.5 -66q-110 0 -166 65t-37 170
l77 440h157z" />
    <glyph glyph-name="uni1EEB" unicode="&#x1eeb;" horiz-adv-x="474" 
d="M203 703h125l12 -177h-81zM471 609l136 -30q-16 -90 -89 -164.5t-154 -74.5l18 120q29 0 53.5 44.5t35.5 104.5zM226 173q-6 -33 2.5 -53.5t27 -20.5t34.5 21.5t22 54.5h21q-14 -79 -63 -139t-107 -60q-55 0 -82.5 54t-14.5 132l53 298h158zM438 0h-157l56 117l-33 13
l58 330h157z" />
    <glyph glyph-name="uni1EEC" unicode="&#x1eec;" horiz-adv-x="561" 
d="M373 799q2 12 -8 12q-8 0 -17 -21l-72 23q15 40 45 61t60 21q36 0 56.5 -27.5t13.5 -67.5q-3 -18 -13.5 -35.5t-19 -27.5t-26 -26.5t-21.5 -20.5l-41 56q40 36 43 53zM609 802l136 -30q-16 -90 -89 -164.5t-154 -74.5l18 120q29 0 53.5 44.5t35.5 104.5zM310 654
l-76 -429q-8 -47 10.5 -72.5t60.5 -25.5q41 0 67 25.5t34 72.5l76 429h158l-77 -440q-19 -103 -98.5 -169t-185.5 -66q-110 0 -166 65t-37 170l77 440h157z" />
    <glyph glyph-name="uni1EED" unicode="&#x1eed;" horiz-adv-x="474" 
d="M321 616q2 12 -8 12q-8 0 -17 -21l-72 23q15 40 45 61t60 21q36 0 56.5 -27.5t13.5 -67.5q-3 -18 -13.5 -35.5t-19 -27.5t-26 -26.5t-21.5 -20.5l-41 56q40 36 43 53zM471 609l136 -30q-16 -90 -89 -164.5t-154 -74.5l18 120q29 0 53.5 44.5t35.5 104.5zM226 173
q-6 -33 2.5 -53.5t27 -20.5t34.5 21.5t22 54.5h21q-14 -79 -63 -139t-107 -60q-55 0 -82.5 54t-14.5 132l53 298h158zM438 0h-157l56 117l-33 13l58 330h157z" />
    <glyph glyph-name="uni1EEE" unicode="&#x1eee;" horiz-adv-x="561" 
d="M443 832q-9 -55 -19 -55t-18.5 5.5t-11.5 9.5t-11 16q-7 11 -13 17t-19 11.5t-30 5.5q-47 0 -77.5 -33.5t-41.5 -95.5l78 -8q10 59 25 59q6 0 11.5 -2t10 -6.5l7.5 -7.5t8 -10.5l7 -10.5q24 -29 62 -29q89 0 111 127zM609 802l136 -30q-16 -90 -89 -164.5t-154 -74.5
l18 120q29 0 53.5 44.5t35.5 104.5zM310 654l-76 -429q-8 -47 10.5 -72.5t60.5 -25.5q41 0 67 25.5t34 72.5l76 429h158l-77 -440q-19 -103 -98.5 -169t-185.5 -66q-110 0 -166 65t-37 170l77 440h157z" />
    <glyph glyph-name="uni1EEF" unicode="&#x1eef;" horiz-adv-x="474" 
d="M391 649q-9 -55 -19 -55t-18.5 5.5t-11.5 9.5t-11 16q-7 11 -13 17t-19 11.5t-30 5.5q-47 0 -77.5 -33.5t-41.5 -95.5l78 -8q10 59 25 59q6 0 11.5 -2t10 -6.5l7.5 -7.5t8 -10.5l7 -10.5q24 -29 62 -29q89 0 111 127zM471 609l136 -30q-16 -90 -89 -164.5t-154 -74.5
l18 120q29 0 53.5 44.5t35.5 104.5zM226 173q-6 -33 2.5 -53.5t27 -20.5t34.5 21.5t22 54.5h21q-14 -79 -63 -139t-107 -60q-55 0 -82.5 54t-14.5 132l53 298h158zM438 0h-157l56 117l-33 13l58 330h157z" />
    <glyph glyph-name="uni1EF0" unicode="&#x1ef0;" horiz-adv-x="561" 
d="M179 -154q7 36 37.5 62t66.5 26t57.5 -26t14.5 -62q-6 -36 -37 -62.5t-66.5 -26.5t-57 26.5t-15.5 62.5zM609 802l136 -30q-16 -90 -89 -164.5t-154 -74.5l18 120q29 0 53.5 44.5t35.5 104.5zM310 654l-76 -429q-8 -47 10.5 -72.5t60.5 -25.5q41 0 67 25.5t34 72.5
l76 429h158l-77 -440q-19 -103 -98.5 -169t-185.5 -66q-110 0 -166 65t-37 170l77 440h157z" />
    <glyph glyph-name="uni1EF1" unicode="&#x1ef1;" horiz-adv-x="474" 
d="M131 -154q7 36 37.5 62t66.5 26t57.5 -26t14.5 -62q-6 -36 -37 -62.5t-66.5 -26.5t-57 26.5t-15.5 62.5zM471 609l136 -30q-16 -90 -89 -164.5t-154 -74.5l18 120q29 0 53.5 44.5t35.5 104.5zM226 173q-6 -33 2.5 -53.5t27 -20.5t34.5 21.5t22 54.5h21q-14 -79 -63 -139
t-107 -60q-55 0 -82.5 54t-14.5 132l53 298h158zM438 0h-157l56 117l-33 13l58 330h157z" />
    <glyph glyph-name="Ygrave" unicode="&#x1ef2;" horiz-adv-x="608" 
d="M307 886h125l12 -177h-81zM443 263l267 391h-167l-147 -231l-18 -45h-13l-3 45l-64 231h-168l129 -391h14l-47 -263h158l47 263h12z" />
    <glyph glyph-name="ygrave" unicode="&#x1ef3;" horiz-adv-x="495" 
d="M243 703h125l12 -177h-81zM303 209l90 251h170l-253 -541q-27 -59 -74.5 -90t-98.5 -31h-123l24 139h66q29 0 40 29l14 34l-62 460h168l3 -251l2 -56h12z" />
    <glyph glyph-name="uni1EF4" unicode="&#x1ef4;" horiz-adv-x="608" 
d="M192 -148q7 36 37.5 62t66.5 26t57.5 -26t14.5 -62q-6 -36 -37 -62.5t-66.5 -26.5t-57 26.5t-15.5 62.5zM443 263l267 391h-167l-147 -231l-18 -45h-13l-3 45l-64 231h-168l129 -391h14l-47 -263h158l47 263h12z" />
    <glyph glyph-name="uni1EF5" unicode="&#x1ef5;" horiz-adv-x="495" 
d="M286 -154q7 36 37.5 62t66.5 26t57.5 -26t14.5 -62q-6 -36 -37 -62.5t-66.5 -26.5t-57 26.5t-15.5 62.5zM303 209l90 251h170l-253 -541q-27 -59 -74.5 -90t-98.5 -31h-123l24 139h66q29 0 40 29l14 34l-62 460h168l3 -251l2 -56h12z" />
    <glyph glyph-name="uni1EF6" unicode="&#x1ef6;" horiz-adv-x="608" 
d="M425 799q2 12 -8 12q-8 0 -17 -21l-72 23q15 40 45 61t60 21q36 0 56.5 -27.5t13.5 -67.5q-3 -18 -13.5 -35.5t-19 -27.5t-26 -26.5t-21.5 -20.5l-41 56q40 36 43 53zM443 263l267 391h-167l-147 -231l-18 -45h-13l-3 45l-64 231h-168l129 -391h14l-47 -263h158l47 263
h12z" />
    <glyph glyph-name="uni1EF7" unicode="&#x1ef7;" horiz-adv-x="495" 
d="M361 616q2 12 -8 12q-8 0 -17 -21l-72 23q15 40 45 61t60 21q36 0 56.5 -27.5t13.5 -67.5q-3 -18 -13.5 -35.5t-19 -27.5t-26 -26.5t-21.5 -20.5l-41 56q40 36 43 53zM303 209l90 251h170l-253 -541q-27 -59 -74.5 -90t-98.5 -31h-123l24 139h66q29 0 40 29l14 34
l-62 460h168l3 -251l2 -56h12z" />
    <glyph glyph-name="uni1EF8" unicode="&#x1ef8;" horiz-adv-x="608" 
d="M495 832q-9 -55 -19 -55t-18.5 5.5t-11.5 9.5t-11 16q-7 11 -13 17t-19 11.5t-30 5.5q-47 0 -77.5 -33.5t-41.5 -95.5l78 -8q10 59 25 59q6 0 11.5 -2t10 -6.5l7.5 -7.5t8 -10.5l7 -10.5q24 -29 62 -29q89 0 111 127zM443 263l267 391h-167l-147 -231l-18 -45h-13l-3 45
l-64 231h-168l129 -391h14l-47 -263h158l47 263h12z" />
    <glyph glyph-name="uni1EF9" unicode="&#x1ef9;" horiz-adv-x="495" 
d="M431 649q-9 -55 -19 -55t-18.5 5.5t-11.5 9.5t-11 16q-7 11 -13 17t-19 11.5t-30 5.5q-47 0 -77.5 -33.5t-41.5 -95.5l78 -8q10 59 25 59q6 0 11.5 -2t10 -6.5l7.5 -7.5t8 -10.5l7 -10.5q24 -29 62 -29q89 0 111 127zM303 209l90 251h170l-253 -541q-27 -59 -74.5 -90
t-98.5 -31h-123l24 139h66q29 0 40 29l14 34l-62 460h168l3 -251l2 -56h12z" />
    <glyph glyph-name="uni2010" unicode="&#x2010;" horiz-adv-x="258" 
d="M74 338h230l-22 -126h-230z" />
    <glyph glyph-name="endash" unicode="&#x2013;" horiz-adv-x="478" 
d="M74 338h450l-22 -126h-450z" />
    <glyph glyph-name="emdash" unicode="&#x2014;" horiz-adv-x="697" 
d="M74 338h669l-22 -126h-669z" />
    <glyph glyph-name="quoteleft" unicode="&#x2018;" horiz-adv-x="223" 
d="M271 512q-6 -33 -33 -56t-60.5 -23t-50 34.5t-7.5 84.5q18 104 68.5 149t119.5 45l-5 -82q-55 0 -93.5 -24t-54.5 -70q21 20 50 20q34 0 53 -22t13 -56z" />
    <glyph glyph-name="quoteright" unicode="&#x2019;" horiz-adv-x="223" 
d="M161 667q6 33 33 56t60 23t50 -34.5t8 -84.5q-18 -104 -68.5 -149t-119.5 -45l4 82q56 0 94.5 24t54.5 70q-21 -20 -51 -20q-33 0 -52 22t-13 56z" />
    <glyph glyph-name="quotesinglbase" unicode="&#x201a;" horiz-adv-x="231" 
d="M48 27q6 33 33 56t60 23t50 -34.5t8 -84.5q-18 -104 -68.5 -149t-119.5 -45l4 82q56 0 94.5 24t54.5 70q-21 -20 -51 -20q-33 0 -52 22t-13 56z" />
    <glyph glyph-name="quotereversed" unicode="&#x201b;" horiz-adv-x="223" 
d="M298 667q-6 -34 -32.5 -56t-60.5 -22q-29 0 -43 20q0 -46 29.5 -70t85.5 -24l-24 -82q-70 0 -104 45t-16 149q9 50 38 84.5t62 34.5t52 -23t13 -56z" />
    <glyph glyph-name="quotedblleft" unicode="&#x201c;" horiz-adv-x="393" 
d="M441 512q-6 -33 -33 -56t-60.5 -23t-50 34.5t-7.5 84.5q18 104 68.5 149t119.5 45l-5 -82q-55 0 -93.5 -24t-54.5 -70q21 20 50 20q34 0 53 -22t13 -56zM271 512q-6 -33 -33 -56t-60.5 -23t-50 34.5t-7.5 84.5q18 104 72.5 149t130.5 45l-5 -82q-62 0 -104 -24t-59 -70
q21 20 50 20q34 0 53 -22t13 -56z" />
    <glyph glyph-name="quotedblright" unicode="&#x201d;" horiz-adv-x="393" 
d="M161 667q6 33 33 56t60 23t50 -34.5t8 -84.5q-18 -104 -68.5 -149t-119.5 -45l4 82q56 0 94.5 24t54.5 70q-21 -20 -51 -20q-33 0 -52 22t-13 56zM331 667q6 33 33 56t60 23t50 -34.5t8 -84.5q-18 -104 -72.5 -149t-130.5 -45l4 82q63 0 105 24t59 70q-21 -20 -51 -20
q-33 0 -52 22t-13 56z" />
    <glyph glyph-name="quotedblbase" unicode="&#x201e;" horiz-adv-x="393" 
d="M223 55q6 33 33 56t60 23t50 -34.5t8 -84.5q-18 -104 -72.5 -149t-130.5 -45l4 82q63 0 105 24t59 70q-21 -20 -51 -20q-33 0 -52 22t-13 56zM53 55q6 33 33 56t60 23t50 -34.5t8 -84.5q-18 -104 -68.5 -149t-119.5 -45l4 82q56 0 94.5 24t54.5 70q-21 -20 -51 -20
q-33 0 -52 22t-13 56z" />
    <glyph glyph-name="uni201F" unicode="&#x201f;" horiz-adv-x="393" 
d="M468 667q-6 -34 -32.5 -56t-60.5 -22q-29 0 -43 20q0 -46 29.5 -70t85.5 -24l-24 -82q-70 0 -104 45t-16 149q9 50 38 84.5t62 34.5t52 -23t13 -56zM298 667q-6 -34 -32.5 -56t-60.5 -22q-29 0 -43 20q0 -46 34 -70t96 -24l-24 -82q-76 0 -114.5 45t-20.5 149
q9 50 38 84.5t62 34.5t52 -23t13 -56z" />
    <glyph glyph-name="dagger" unicode="&#x2020;" horiz-adv-x="298" 
d="M134 324h-61l24 136h61l25 146h147l-25 -146h62l-24 -136h-62l-60 -340h-147z" />
    <glyph glyph-name="daggerdbl" unicode="&#x2021;" horiz-adv-x="298" 
d="M158 460l25 146h147l-25 -146h62l-24 -136h-62l-11 -58h62l-24 -136h-62l-25 -146h-147l25 146h-61l24 136h61l11 58h-61l24 136h61z" />
    <glyph glyph-name="bullet" unicode="&#x2022;" horiz-adv-x="221" 
d="M150 219q36 0 66.5 27t37 63t-14.5 62t-57.5 26t-67.5 -26t-37 -62t15.5 -63t57.5 -27z" />
    <glyph glyph-name="uni2023" unicode="&#x2023;" horiz-adv-x="191" 
d="M94 408l130 -99l-165 -101z" />
    <glyph glyph-name="ellipsis" unicode="&#x2026;" horiz-adv-x="573" 
d="M42 72q6 33 32.5 56t60 23t52.5 -23t13 -56q-6 -34 -32.5 -56t-60.5 -22t-52.5 22t-12.5 56zM400 72q6 33 32.5 56t60 23t52.5 -23t13 -56q-6 -34 -32.5 -56t-60.5 -22t-52.5 22t-12.5 56zM286 -6q-34 0 -52.5 22t-12.5 56q6 33 32.5 56t60 23t52.5 -23t13 -56
q-6 -34 -32.5 -56t-60.5 -22z" />
    <glyph glyph-name="perthousand" unicode="&#x2030;" horiz-adv-x="1107" 
d="M915 149q-10 -53 30 -53q38 0 48 53q9 51 -30 51t-48 -51zM795 149q13 75 63.5 116.5t123.5 41.5q68 0 105.5 -42t24.5 -116q-14 -76 -63.5 -118t-122.5 -42t-109 42t-22 118zM566 149q-10 -53 30 -53q38 0 48 53q9 51 -30 51t-48 -51zM446 149q13 75 63.5 116.5
t123.5 41.5q68 0 105.5 -42t24.5 -116q-14 -76 -63.5 -118t-122.5 -42t-109 42t-22 118zM231 508q-10 -54 30 -54q38 0 48 54q9 49 -30 49t-48 -49zM112 508q13 75 63 116t123 41q68 0 106 -41.5t25 -115.5q-13 -76 -63.5 -118.5t-123.5 -42.5t-108 42.5t-22 118.5zM648 654
h170l-591 -654h-170z" />
    <glyph glyph-name="minute" unicode="&#x2032;" horiz-adv-x="218" 
d="M204 687h114l-123 -239h-94z" />
    <glyph glyph-name="second" unicode="&#x2033;" horiz-adv-x="348" 
d="M334 687h114l-123 -239h-94zM204 687h114l-123 -239h-94z" />
    <glyph glyph-name="uni2034" unicode="&#x2034;" horiz-adv-x="478" 
d="M204 687h114l-123 -239h-94zM464 687h114l-123 -239h-94zM231 448l103 239h114l-123 -239h-94z" />
    <glyph glyph-name="uni2035" unicode="&#x2035;" horiz-adv-x="218" 
d="M258 687h-114l37 -239h94z" />
    <glyph glyph-name="uni2036" unicode="&#x2036;" horiz-adv-x="348" 
d="M258 687h-114l37 -239h94zM388 687h-114l37 -239h94z" />
    <glyph glyph-name="uni2037" unicode="&#x2037;" horiz-adv-x="478" 
d="M518 687h-114l37 -239h94zM258 687h-114l37 -239h94zM405 448l-17 239h-114l37 -239h94z" />
    <glyph glyph-name="uni2070" unicode="&#x2070;" horiz-adv-x="293" 
d="M226 614q-11 -64 19 -64q29 0 40 64q11 65 -18 65q-30 0 -41 -65zM119 614q14 78 55.5 118.5t106.5 40.5q67 0 96 -43t15 -121q-13 -76 -55 -115t-109 -39q-68 0 -95.5 40.5t-13.5 118.5z" />
    <glyph glyph-name="uni2074" unicode="&#x2074;" horiz-adv-x="282" 
d="M283 741l-41 -115l-15 -22v-8h152l-15 -86h-263l18 107l76 163zM344 463h-108l54 306h108z" />
    <glyph glyph-name="uni2075" unicode="&#x2075;" horiz-adv-x="282" 
d="M115 590h105l7 40l-11 5l17 28l18 102l-105 4zM146 769l-2 -76h235l13 76h-246zM220 590q1 10 9 16.5t19 6.5q26 0 19 -37q-6 -33 -28 -33q-10 0 -16 9t-6 24l-111 -34q8 -38 40.5 -60.5t82.5 -22.5q57 0 97 31t49 82q7 44 -15 68.5t-67 24.5q-73 0 -86 -73z" />
    <glyph glyph-name="uni2076" unicode="&#x2076;" horiz-adv-x="282" 
d="M357 668q-27 23 -66 23q-47 0 -63 -47l-15 -29l13 -7q-3 -10 -7 -35l-105 14q17 98 59.5 143.5t118.5 45.5q69 0 103 -28zM219 573q-3 -15 2 -25t16 -10q24 0 29 33q3 15 -2.5 24t-17.5 9q-10 0 -17.5 -8.5t-9.5 -22.5zM114 587l100 3q6 35 31 57t59 22q38 0 58 -27.5
t13 -69.5q-10 -53 -49 -85.5t-94 -32.5q-62 0 -95 37.5t-23 95.5z" />
    <glyph glyph-name="uni2077" unicode="&#x2077;" horiz-adv-x="282" 
d="M116 463h123l149 187l21 119h-263l-15 -86h166l-2 -13l-34 -28z" />
    <glyph glyph-name="uni2078" unicode="&#x2078;" horiz-adv-x="282" 
d="M225 457q57 0 97 23t47 60q10 59 -49 90l1 5q57 18 64 56q6 37 -23 60t-81 23t-91.5 -23t-45.5 -59q-10 -57 47 -83l-1 -5q-77 -22 -84 -64q-7 -37 27 -60t92 -23zM266 690q12 0 8 -23q-3 -21 -5 -26q-24 8 -21 26q2 9 7.5 16t10.5 7zM268 569q-2 -12 -9.5 -20t-18.5 -8
t-16.5 8t-3.5 20q4 20 21 28q31 -8 27 -28z" />
    <glyph glyph-name="uni2079" unicode="&#x2079;" horiz-adv-x="282" 
d="M144 562q27 -23 67 -23q47 0 62 47l15 29l-13 7q3 10 8 35l104 -14q-17 -98 -59.5 -143.5t-117.5 -45.5q-69 0 -103 28zM283 657q2 15 -3 25t-15 10q-24 0 -30 -33q-3 -15 2.5 -24t17.5 -9q10 0 17.5 8.5t10.5 22.5zM387 643l-99 -3q-7 -35 -28.5 -57t-49.5 -22
q-44 0 -67.5 27.5t-15.5 69.5q9 53 48 85.5t95 32.5q62 0 94.5 -37.5t22.5 -95.5z" />
    <glyph glyph-name="uni2080" unicode="&#x2080;" horiz-adv-x="293" 
d="M125 39q-12 -64 18 -64q29 0 41 64q11 65 -18 65q-30 0 -41 -65zM18 39q13 78 55 118.5t107 40.5q67 0 95.5 -43t15.5 -121q-14 -76 -55.5 -115t-108.5 -39q-68 0 -95.5 40.5t-13.5 118.5z" />
    <glyph glyph-name="uni2081" unicode="&#x2081;" horiz-adv-x="280" 
d="M54 -17h177l-16 -95h-177zM40 140l77 21l14 33v-119l-106 -22zM184 -102h-106l53 296h106z" />
    <glyph glyph-name="uni2082" unicode="&#x2082;" horiz-adv-x="282" 
d="M94 -18l46 3l30 7q45 9 76 38.5t37 64.5q9 47 -20 76.5t-84 29.5q-113 0 -152 -110l96 -18q14 43 40 43q16 0 12 -22q-5 -29 -38 -31l-116 -7l-30 -168h263l15 86l-176 -1z" />
    <glyph glyph-name="uni2083" unicode="&#x2083;" horiz-adv-x="282" 
d="M223 42q28 4 47 23t23 47q7 39 -23.5 62.5t-86.5 23.5q-116 0 -154 -97l95 -20q13 33 42 33q20 0 16 -23q-3 -18 -33 -18h-16l-12 -66h16q13 0 20.5 -5.5t6.5 -13.5q-4 -21 -20 -21q-32 0 -33 40l-103 -20q3 -104 121 -104q56 0 94 22.5t45 61.5q5 27 -7.5 46.5
t-38.5 23.5z" />
    <glyph glyph-name="uni2084" unicode="&#x2084;" horiz-adv-x="282" 
d="M182 166l-41 -115l-15 -22l-1 -8h152l-15 -86h-263l19 107l76 163zM243 -112h-108l54 306h108z" />
    <glyph glyph-name="uni2085" unicode="&#x2085;" horiz-adv-x="282" 
d="M13 15h105l7 40l-11 5l17 28l18 102l-104 4zM45 194l-2 -76h235l13 76h-246zM118 15q2 10 10 16.5t18 6.5q26 0 20 -37q-6 -33 -28 -33q-10 0 -16 9t-6 24l-111 -34q7 -38 40 -60.5t82 -22.5q58 0 97.5 31t48.5 82q8 44 -14 68.5t-67 24.5q-73 0 -86 -73z" />
    <glyph glyph-name="uni2086" unicode="&#x2086;" horiz-adv-x="282" 
d="M256 93q-28 23 -67 23q-47 0 -62 -47l-15 -29l13 -7q-3 -10 -8 -35l-104 14q17 98 59.5 143.5t117.5 45.5q69 0 103 -28zM117 -2q-2 -15 3 -25t15 -10q24 0 30 33q3 15 -2.5 24t-17.5 9q-10 0 -17.5 -8.5t-10.5 -22.5zM13 12l99 3q6 35 31.5 57t58.5 22q38 0 58.5 -27.5
t12.5 -69.5q-9 -53 -48 -85.5t-95 -32.5q-62 0 -94.5 37.5t-22.5 95.5z" />
    <glyph glyph-name="uni2087" unicode="&#x2087;" horiz-adv-x="282" 
d="M15 -112h123l149 187l21 119h-263l-15 -86h166l-3 -13l-33 -28z" />
    <glyph glyph-name="uni2088" unicode="&#x2088;" horiz-adv-x="282" 
d="M124 -118q57 0 97 23t47 60q10 59 -50 90l1 5q58 18 64 56q7 37 -22 60t-81 23q-53 0 -92 -23t-46 -59q-10 -57 48 -83l-1 -5q-77 -22 -84 -64q-7 -37 26.5 -60t92.5 -23zM165 115q12 0 8 -23q-4 -21 -6 -26q-23 8 -20 26q2 9 7 16t11 7zM167 -6q-3 -12 -10.5 -20
t-17.5 -8q-11 0 -16.5 8t-3.5 20q3 20 21 28q30 -8 27 -28z" />
    <glyph glyph-name="uni2089" unicode="&#x2089;" horiz-adv-x="282" 
d="M42 -13q28 -23 67 -23q47 0 63 47l15 29l-13 7q3 10 7 35l105 -14q-18 -98 -60 -143.5t-118 -45.5q-69 0 -103 28zM181 82q3 15 -2 25t-16 10q-24 0 -29 -33q-3 -15 2.5 -24t17.5 -9q10 0 17.5 8.5t9.5 22.5zM286 68l-100 -3q-6 -35 -28 -57t-50 -22q-43 0 -66.5 27.5
t-16.5 69.5q10 53 49 85.5t94 32.5q62 0 95 -37.5t23 -95.5z" />
    <glyph glyph-name="peseta" unicode="&#x20a7;" horiz-adv-x="1266" 
d="M1287.15 120q-23.457 -65 -82.6846 -106t-130.228 -41q-76 0 -113.92 43t-22.7617 129l158.174 18q-15.6348 -66 12.3652 -66q13 0 23.4648 31q4.46777 14 1.23047 24t-8.03223 14t-16.5615 11q-1.82324 1 -4.64648 2q-12.9434 6 -18.9141 9t-17.4141 9
q-11.4414 6 -17.6484 10.5t-14.9727 11.5q-8.7666 7 -13.1211 13.5q-4.35352 6.5 -9.76758 15.5t-6.65039 19q-1.23828 10 -2.12305 22t1.99512 25.5t8.7002 29.5q23.457 65 79.2441 103.5q55.7861 38.5 127.786 38.5q152 0 136.384 -151l-161.936 -28
q13.6943 55 -6.30566 55q-12 0 -20.2305 -24q-3.93848 -11 -2.4375 -19.5q1.50195 -8.5 4.88477 -12q3.38379 -3.5 11.3252 -9.5q6.47168 -3 19.4141 -9t20.3252 -9.5q7.38379 -3.5 18.6494 -10.5t17.8848 -12t15.6201 -13.5q9.00195 -8.5 13.0918 -16.5t8.0625 -19.5
q3.97363 -11.5 3.76953 -24q-0.203125 -12.5 -3.02344 -28.5t-8.99316 -34zM861.874 334l-52.2646 -149q-13.874 -39 -9.04883 -48.5q4.82617 -9.5 34.8262 -9.5h60l-44.3867 -127h-106q-78 0 -104.302 38t7.97266 136l57.2031 160h-47l44.21 126h47l47.7969 135l159.938 11
l-50.7354 -146h106l-44.21 -126h-107zM38 0l230.28 654h237q102 0 144.719 -64t7.0918 -164q-33.9219 -96 -118.821 -155q-84.9004 -59 -188.9 -59h-80l-74.3691 -212h-157zM321.104 358h70q40 0 68.2607 18.5q28.2617 18.5 40.2539 52.5q13.6992 38 -0.6875 58.5
t-55.3867 20.5h-70z" />
    <glyph glyph-name="uni20A8" unicode="&#x20a8;" horiz-adv-x="927" 
d="M949.152 120q-23.457 -65 -82.6846 -106t-130.228 -41q-76 0 -113.92 43t-22.7617 129l158.174 18q-15.6348 -66 12.3652 -66q13 0 23.4648 31q4.46777 14 1.23047 24t-8.03223 14t-16.5615 11q-1.82324 1 -4.64648 2q-12.9434 6 -18.9141 9t-17.4141 9
q-11.4414 6 -17.6484 10.5t-14.9727 11.5q-8.7666 7 -13.1211 13.5q-4.35352 6.5 -9.76758 15.5t-6.65039 19q-1.23828 10 -2.12305 22t1.99512 25.5t8.7002 29.5q23.457 65 79.2441 103.5q55.7861 38.5 127.786 38.5q152 0 136.384 -151l-161.936 -28
q13.6943 55 -6.30566 55q-12 0 -20.2305 -24q-3.93848 -11 -2.4375 -19.5q1.50195 -8.5 4.88477 -12q3.38379 -3.5 11.3252 -9.5q6.47168 -3 19.4141 -9t20.3252 -9.5q7.38379 -3.5 18.6494 -10.5t17.8848 -12t15.6201 -13.5q9.00195 -8.5 13.0918 -16.5t8.0625 -19.5
q3.97363 -11.5 3.76953 -24q-0.203125 -12.5 -3.02344 -28.5t-8.99316 -34zM325.65 276h164l17.3496 -276h-163zM38 0l230.28 654h237q102 0 144.719 -64t7.0918 -164q-33.9219 -96 -118.821 -155q-84.9004 -59 -188.9 -59h-80l-74.3691 -212h-157zM321.104 358h70
q40 0 68.2607 18.5q28.2617 18.5 40.2539 52.5q13.6992 38 -0.6875 58.5t-55.3867 20.5h-70z" />
    <glyph glyph-name="dong" unicode="&#x20ab;" horiz-adv-x="507" 
d="M78 69h387l-15 -87h-387zM340 646l-17 -97h282l17 97h-282zM398 306q-9 -52 -39.5 -80.5t-76.5 -28.5t-66 28.5t-11 80.5t39.5 80t75.5 28q46 0 66.5 -28t11.5 -80zM426 306q18 102 -12 157t-102 55q-80 0 -144 -57t-82 -159q-17 -97 24 -153t122 -56q74 0 125 55.5
t69 157.5zM583 687h-118l-32 -185l21 -114l-44 -15l-24 -136l36 -16l-59 -114h118z" />
    <glyph glyph-name="uni2103" unicode="&#x2103;" horiz-adv-x="920" 
d="M1009.26 444l-165.288 -30q7.69434 55 -9.28125 83.5q-16.9766 28.5 -55.9766 28.5q-57 0 -107.754 -52.5q-50.7549 -52.5 -84.8525 -149.5q-33.2168 -92 -18.6182 -142.5t71.5986 -50.5q42 0 82.1406 32t68.3633 90l144.536 -31q-63.624 -117 -156.993 -181.5
t-192.369 -64.5q-128 0 -171.371 91.5t14.7129 256.5q58.7891 169 167.771 262.5t236.981 93.5q90 0 137.659 -61.5t38.7412 -174.5zM347.679 574q17.5 0 34.292 13q16.791 13 23.2871 30q6.49707 17 -1.71094 30q-8.20898 13 -25.209 13t-34.791 -13
q-17.792 -13 -23.7891 -30q-5.99609 -17 2.21289 -30q8.20801 -13 25.708 -13zM230.758 617q19.5195 54 72.3057 92.5t106.786 38.5t78.2139 -38.5t4.69434 -92.5q-18.8711 -56 -68.8926 -93t-106.021 -37t-80.9785 37t-6.10742 93z" />
    <glyph glyph-name="uni2109" unicode="&#x2109;" horiz-adv-x="862" 
d="M559.28 654h466l-51.9111 -147h-309l-37.8613 -107h280l-51.9121 -147h-280l-88.5957 -253h-157zM347.679 574q17.5 0 34.292 13q16.791 13 23.2871 30q6.49707 17 -1.71094 30q-8.20898 13 -25.209 13t-34.791 -13q-17.792 -13 -23.7891 -30q-5.99609 -17 2.21289 -30
q8.20801 -13 25.708 -13zM230.758 617q19.5195 54 72.3057 92.5t106.786 38.5t78.2139 -38.5t4.69434 -92.5q-18.8711 -56 -68.8926 -93t-106.021 -37t-80.9785 37t-6.10742 93z" />
    <glyph glyph-name="uni2116" unicode="&#x2116;" horiz-adv-x="961" 
d="M744.054 318h269l-30.1592 -86h-269zM923.545 508q-23.9863 -68 -1.98633 -68q23 0 46.9863 68q22.457 65 -0.542969 65q-22 0 -44.457 -65zM817.545 508q26.2207 75 75.4473 116t108.227 41q55 0 76.6855 -41.5q21.6846 -41.5 -4.35938 -115.5
q-26.3965 -76 -76.3877 -118.5t-108.491 -42.5t-78.0088 42.5t6.8877 118.5zM646.28 654h158l-230.28 -654h-206l-28.377 412l-144.623 -412h-157l230.28 654h205l28.7295 -410z" />
    <glyph glyph-name="trademark" unicode="&#x2122;" horiz-adv-x="329" 
d="M137 687h106l-9 -48h-29l-24 -137h-48l24 137h-29zM343 598l29 89h65l-33 -185h-48l12 71l-28 -71h-39l-2 71l-12 -71h-49l33 185h65l-1 -89v-22z" />
    <glyph glyph-name="estimated" unicode="&#x212e;" horiz-adv-x="603" 
d="M258 343h374l5 31q18 101 -43 161t-183 60q-127 0 -211.5 -65.5t-104.5 -178.5q-20 -115 42 -181t190 -66q102 0 179.5 43t111.5 119l-32 9q-27 -61 -93.5 -99.5t-145.5 -38.5q-118 0 -89 206zM264 378q22 90 57 138t79 48q46 0 67 -52.5t7 -133.5h-210z" />
    <glyph glyph-name="arrowleft" unicode="&#x2190;" horiz-adv-x="531" 
d="M192 228l53 -49l-18 -101l-152 166l20 111l208 156l-17 -100l-70 -50l-35 -13v-5h380l-18 -97h-380v-5z" />
    <glyph glyph-name="arrowup" unicode="&#x2191;" horiz-adv-x="569" 
d="M291 408l-59 -60h-101l197 180h111l125 -180h-100l-40 60l-7 32h-5l-67 -380h-97l67 380h-5z" />
    <glyph glyph-name="arrowright" unicode="&#x2192;" horiz-adv-x="531" 
d="M444 361l-53 49l18 101l152 -166l-20 -111l-208 -156l17 100l70 50l35 13v5h-380l18 97h380v5z" />
    <glyph glyph-name="arrowdown" unicode="&#x2193;" horiz-adv-x="569" 
d="M384 180l60 62h101l-198 -182h-111l-124 182h100l39 -62l7 -32h5l67 380h97l-67 -380h5z" />
    <glyph glyph-name="arrowboth" unicode="&#x2194;" horiz-adv-x="531" 
d="M192 228l53 -49l-18 -101l-152 166l20 111l208 156l-17 -100l-70 -50l-35 -13v-5h292v5l-29 13l-53 49l18 101l152 -166l-20 -111l-208 -156l17 100l70 50l35 13v5h-292v-5z" />
    <glyph glyph-name="arrowupdn" unicode="&#x2195;" horiz-adv-x="569" 
d="M291 408l-59 -60h-101l197 180h111l125 -180h-100l-40 60l-7 32h-5l-52 -292h5l19 32l60 62h101l-198 -182h-111l-124 182h100l39 -62l7 -32h5l52 292h-5z" />
    <glyph glyph-name="uni2196" unicode="&#x2196;" horiz-adv-x="531" 
d="M196 328l-5 -78l-84 -71l33 245l92 79l235 -18l-83 -71l-77 8l-30 14l-4 -4l222 -269l-81 -68l-221 268l-5 -3z" />
    <glyph glyph-name="uni2197" unicode="&#x2197;" horiz-adv-x="569" 
d="M394 422l-79 -8l-59 71l247 11l65 -79l-60 -238l-58 71l21 78l19 32l-3 3l-316 -268l-56 68l316 269l-3 3z" />
    <glyph glyph-name="uni2198" unicode="&#x2198;" horiz-adv-x="531" 
d="M440 261l5 78l84 71l-33 -245l-92 -79l-235 18l83 71l77 -8l30 -14l4 4l-222 269l81 68l221 -268l5 3z" />
    <glyph glyph-name="uni2199" unicode="&#x2199;" horiz-adv-x="569" 
d="M282 167l79 8l59 -71l-248 -11l-64 79l60 238l58 -71l-22 -78l-19 -32l3 -4l316 269l57 -68l-317 -269l3 -4z" />
    <glyph glyph-name="uni24EA" unicode="&#x24ea;" horiz-adv-x="708" 
d="M310 326q-21 -114 81 -114q100 0 121 114q20 116 -80 116q-102 0 -122 -116zM261.5 326q13.5 78 58 119t115.5 41q73 0 105.5 -42.5t18.5 -120.5q-13 -76 -57.5 -115.5t-117.5 -39.5q-74 0 -105 40t-17.5 118zM90 324q14 78 52.5 143t91 106.5t114 64t123.5 22.5
q59 0 111.5 -22.5t92 -64t57 -106.5t3.5 -143q-14 -79 -52.5 -144t-91 -107t-114 -64.5t-124.5 -22.5t-116.5 22.5t-91.5 64.5t-53.5 107t-1.5 144zM138 324q-12 -68 0.5 -124.5t44.5 -93t77.5 -56t100.5 -19.5q73 0 140.5 33t118.5 101t67 159q12 68 -0.5 124t-44.5 92.5
t-78 56t-100 19.5q-74 0 -141 -33t-118 -101t-67 -158z" />
    <glyph glyph-name="uni24F5" unicode="&#x24f5;" horiz-adv-x="708" 
d="M138 324q-12 -68 0.5 -124.5t44.5 -93t77.5 -56t100.5 -19.5q73 0 140.5 33t118.5 101t67 159q12 68 -0.5 124t-44.5 92.5t-78 56t-100 19.5q-74 0 -141 -33t-118 -101t-67 -158zM90 324q14 78 52.5 143t91 106.5t114 64t123.5 22.5q59 0 111.5 -22.5t92 -64t57 -106.5
t3.5 -143q-14 -79 -52.5 -144t-91 -107t-114 -64.5t-124.5 -22.5t-116.5 22.5t-91.5 64.5t-53.5 107t-1.5 144zM294 395l119 22l17 63h48l-46 -260h74l-8 -47h-202l8 47h80l26 147l-124 -18z" />
    <glyph glyph-name="uni24F6" unicode="&#x24f6;" horiz-adv-x="708" 
d="M295 227l48 11l97 36q114 41 124 102q9 47 -23.5 76t-92.5 29q-123 0 -163 -109l37 -9q33 73 118 73q40 0 61 -17t16 -45q-7 -38 -119 -76l-134 -46l-14 -79h287l8 47l-251 -2zM90 324q14 78 52.5 143t91 106.5t114 64t123.5 22.5q59 0 111.5 -22.5t92 -64t57 -106.5
t3.5 -143q-14 -79 -52.5 -144t-91 -107t-114 -64.5t-124.5 -22.5t-116.5 22.5t-91.5 64.5t-53.5 107t-1.5 144zM138 324q-12 -68 0.5 -124.5t44.5 -93t77.5 -56t100.5 -19.5q73 0 140.5 33t118.5 101t67 159q12 68 -0.5 124t-44.5 92.5t-78 56t-100 19.5q-74 0 -141 -33
t-118 -101t-67 -158z" />
    <glyph glyph-name="uni24F7" unicode="&#x24f7;" horiz-adv-x="708" 
d="M479 328q37 4 61 22.5t29 45.5q7 39 -27 62.5t-96 23.5q-127 0 -167 -97l39 -9q32 62 119 62q43 0 65 -14t18 -39q-3 -17 -18 -27.5t-36 -10.5h-73l-8 -45h73q20 0 31.5 -12t8.5 -29q-4 -24 -30 -36.5t-68 -12.5q-90 0 -98 70l-43 -10q2 -51 36 -78t99 -27q61 0 101.5 22
t47.5 61q5 27 -12.5 47.5t-52.5 24.5zM138 324q-12 -68 0.5 -124.5t44.5 -93t77.5 -56t100.5 -19.5q73 0 140.5 33t118.5 101t67 159q12 68 -0.5 124t-44.5 92.5t-78 56t-100 19.5q-74 0 -141 -33t-118 -101t-67 -158zM90 324q14 78 52.5 143t91 106.5t114 64t123.5 22.5
q59 0 111.5 -22.5t92 -64t57 -106.5t3.5 -143q-14 -79 -52.5 -144t-91 -107t-114 -64.5t-124.5 -22.5t-116.5 22.5t-91.5 64.5t-53.5 107t-1.5 144z" />
    <glyph glyph-name="uni24F8" unicode="&#x24f8;" horiz-adv-x="708" 
d="M138 324q-12 -68 0.5 -124.5t44.5 -93t77.5 -56t100.5 -19.5q73 0 140.5 33t118.5 101t67 159q12 68 -0.5 124t-44.5 92.5t-78 56t-100 19.5q-74 0 -141 -33t-118 -101t-67 -158zM90 324q14 78 52.5 143t91 106.5t114 64t123.5 22.5q59 0 111.5 -22.5t92 -64t57 -106.5
t3.5 -143q-14 -79 -52.5 -144t-91 -107t-114 -64.5t-124.5 -22.5t-116.5 22.5t-91.5 64.5t-53.5 107t-1.5 144zM467 173h-47l15 87h-179l12 68l143 153l30 -29l-110 -115l-36 -23v-8h148l31 174h47l-31 -173h61l-8 -47h-61z" />
    <glyph glyph-name="uni24F9" unicode="&#x24f9;" horiz-adv-x="708" 
d="M90 324q14 78 52.5 143t91 106.5t114 64t123.5 22.5q59 0 111.5 -22.5t92 -64t57 -106.5t3.5 -143q-14 -79 -52.5 -144t-91 -107t-114 -64.5t-124.5 -22.5t-116.5 22.5t-91.5 64.5t-53.5 107t-1.5 144zM138 324q-12 -68 0.5 -124.5t44.5 -93t77.5 -56t100.5 -19.5
q73 0 140.5 33t118.5 101t67 159q12 68 -0.5 124t-44.5 92.5t-78 56t-100 19.5q-74 0 -141 -33t-118 -101t-67 -158zM298 477l-31 -178h45q4 22 33 36t72 14q48 0 69.5 -17.5t15.5 -52.5q-5 -32 -31.5 -49.5t-68.5 -17.5q-38 0 -64.5 14.5t-31.5 38.5l-48 -15
q9 -38 45 -60.5t90 -22.5q63 0 106 31t51 82q10 53 -22.5 83t-97.5 30q-86 0 -117 -55l-6 1l18 33l10 59h225l8 46h-270z" />
    <glyph glyph-name="uni24FA" unicode="&#x24fa;" horiz-adv-x="708" 
d="M307 296q-6 -38 19.5 -62t72.5 -24q40 0 66 20t33 57q4 27 -19 43t-69 16q-43 0 -71 -14t-32 -36zM514 412q-10 31 -69 31q-46 0 -73 -14t-42 -44l-26 -59l3 -3q13 30 45 48.5t72 18.5q60 0 94.5 -30.5t26.5 -76.5q-9 -53 -51.5 -85t-103.5 -32q-67 0 -103.5 37t-25.5 95
q17 98 62.5 143.5t126.5 45.5q41 0 71.5 -16t38.5 -43zM138 324q-12 -68 0.5 -124.5t44.5 -93t77.5 -56t100.5 -19.5q73 0 140.5 33t118.5 101t67 159q12 68 -0.5 124t-44.5 92.5t-78 56t-100 19.5q-74 0 -141 -33t-118 -101t-67 -158zM90 324q14 78 52.5 143t91 106.5
t114 64t123.5 22.5q59 0 111.5 -22.5t92 -64t57 -106.5t3.5 -143q-14 -79 -52.5 -144t-91 -107t-114 -64.5t-124.5 -22.5t-116.5 22.5t-91.5 64.5t-53.5 107t-1.5 144z" />
    <glyph glyph-name="uni24FB" unicode="&#x24fb;" horiz-adv-x="708" 
d="M334 173h57l185 227l14 80h-288l-9 -47h261l-3 -13l-36 -27zM138 324q-12 -68 0.5 -124.5t44.5 -93t77.5 -56t100.5 -19.5q73 0 140.5 33t118.5 101t67 159q12 68 -0.5 124t-44.5 92.5t-78 56t-100 19.5q-74 0 -141 -33t-118 -101t-67 -158zM90 324q14 78 52.5 143
t91 106.5t114 64t123.5 22.5q59 0 111.5 -22.5t92 -64t57 -106.5t3.5 -143q-14 -79 -52.5 -144t-91 -107t-114 -64.5t-124.5 -22.5t-116.5 22.5t-91.5 64.5t-53.5 107t-1.5 144z" />
    <glyph glyph-name="uni24FC" unicode="&#x24fc;" horiz-adv-x="708" 
d="M385 167q62 0 106.5 22.5t50.5 59.5q9 53 -81 79l1 5q46 12 69 28t27 40q6 37 -27 60.5t-90 23.5t-100 -24t-49 -60q-4 -24 15 -40t66 -28l-1 -5q-108 -26 -117 -79q-6 -37 30 -59.5t100 -22.5zM433 441q37 0 58.5 -14t17.5 -35q-5 -32 -89 -45q-46 7 -65.5 17.5
t-16.5 27.5q4 21 31 35t64 14zM497 260q-4 -22 -32.5 -35t-72.5 -13q-43 0 -67.5 13.5t-20.5 34.5q6 37 110 52q46 -7 66 -20t17 -32zM138 324q-12 -68 0.5 -124.5t44.5 -93t77.5 -56t100.5 -19.5q73 0 140.5 33t118.5 101t67 159q12 68 -0.5 124t-44.5 92.5t-78 56
t-100 19.5q-74 0 -141 -33t-118 -101t-67 -158zM90 324q14 78 52.5 143t91 106.5t114 64t123.5 22.5q59 0 111.5 -22.5t92 -64t57 -106.5t3.5 -143q-14 -79 -52.5 -144t-91 -107t-114 -64.5t-124.5 -22.5t-116.5 22.5t-91.5 64.5t-53.5 107t-1.5 144z" />
    <glyph glyph-name="uni24FD" unicode="&#x24fd;" horiz-adv-x="708" 
d="M90 324q14 78 52.5 143t91 106.5t114 64t123.5 22.5q59 0 111.5 -22.5t92 -64t57 -106.5t3.5 -143q-14 -79 -52.5 -144t-91 -107t-114 -64.5t-124.5 -22.5t-116.5 22.5t-91.5 64.5t-53.5 107t-1.5 144zM138 324q-12 -68 0.5 -124.5t44.5 -93t77.5 -56t100.5 -19.5
q73 0 140.5 33t118.5 101t67 159q12 68 -0.5 124t-44.5 92.5t-78 56t-100 19.5q-74 0 -141 -33t-118 -101t-67 -158zM313 239q10 -29 69 -29q47 0 74 13t42 43l27 60l-5 3q-13 -30 -44.5 -48t-72.5 -18q-60 0 -94.5 30t-26.5 76q10 53 52 85.5t103 32.5q67 0 104 -37t27 -95
q-18 -98 -63.5 -143.5t-127.5 -45.5q-41 0 -71 16t-38 43zM520 356q7 38 -19 62.5t-73 24.5q-40 0 -66 -20.5t-33 -57.5q-4 -27 19.5 -42.5t68.5 -15.5q43 0 71 13.5t32 35.5z" />
    <glyph glyph-name="uni24FE" unicode="&#x24fe;" horiz-adv-x="708" 
d="M450 326q-21 -114 27 -114q47 0 68 114q20 116 -27 116q-48 0 -68 -116zM403 326q13 78 43.5 119t74.5 41q47 0 66 -42.5t5 -120.5q-27 -155 -122 -155t-67 158zM138 324q-12 -68 0.5 -124.5t44.5 -93t77.5 -56t100.5 -19.5q73 0 140.5 33t118.5 101t67 159
q12 68 -0.5 124t-44.5 92.5t-78 56t-100 19.5q-74 0 -141 -33t-118 -101t-67 -158zM90 324q14 78 52.5 143t91 106.5t114 64t123.5 22.5q59 0 111.5 -22.5t92 -64t57 -106.5t3.5 -143q-14 -79 -52.5 -144t-91 -107t-114 -64.5t-124.5 -22.5t-116.5 22.5t-91.5 64.5
t-53.5 107t-1.5 144zM242 395l76 22l18 63h47l-46 -260h41l-8 -47h-136l8 47h48l25 145l-81 -16z" />
    <glyph glyph-name="uni24FF" unicode="&#x24ff;" horiz-adv-x="708" 
d="M310 326q20 116 122 116q100 0 80 -116q-21 -114 -121 -114q-102 0 -81 114zM261.5 326q-13.5 -78 17.5 -118t105 -40q73 0 117.5 39.5t57.5 115.5q14 78 -18.5 120.5t-105.5 42.5q-71 0 -115.5 -41t-58 -119zM90 324q14 78 52.5 143t91 106.5t114 64t123.5 22.5
q59 0 111.5 -22.5t92 -64t57 -106.5t3.5 -143q-14 -79 -52.5 -144t-91 -107t-114 -64.5t-124.5 -22.5t-116.5 22.5t-91.5 64.5t-53.5 107t-1.5 144z" />
    <glyph glyph-name="uni2639" unicode="&#x2639;" horiz-adv-x="708" 
d="M337 229q5 26 26.5 44.5t47 18.5t40.5 -18.5t10 -44.5h-27q3 17 -5 28t-23 11t-27 -11t-15 -28h-27zM494.5 352q3.5 20 20 34t37 14t31.5 -14t7.5 -34t-19.5 -34.5t-36.5 -14.5t-32 14.5t-8 34.5zM245.5 352q3.5 20 20 34t37 14t32 -14t8 -34t-20 -34.5t-37 -14.5
t-32 14.5t-8 34.5zM138 324q-12 -68 0.5 -124.5t44.5 -93t77.5 -56t100.5 -19.5q73 0 140.5 33t118.5 101t67 159q12 68 -0.5 124t-44.5 92.5t-78 56t-100 19.5q-74 0 -141 -33t-118 -101t-67 -158zM90 324q14 78 52.5 143t91 106.5t114 64t123.5 22.5q59 0 111.5 -22.5
t92 -64t57 -106.5t3.5 -143q-14 -79 -52.5 -144t-91 -107t-114 -64.5t-124.5 -22.5t-116.5 22.5t-91.5 64.5t-53.5 107t-1.5 144z" />
    <glyph glyph-name="smileface" unicode="&#x263a;" horiz-adv-x="708" 
d="M473 292q-5 -26 -26 -44.5t-46.5 -18.5t-41 18.5t-10.5 44.5h27q-3 -16 5.5 -27.5t23.5 -11.5t26.5 11t14.5 28h27zM494.5 352q3.5 20 20 34t37 14t31.5 -14t7.5 -34t-19.5 -34.5t-36.5 -14.5t-32 14.5t-8 34.5zM245.5 352q3.5 20 20 34t37 14t32 -14t8 -34t-20 -34.5
t-37 -14.5t-32 14.5t-8 34.5zM138 324q-12 -68 0.5 -124.5t44.5 -93t77.5 -56t100.5 -19.5q73 0 140.5 33t118.5 101t67 159q12 68 -0.5 124t-44.5 92.5t-78 56t-100 19.5q-74 0 -141 -33t-118 -101t-67 -158zM90 324q14 78 52.5 143t91 106.5t114 64t123.5 22.5
q59 0 111.5 -22.5t92 -64t57 -106.5t3.5 -143q-14 -79 -52.5 -144t-91 -107t-114 -64.5t-124.5 -22.5t-116.5 22.5t-91.5 64.5t-53.5 107t-1.5 144z" />
    <glyph glyph-name="invsmileface" unicode="&#x263b;" horiz-adv-x="708" 
d="M473 292h-27q-3 -17 -14.5 -28t-26.5 -11t-23.5 11.5t-5.5 27.5h-27q-5 -26 10.5 -44.5t41 -18.5t46.5 18.5t26 44.5zM494.5 352q-3.5 -20 8 -34.5t32 -14.5t36.5 14.5t19.5 34.5t-7.5 34t-31.5 14t-37 -14t-20 -34zM245.5 352q-3.5 -20 8 -34.5t32 -14.5t37 14.5
t20 34.5t-8 34t-32 14t-37 -14t-20 -34zM90 324q14 78 52.5 143t91 106.5t114 64t123.5 22.5q59 0 111.5 -22.5t92 -64t57 -106.5t3.5 -143q-14 -79 -52.5 -144t-91 -107t-114 -64.5t-124.5 -22.5t-116.5 22.5t-91.5 64.5t-53.5 107t-1.5 144z" />
    <glyph glyph-name="uni26AA" unicode="&#x26aa;" horiz-adv-x="708" 
d="M138 324q-12 -68 0.5 -124.5t44.5 -93t77.5 -56t100.5 -19.5q73 0 140.5 33t118.5 101t67 159q12 68 -0.5 124t-44.5 92.5t-78 56t-100 19.5q-74 0 -141 -33t-118 -101t-67 -158zM90 324q14 78 52.5 143t91 106.5t114 64t123.5 22.5q59 0 111.5 -22.5t92 -64t57 -106.5
t3.5 -143q-14 -79 -52.5 -144t-91 -107t-114 -64.5t-124.5 -22.5t-116.5 22.5t-91.5 64.5t-53.5 107t-1.5 144z" />
    <glyph glyph-name="uni26AB" unicode="&#x26ab;" horiz-adv-x="708" 
d="M90 324q14 78 52.5 143t91 106.5t114 64t123.5 22.5q59 0 111.5 -22.5t92 -64t57 -106.5t3.5 -143q-14 -79 -52.5 -144t-91 -107t-114 -64.5t-124.5 -22.5t-116.5 22.5t-91.5 64.5t-53.5 107t-1.5 144z" />
    <glyph glyph-name="uni2776" unicode="&#x2776;" horiz-adv-x="708" 
d="M90 324q14 78 52.5 143t91 106.5t114 64t123.5 22.5q59 0 111.5 -22.5t92 -64t57 -106.5t3.5 -143q-14 -79 -52.5 -144t-91 -107t-114 -64.5t-124.5 -22.5t-116.5 22.5t-91.5 64.5t-53.5 107t-1.5 144zM294 395l-8 -46l124 18l-26 -147h-80l-8 -47h202l8 47h-74l46 260
h-48l-17 -63z" />
    <glyph glyph-name="uni2777" unicode="&#x2777;" horiz-adv-x="708" 
d="M295 227l48 11l97 36q114 41 124 102q9 47 -23.5 76t-92.5 29q-123 0 -163 -109l37 -9q33 73 118 73q40 0 61 -17t16 -45q-7 -38 -119 -76l-134 -46l-14 -79h287l8 47l-251 -2zM90 324q14 78 52.5 143t91 106.5t114 64t123.5 22.5q59 0 111.5 -22.5t92 -64t57 -106.5
t3.5 -143q-14 -79 -52.5 -144t-91 -107t-114 -64.5t-124.5 -22.5t-116.5 22.5t-91.5 64.5t-53.5 107t-1.5 144z" />
    <glyph glyph-name="uni2778" unicode="&#x2778;" horiz-adv-x="708" 
d="M479 328q37 4 61 22.5t29 45.5q7 39 -27 62.5t-96 23.5q-127 0 -167 -97l39 -9q32 62 119 62q43 0 65 -14t18 -39q-3 -17 -18 -27.5t-36 -10.5h-73l-8 -45h73q20 0 31.5 -12t8.5 -29q-4 -24 -30 -36.5t-68 -12.5q-90 0 -98 70l-43 -10q2 -51 36 -78t99 -27q61 0 101.5 22
t47.5 61q5 27 -12.5 47.5t-52.5 24.5zM90 324q14 78 52.5 143t91 106.5t114 64t123.5 22.5q59 0 111.5 -22.5t92 -64t57 -106.5t3.5 -143q-14 -79 -52.5 -144t-91 -107t-114 -64.5t-124.5 -22.5t-116.5 22.5t-91.5 64.5t-53.5 107t-1.5 144z" />
    <glyph glyph-name="uni2779" unicode="&#x2779;" horiz-adv-x="708" 
d="M90 324q14 78 52.5 143t91 106.5t114 64t123.5 22.5q59 0 111.5 -22.5t92 -64t57 -106.5t3.5 -143q-14 -79 -52.5 -144t-91 -107t-114 -64.5t-124.5 -22.5t-116.5 22.5t-91.5 64.5t-53.5 107t-1.5 144zM467 173l15 87h61l8 47h-61l31 173h-47l-31 -174h-148v8l36 23
l110 115l-30 29l-143 -153l-12 -68h179l-15 -87h47z" />
    <glyph glyph-name="uni277A" unicode="&#x277a;" horiz-adv-x="708" 
d="M90 324q14 78 52.5 143t91 106.5t114 64t123.5 22.5q59 0 111.5 -22.5t92 -64t57 -106.5t3.5 -143q-14 -79 -52.5 -144t-91 -107t-114 -64.5t-124.5 -22.5t-116.5 22.5t-91.5 64.5t-53.5 107t-1.5 144zM298 477l-31 -178h45q4 22 33 36t72 14q48 0 69.5 -17.5t15.5 -52.5
q-5 -32 -31.5 -49.5t-68.5 -17.5q-38 0 -64.5 14.5t-31.5 38.5l-48 -15q9 -38 45 -60.5t90 -22.5q63 0 106 31t51 82q10 53 -22.5 83t-97.5 30q-86 0 -117 -55l-6 1l18 33l10 59h225l8 46h-270z" />
    <glyph glyph-name="uni277B" unicode="&#x277b;" horiz-adv-x="708" 
d="M307 296q4 22 32 36t71 14q46 0 69 -16t19 -43q-7 -37 -33 -57t-66 -20q-47 0 -72.5 24t-19.5 62zM514 412l46 16q-8 27 -38.5 43t-71.5 16q-81 0 -126.5 -45.5t-62.5 -143.5q-11 -58 25.5 -95t103.5 -37q61 0 103.5 32t51.5 85q8 46 -26.5 76.5t-94.5 30.5
q-40 0 -72 -18.5t-45 -48.5l-3 3l26 59q15 30 42 44t73 14q59 0 69 -31zM90 324q14 78 52.5 143t91 106.5t114 64t123.5 22.5q59 0 111.5 -22.5t92 -64t57 -106.5t3.5 -143q-14 -79 -52.5 -144t-91 -107t-114 -64.5t-124.5 -22.5t-116.5 22.5t-91.5 64.5t-53.5 107t-1.5 144
z" />
    <glyph glyph-name="uni277C" unicode="&#x277c;" horiz-adv-x="708" 
d="M334 173h57l185 227l14 80h-288l-9 -47h261l-3 -13l-36 -27zM90 324q14 78 52.5 143t91 106.5t114 64t123.5 22.5q59 0 111.5 -22.5t92 -64t57 -106.5t3.5 -143q-14 -79 -52.5 -144t-91 -107t-114 -64.5t-124.5 -22.5t-116.5 22.5t-91.5 64.5t-53.5 107t-1.5 144z" />
    <glyph glyph-name="uni277D" unicode="&#x277d;" horiz-adv-x="708" 
d="M385 167q62 0 106.5 22.5t50.5 59.5q9 53 -81 79l1 5q46 12 69 28t27 40q6 37 -27 60.5t-90 23.5t-100 -24t-49 -60q-4 -24 15 -40t66 -28l-1 -5q-108 -26 -117 -79q-6 -37 30 -59.5t100 -22.5zM433 441q37 0 58.5 -14t17.5 -35q-5 -32 -89 -45q-46 7 -65.5 17.5
t-16.5 27.5q4 21 31 35t64 14zM497 260q-4 -22 -32.5 -35t-72.5 -13q-43 0 -67.5 13.5t-20.5 34.5q6 37 110 52q46 -7 66 -20t17 -32zM90 324q14 78 52.5 143t91 106.5t114 64t123.5 22.5q59 0 111.5 -22.5t92 -64t57 -106.5t3.5 -143q-14 -79 -52.5 -144t-91 -107
t-114 -64.5t-124.5 -22.5t-116.5 22.5t-91.5 64.5t-53.5 107t-1.5 144z" />
    <glyph glyph-name="uni277E" unicode="&#x277e;" horiz-adv-x="708" 
d="M90 324q14 78 52.5 143t91 106.5t114 64t123.5 22.5q59 0 111.5 -22.5t92 -64t57 -106.5t3.5 -143q-14 -79 -52.5 -144t-91 -107t-114 -64.5t-124.5 -22.5t-116.5 22.5t-91.5 64.5t-53.5 107t-1.5 144zM313 239l-45 -14q8 -27 38 -43t71 -16q82 0 127.5 45.5t63.5 143.5
q10 58 -27 95t-104 37q-61 0 -103 -32.5t-52 -85.5q-8 -46 26.5 -76t94.5 -30q41 0 72.5 18t44.5 48l5 -3l-27 -60q-15 -30 -42 -43t-74 -13q-59 0 -69 29zM520 356q-4 -22 -32 -35.5t-71 -13.5q-45 0 -68.5 15.5t-19.5 42.5q7 37 33 57.5t66 20.5q47 0 73 -24.5t19 -62.5z
" />
    <glyph glyph-name="uni277F" unicode="&#x277f;" horiz-adv-x="708" 
d="M450 326q20 116 68 116q47 0 27 -116q-21 -114 -68 -114q-48 0 -27 114zM403 326q-28 -158 67 -158t122 155q14 78 -5 120.5t-66 42.5q-44 0 -74.5 -41t-43.5 -119zM90 324q14 78 52.5 143t91 106.5t114 64t123.5 22.5q59 0 111.5 -22.5t92 -64t57 -106.5t3.5 -143
q-14 -79 -52.5 -144t-91 -107t-114 -64.5t-124.5 -22.5t-116.5 22.5t-91.5 64.5t-53.5 107t-1.5 144zM242 395l-8 -46l81 16l-25 -145h-48l-8 -47h136l8 47h-41l46 260h-47l-18 -63z" />
    <glyph glyph-name="uF0000" unicode="&#xf0000;" horiz-adv-x="329" 
d="M609 811l-118 -177h-81l74 177h125zM254 593l-57 -64h-117l123 136h154l75 -136h-117l-35 64l-3 21h-12z" />
    <glyph glyph-name="uF0001" unicode="&#xf0001;" horiz-adv-x="326" 
d="M366 811h125l12 -177h-81zM254 593l-57 -64h-117l123 136h154l75 -136h-117l-35 64l-3 21h-12z" />
    <glyph glyph-name="uF0002" unicode="&#xf0002;" horiz-adv-x="327" 
d="M459 733q2 12 -7 12t-17 -21l-72 23q14 40 44.5 61t59.5 21q36 0 56.5 -27.5t13.5 -67.5q-3 -18 -13.5 -35.5t-19 -27.5t-26 -26.5t-21.5 -20.5l-41 56q40 36 43 53zM254 593l-57 -64h-117l123 136h154l75 -136h-117l-35 64l-3 21h-12z" />
    <glyph glyph-name="uF0003" unicode="&#xf0003;" horiz-adv-x="506" 
d="M342 231q10 59 1 90t-36 31q-25 0 -45.5 -31.5t-30.5 -89.5q-10 -59 -1 -89.5t35 -30.5t46.5 31t30.5 89zM370.5 230.5q-21.5 -122.5 -71.5 -188.5t-119 -66q-72 0 -105 67.5t-12 184.5q21 121 81 189.5t131 68.5q66 0 91.5 -66.5t4 -189zM551 460l-82 -460h-168l60 114
l-37 16l36 200l43 16l-20 114h168z" />
    <glyph glyph-name="a.ss01" horiz-adv-x="506" 
d="M342 231q10 59 1 90t-36 31q-25 0 -45.5 -31.5t-30.5 -89.5q-10 -59 -1 -89.5t35 -30.5t46.5 31t30.5 89zM370.5 230.5q-21.5 -122.5 -71.5 -188.5t-119 -66q-72 0 -105 67.5t-12 184.5q21 121 81 189.5t131 68.5q66 0 91.5 -66.5t4 -189zM551 460l-82 -460h-168l60 114
l-37 16l36 200l43 16l-20 114h168z" />
    <glyph glyph-name="g.ss02" horiz-adv-x="486" 
d="M367 333l26 8l-20 119h158l-80 -451q-19 -108 -83 -165.5t-155 -57.5q-89 0 -136 53.5t-44 138.5l160 32q-3 -32 8 -53t35 -21t37.5 20.5t21.5 65.5l63 119l-22 9q-22 -61 -59 -93t-83 -32q-71 0 -108.5 61t-17.5 170q18 106 74 167t128 61q48 0 73 -38.5t24 -112.5z
M336 252q7 42 -3.5 65t-37.5 23q-25 0 -44 -23t-26 -65q-7 -39 3.5 -60.5t36.5 -21.5q27 0 45.5 21.5t25.5 60.5z" />
    <glyph glyph-name="zero.slsh" horiz-adv-x="492" 
d="M497 557l6 -116l-406 -359l-7 116zM238 324q-36 -203 30 -203t102 203q35 202 -31 202t-101 -202zM79.5 324q31.5 177 105.5 261.5t180 84.5q98 0 145.5 -86t17.5 -260q-32 -177 -106.5 -262.5t-179.5 -85.5t-149.5 85.5t-13 262.5z" />
    <glyph glyph-name="parenleft.case" horiz-adv-x="344" 
d="M247 -79q-36 23 -65 50.5t-54 64.5t-38 80.5t-17 98t8 116.5q48 273 311 408l40 -116q-79 -41 -142.5 -116.5t-81 -175t19.5 -176.5t101 -118z" />
    <glyph glyph-name="parenright.case" horiz-adv-x="344" 
d="M213 739q36 -23 65.5 -50.5t54 -64.5t38 -80.5t17.5 -98t-8 -116.5q-48 -273 -311 -408l-41 116q79 41 142.5 116.5t81 175t-19 176.5t-100.5 118z" />
    <glyph glyph-name="braceleft.case" horiz-adv-x="326" 
d="M404 740l10 -116q-2 -2 -15 -12.5t-17 -14t-14.5 -13.5t-14.5 -16.5t-11 -17t-10.5 -22t-6.5 -24.5q-12 -68 -45 -113.5t-77 -56.5l-2 -12q41 -11 57.5 -56t4.5 -113q-2 -11 -1.5 -21t1 -17.5t4.5 -16.5t6 -14t8.5 -13t9 -11.5t10.5 -12t10 -10.5l-51 -115
q-153 72 -123 240q8 47 -3.5 75t-39.5 28h-25l23 127h25q27 0 48.5 28t30.5 75q30 170 208 245z" />
    <glyph glyph-name="braceright.case" horiz-adv-x="326" 
d="M39 -78l-11 116q3 2 16 12.5t16.5 14t14.5 13.5t15 16.5t11 17t10.5 22t6.5 24.5q12 68 45 113.5t77 56.5l2 12q-41 11 -57.5 56t-4.5 113q1 11 1 21t-0.5 17.5t-4.5 16.5t-6.5 14t-8.5 13t-8.5 11.5t-10.5 12t-10 10.5l51 115q153 -72 123 -240q-8 -47 3.5 -75t39.5 -28
h25l-23 -127h-25q-27 0 -49 -28t-30 -75q-30 -170 -208 -245z" />
    <glyph glyph-name="bracketleft.case" horiz-adv-x="324" 
d="M166 726l-138 -784h265l22 127h-138l94 531h138l22 126h-265z" />
    <glyph glyph-name="bracketright.case" horiz-adv-x="324" 
d="M276 -58l139 784h-265l-23 -127h138l-94 -531h-138l-22 -126h265z" />
    <glyph glyph-name="hyphen.case" horiz-adv-x="378" 
d="M83 388h350l-22 -126h-350z" />
    <glyph glyph-name="colon.case" horiz-adv-x="215" 
d="M104.5 428q5.5 33 32.5 56t60.5 23t52 -23t13 -56t-32.5 -56t-60.5 -23t-52 23t-13 56zM63 190q5 33 32 56t60.5 23t52 -23t13.5 -56q-6 -34 -33 -56t-60.5 -22t-52 22t-12.5 56z" />
    <glyph glyph-name="semicolon.case" horiz-adv-x="218" 
d="M106 428q6 33 33 56t60 23t52 -23t13 -56t-32.5 -56t-60 -23t-52.5 23t-13 56zM64 192q5 33 32 56t60.5 23t52 -23t13.5 -56q-22 -125 -74 -179.5t-122 -54.5l5 82q56 0 94 24t54 70q-21 -20 -50 -20q-34 0 -52.5 22t-12.5 56z" />
    <glyph glyph-name="less.case" horiz-adv-x="366" 
d="M228 301l152 -49l-23 -129l-282 116l27 153l323 117l-23 -130l-169 -48l-56 -9l-2 -13z" />
    <glyph glyph-name="greater.case" horiz-adv-x="366" 
d="M251 331l-151 49l22 129l282 -116l-27 -153l-323 -117l23 130l169 48l56 9l2 13z" />
    </font>
</defs>
</svg>
